<svg version="1.1" id="Layer_1" xmlns="http://www.w3.org/2000/svg" xmlns:xlink="http://www.w3.org/1999/xlink" x="0px" y="0px"
	 width="100%" viewBox="0 0 1024 1024" enable-background="new 0 0 1024 1024" xml:space="preserve">
<path fill="#000000" opacity="1.000000" stroke="none" 
	d="
M429.701233,809.170410 
	C424.709442,795.621155 421.024109,782.049438 416.463287,768.760559 
	C413.532623,760.221558 412.524628,751.004333 410.873138,742.050842 
	C409.638672,735.358276 408.829102,728.588379 407.676605,721.879333 
	C407.177979,718.976746 404.987030,716.968628 403.127747,714.870850 
	C402.342804,713.985168 401.260437,713.691589 399.976318,714.411926 
	C387.140259,721.612549 372.617310,724.848938 359.535461,731.196289 
	C351.363403,735.161316 343.363953,739.540283 334.772125,742.437561 
	C320.375977,747.291992 305.875122,751.888611 290.565887,753.156738 
	C285.790009,753.552368 281.303894,755.508972 276.536133,756.345825 
	C263.915344,758.561035 251.256927,759.213501 238.659653,757.433105 
	C230.505417,756.280701 222.103516,754.596619 214.678467,751.237061 
	C207.804276,748.126709 201.226822,743.281494 196.014725,737.782288 
	C181.336151,722.295044 180.579895,702.853333 184.156479,683.450317 
	C185.402802,676.688904 187.263443,669.686829 189.273880,662.911194 
	C190.929413,657.331543 189.572205,653.483093 184.242859,649.737061 
	C182.942719,648.823181 181.991791,648.100342 181.640961,646.427368 
	C180.328949,640.170532 177.905487,634.141296 177.872879,627.624207 
	C177.864609,625.971069 177.510223,624.254639 177.840240,622.677246 
	C178.783752,618.167480 179.245438,613.338135 181.257660,609.315308 
	C185.758698,600.316833 192.646561,593.293823 201.214920,587.796936 
	C209.302292,582.608582 217.772354,578.875793 227.342896,577.399780 
	C231.584702,576.745544 232.739120,572.183655 234.762909,569.089539 
	C240.561615,560.223694 247.180496,551.937683 253.912354,543.861389 
	C258.998413,537.759521 263.178497,531.032898 268.492157,525.071533 
	C279.583649,512.627991 291.680450,501.397308 304.749420,491.121033 
	C314.194977,483.693909 315.833160,484.565063 305.989166,473.878662 
	C295.121307,462.080811 284.620148,450.089172 276.145569,436.359375 
	C273.714142,432.420166 268.870270,430.175781 266.554382,425.800751 
	C265.858948,424.486969 264.622711,423.435547 264.043610,422.088013 
	C260.490265,413.819550 254.424789,407.131958 249.947693,399.447998 
	C243.623047,388.593170 234.819855,379.469299 228.802414,368.265289 
	C226.282394,363.573273 222.575974,358.556488 217.747559,355.139160 
	C215.998642,353.901276 215.497070,351.804199 214.904495,349.968140 
	C211.709381,340.067993 208.491089,330.274231 204.062332,320.739471 
	C197.142700,305.842041 195.418808,289.756378 195.304001,273.221680 
	C195.232803,262.968842 195.697861,252.953262 197.773438,243.042877 
	C200.214920,231.385376 206.273178,222.273956 218.041534,217.956863 
	C222.528702,216.310791 225.307297,211.983017 229.507080,210.144669 
	C238.579605,206.173386 248.310394,205.253662 258.122620,205.778854 
	C261.307434,205.949341 264.256470,205.822891 267.417114,205.072113 
	C273.047668,203.734650 279.133514,204.757156 284.049683,206.945770 
	C291.499908,210.262482 299.524261,210.431229 307.059448,213.103790 
	C316.821198,216.566086 326.119934,220.678345 334.838074,226.204025 
	C352.329865,237.290649 369.737732,248.583893 388.201630,257.947693 
	C393.795471,260.784576 398.202148,264.847565 403.389618,267.963104 
	C408.364990,270.951324 410.455536,269.971008 411.973694,264.570068 
	C412.914673,261.222443 413.627441,257.727783 416.336884,255.199646 
	C417.142914,254.447495 417.207489,253.723572 417.099731,252.587097 
	C416.550323,246.792236 416.687103,241.310532 420.953156,236.368912 
	C423.203186,233.762573 424.367828,230.058426 424.999908,226.373459 
	C427.710815,210.569000 433.870270,196.119858 442.617950,182.740540 
	C444.203278,180.315857 444.770142,177.541794 445.619476,174.861115 
	C448.022217,167.277512 451.040955,160.666702 458.677643,156.166824 
	C464.727478,152.601990 468.178040,145.646530 470.844421,139.000336 
	C473.917236,131.341141 478.816376,125.373932 485.613831,120.867149 
	C493.649261,115.539558 501.703247,110.253571 511.171692,107.677261 
	C523.034180,104.449516 534.550232,104.112495 545.989685,109.870522 
	C550.215698,111.997688 554.568726,114.041916 559.833374,114.379921 
	C571.201355,115.109756 577.028259,123.785309 582.303284,132.593170 
	C589.938965,145.342697 595.309265,159.206924 600.153503,173.097336 
	C605.619995,188.772064 609.927124,204.840012 612.762573,221.384415 
	C614.615051,232.193192 615.843018,243.319717 619.779541,253.847870 
	C622.549744,261.256714 623.365601,269.280151 624.356323,277.161530 
	C624.377014,277.326263 624.364868,277.494843 624.378296,277.660828 
	C625.172791,287.472412 627.122070,288.709961 636.015503,284.790771 
	C645.906128,280.432190 655.649902,275.724426 665.644043,271.623016 
	C671.095398,269.385925 672.051392,264.190674 674.282776,260.010895 
	C680.148621,249.023224 688.410767,240.972046 700.094971,236.565887 
	C705.135803,234.664978 708.890564,230.292236 714.894592,230.048248 
	C728.998962,229.475067 742.048096,231.617599 752.295288,242.355438 
	C755.025452,245.216324 758.414001,245.715240 761.883972,245.513977 
	C776.144836,244.686798 790.434998,244.180099 804.637207,245.635239 
	C814.748840,246.671280 825.582214,246.261612 834.193665,252.805862 
	C841.176025,258.112061 846.719238,264.994293 849.339111,273.638733 
	C851.049622,279.282959 852.740051,284.895172 852.809692,290.995361 
	C852.858887,295.299713 853.139465,299.339569 851.828674,303.639008 
	C849.301270,311.928650 849.334106,320.903534 845.046021,328.784088 
	C843.697754,331.261932 841.406860,333.786957 843.390442,337.071716 
	C843.555542,337.345032 843.249817,338.046661 842.980774,338.417084 
	C836.142334,347.830963 834.724854,360.121490 826.461121,368.880737 
	C822.646423,372.924164 819.335266,377.535797 815.942017,382.016632 
	C810.571899,389.108002 805.436035,396.375610 800.674744,403.834839 
	C799.005432,406.450012 798.018616,409.656281 795.866577,412.179077 
	C793.736450,414.676178 792.024963,416.494324 787.899353,416.555573 
	C783.510376,416.620636 781.401733,421.523560 779.378967,425.142914 
	C780.375671,427.076416 782.188721,424.560059 783.092651,426.515411 
	C781.374634,432.086090 777.110840,436.228088 773.114807,440.190491 
	C766.023010,447.222565 760.882080,455.963837 753.101990,462.341248 
	C749.820007,465.031555 747.425232,468.439453 743.352966,470.657410 
	C740.449951,472.238525 739.088074,477.240997 735.928589,480.019531 
	C734.202576,481.537354 732.660339,483.269958 730.460449,484.788727 
	C728.881165,482.975861 727.938232,481.520172 730.598389,479.762695 
	C735.817871,476.314392 738.015991,470.048157 743.087219,466.351288 
	C746.985474,463.509521 750.739563,460.357544 752.699951,455.522339 
	C739.483154,465.885590 727.166443,477.209625 715.613586,490.236603 
	C720.527100,491.066925 721.409607,485.544525 725.131897,485.368469 
	C727.839417,488.905945 727.484436,490.420441 722.856384,492.966095 
	C719.589600,494.763000 716.424072,496.443298 715.708435,500.652283 
	C715.439697,502.233276 715.149353,504.071228 716.337891,504.873810 
	C721.339539,508.251282 723.277466,513.622070 725.902466,518.582458 
	C729.505249,525.390564 735.163208,530.542236 740.481934,535.876343 
	C744.317139,539.722595 746.691284,544.527222 750.075378,548.565857 
	C757.314148,557.204651 764.925293,565.514771 771.804749,574.479187 
	C774.357178,577.805237 776.729004,581.022888 778.388428,584.890869 
	C781.003662,590.986755 787.080322,594.329773 790.632019,599.822998 
	C795.998962,608.123901 802.297974,615.732178 805.959717,625.182861 
	C808.449524,631.608765 812.762878,637.241516 816.723145,643.000549 
	C820.611267,648.654663 823.241882,655.192993 826.250977,661.426941 
	C829.636230,668.440247 833.101807,675.417542 835.495056,682.876709 
	C838.820618,693.241760 841.900879,703.643066 842.379333,714.614136 
	C842.516357,717.756226 842.050415,720.948425 843.578796,723.938538 
	C843.917297,724.600830 843.895142,725.581787 843.728149,726.348267 
	C840.462585,741.333435 836.047668,755.794495 824.084167,766.495789 
	C818.838745,771.187683 812.095703,773.689148 805.534424,774.048340 
	C789.322815,774.936035 773.128967,778.180054 756.869995,776.148560 
	C747.072205,774.924438 737.201538,773.365967 727.997131,769.316284 
	C725.140137,768.059265 722.454041,766.640625 718.990906,767.073792 
	C716.846680,767.341919 714.222717,766.577148 712.314087,765.438110 
	C704.271606,760.638306 694.920776,759.128540 686.685059,754.778931 
	C675.736084,748.996277 664.394592,743.925903 652.591614,740.183228 
	C644.306030,737.555908 636.311279,734.424133 628.806519,730.124695 
	C625.385925,728.165100 624.020691,729.323669 623.161255,732.605103 
	C621.228149,739.986450 619.433838,747.413635 617.190186,754.701172 
	C615.526245,760.105469 614.726379,765.884277 611.286926,770.687561 
	C609.437500,769.986389 610.259644,768.774475 610.632812,767.777649 
	C615.422424,754.983887 617.145874,741.468689 619.990479,728.217285 
	C620.418762,726.222412 619.786133,724.827209 617.743286,724.554260 
	C615.700195,724.281189 614.804504,725.635986 614.420410,727.490173 
	C613.106567,733.833008 611.821899,740.183167 610.398743,746.501770 
	C607.633179,758.780640 604.738892,771.030457 601.981079,783.311035 
	C600.367554,790.496216 602.595947,796.481201 607.593506,801.816711 
	C618.120850,813.055908 618.445007,829.484924 609.329102,841.706604 
	C606.244934,845.841614 602.507935,849.399109 599.661255,853.653320 
	C595.321777,860.138550 588.860107,862.019775 581.678406,862.412415 
	C576.889526,862.674255 571.937195,862.049194 568.252136,866.240906 
	C567.813660,866.739624 566.630920,867.052856 565.999329,866.840088 
	C559.927307,864.794189 556.702332,868.802246 554.346313,872.975708 
	C547.174622,885.679749 535.371521,892.984741 522.362732,896.252930 
	C508.353241,899.772522 493.424316,899.327148 480.018524,891.798828 
	C476.786255,889.983765 473.988190,887.275635 471.273804,884.681702 
	C464.350891,878.065918 457.599640,871.270813 450.746704,864.581238 
	C449.858459,863.714111 448.863678,862.628845 449.398041,861.583618 
	C453.073761,854.394653 447.054291,850.095337 444.372406,844.930237 
	C443.331268,842.925049 441.618988,841.142151 440.962311,838.915039 
	C437.990082,828.834595 433.019745,819.525452 429.701233,809.170410 
M384.299500,549.234314 
	C379.151886,542.992126 373.051819,537.662903 367.547089,531.785889 
	C362.923706,526.849854 357.498871,522.734924 351.964417,519.572937 
	C344.841248,515.503357 339.674561,509.376831 333.105164,504.825256 
	C329.281799,502.176239 326.611328,501.992279 323.430481,504.642029 
	C321.407501,506.327362 319.693115,508.387512 317.870514,510.308167 
	C309.469391,519.161316 299.039215,525.792297 290.925995,534.971069 
	C288.310303,537.930237 285.640015,540.875854 283.031860,543.816650 
	C277.130859,550.470398 269.937134,555.920105 265.082825,563.570007 
	C261.588409,569.076965 257.934509,574.469604 257.057281,581.063599 
	C256.544189,584.920410 255.614380,589.375244 259.312469,592.150330 
	C265.283997,596.631470 267.764069,603.725342 267.324158,609.671265 
	C266.566498,619.911621 264.920715,630.748230 256.528839,638.574219 
	C255.959976,639.104736 255.788620,640.043457 255.369812,640.755554 
	C249.382309,650.936462 241.372314,658.036743 228.814880,658.365540 
	C227.747238,658.393433 226.450684,658.955505 225.695679,659.706726 
	C224.146774,661.247986 222.260391,661.932739 220.290466,661.938843 
	C214.987534,661.955139 213.098724,665.166870 212.315170,669.723938 
	C212.063217,671.189331 211.648621,672.663818 211.063400,674.029053 
	C205.433472,687.163025 203.912857,699.809204 212.425537,712.788574 
	C215.862198,718.028503 219.421555,721.985840 224.970062,724.771484 
	C241.339371,732.989746 258.492981,731.740601 275.579742,728.911743 
	C285.943390,727.195923 296.271484,725.244751 306.400726,721.758667 
	C322.695557,716.150574 338.883789,710.291260 354.915955,704.011475 
	C366.025543,699.659912 377.007355,694.937195 387.837738,689.929260 
	C401.313507,683.697998 401.808594,682.966309 399.175171,668.251831 
	C398.970428,667.107788 398.563538,666.001526 398.310028,664.864441 
	C395.997925,654.494751 393.410614,644.023682 393.948273,633.420349 
	C394.470154,623.128296 393.558716,612.891418 393.103790,602.732056 
	C392.575958,590.944702 391.305664,579.075562 390.304565,567.254517 
	C389.761261,560.838745 389.509918,554.703369 384.299500,549.234314 
M626.355286,671.069275 
	C625.847961,673.015625 628.177734,675.439819 627.336670,676.204712 
	C621.966003,681.089844 627.427002,685.345520 627.715027,689.836487 
	C627.756897,690.490356 627.976990,691.151917 627.914307,691.790283 
	C627.332764,697.713074 629.451538,701.138428 635.248291,702.447815 
	C650.244690,705.835327 663.500671,713.569275 677.541199,719.308777 
	C685.578369,722.594177 693.448730,726.351196 701.609741,729.362976 
	C708.443787,731.885132 715.410706,734.044800 722.279724,736.475403 
	C731.163391,739.618958 740.185669,742.100830 749.413452,744.140564 
	C755.759216,745.543274 762.375671,745.129333 768.484131,747.372864 
	C778.817383,751.167847 788.479309,748.070251 797.823669,744.262085 
	C802.896484,742.194763 806.578003,738.085388 808.838562,732.591125 
	C811.431702,726.288696 811.120178,720.002563 810.857361,713.502930 
	C810.131653,695.553223 806.193481,678.377502 798.353455,662.245605 
	C795.440857,656.252686 791.033752,651.119263 788.256592,644.861389 
	C782.751953,632.457581 776.218506,620.671509 765.899353,611.202393 
	C749.158752,595.840759 739.215393,575.101685 724.849182,557.770996 
	C714.958618,545.839600 703.536255,535.569885 692.890381,524.470764 
	C691.645142,523.172485 690.024414,522.880493 688.285278,523.595764 
	C683.293640,525.648804 678.420959,528.802124 675.177185,532.462463 
	C666.073486,542.735107 655.171021,550.657959 644.398499,558.796326 
	C641.509949,560.978577 639.264893,563.566345 638.849426,566.694214 
	C638.267822,571.072876 637.131165,575.396667 637.568481,580.007996 
	C638.398376,588.758789 637.532715,597.646179 635.885925,606.152039 
	C633.780457,617.027222 632.687988,628.038818 630.517822,638.902710 
	C628.450623,649.251343 627.743958,659.871765 626.355286,671.069275 
M238.576370,314.001343 
	C241.800156,319.537903 243.912308,325.669189 248.301773,330.597229 
	C252.463470,335.269562 255.265091,340.838623 257.843689,347.403320 
	C250.312958,342.196869 247.976562,333.315613 240.369827,328.790466 
	C238.732910,332.576508 239.979889,335.178314 241.262436,337.584717 
	C244.144531,342.992279 247.373505,348.214905 250.257355,353.621582 
	C255.968384,364.328796 262.674225,374.374573 269.682678,384.268188 
	C276.688324,394.157837 285.316895,402.741089 292.453552,412.405884 
	C304.124756,428.211548 317.920990,442.002289 331.118805,456.372162 
	C336.457642,462.185120 338.509735,462.039062 345.360657,457.583160 
	C356.573853,450.290100 365.952301,440.480652 377.759705,434.004181 
	C387.100189,428.880890 393.518250,422.371368 393.426727,410.383026 
	C393.351349,400.511475 396.700806,390.589752 396.429352,380.748322 
	C395.714905,354.847076 400.070435,329.615570 404.371460,304.303650 
	C405.273285,298.996277 407.540863,293.232605 400.830994,289.301178 
	C393.004028,284.715210 385.498169,279.582306 377.829742,274.723358 
	C376.729858,274.026459 375.484650,272.981934 374.148834,273.732269 
	C370.987549,275.507904 369.461578,273.502930 368.228851,271.233490 
	C367.127869,269.206512 365.308502,268.126526 363.605743,266.806213 
	C358.155640,262.580200 351.821075,259.921356 345.555634,257.406769 
	C341.750519,255.879593 338.213501,252.072968 332.653107,254.159454 
	C337.196960,259.158630 344.025146,259.271179 348.664490,263.427490 
	C347.081299,264.429749 345.751038,264.475281 344.526917,263.874115 
	C337.577148,260.461029 330.736389,256.816162 323.709686,253.572693 
	C317.882416,250.882843 312.784607,246.905411 306.382812,245.139999 
	C296.619812,242.447632 286.572388,241.170486 276.835175,238.624786 
	C267.709320,236.238937 258.618011,236.677734 249.866837,238.465927 
	C235.554413,241.390533 221.263855,259.496307 224.372513,275.847412 
	C225.176590,280.076752 226.447205,284.225769 227.100174,288.473694 
	C228.536728,297.819153 234.452957,305.081116 238.576370,314.001343 
M781.825867,387.323181 
	C784.099609,385.647644 786.003235,383.749084 787.515686,381.236908 
	C790.674133,375.990662 794.043640,370.838715 797.718994,365.942719 
	C806.935913,353.664948 812.255249,339.684540 815.886047,324.992371 
	C818.572510,314.121460 818.735107,303.044556 818.545532,291.845703 
	C818.331543,279.210663 813.388733,274.909454 802.446289,272.305389 
	C796.087219,270.792023 789.460449,272.139893 783.212463,270.277740 
	C777.176636,268.478882 772.028564,272.159882 766.370422,272.619720 
	C764.845520,272.743683 763.768311,274.239044 763.494629,275.783356 
	C762.061035,283.873138 756.178589,289.406555 751.486938,295.335693 
	C745.271240,303.190887 737.212402,309.426331 728.786377,314.941345 
	C723.911194,318.132202 718.047974,319.992218 712.601685,318.262573 
	C704.110901,315.566010 694.817017,313.731689 688.883240,306.013489 
	C685.597839,301.740112 679.892883,299.990417 677.394287,295.175934 
	C674.497314,289.593384 670.803955,290.353455 665.831116,291.995514 
	C654.400146,295.769897 644.740540,302.783844 634.242065,308.249054 
	C632.843628,308.977081 632.242737,310.096649 632.436951,311.490662 
	C633.092163,316.192474 632.364685,320.803101 632.116089,325.476562 
	C631.715088,333.013763 632.710815,340.636597 633.276855,348.211304 
	C634.139526,359.755432 636.082031,371.167206 636.586792,382.791168 
	C637.204102,397.006073 639.035950,411.172333 639.326172,425.434052 
	C639.510193,434.476471 642.004944,441.987396 650.631958,447.117371 
	C655.177856,449.820465 660.012451,453.157166 663.397583,457.156891 
	C670.394897,465.424652 679.673157,470.708344 687.556824,477.746185 
	C688.856201,478.906189 690.215820,478.597534 691.750916,478.124054 
	C697.023682,476.497864 701.143494,472.937866 704.881897,469.320801 
	C718.065857,456.564941 731.541321,444.093323 744.025024,430.624512 
	C756.897949,416.735626 769.494385,402.609161 781.825867,387.323181 
M477.550842,172.147980 
	C477.415771,172.245453 477.250427,172.318649 477.149902,172.443878 
	C470.994019,180.111084 470.066986,190.804901 462.546600,197.687256 
	C462.437622,197.787003 462.416718,197.990128 462.369812,198.149460 
	C459.969940,206.305267 456.190857,213.871918 452.603882,221.539352 
	C450.512268,226.010406 448.244843,230.675827 447.552460,235.469849 
	C445.882294,247.034073 441.650970,257.816376 437.945709,268.690247 
	C434.793579,277.940979 435.776093,283.082489 444.072845,288.004608 
	C451.199707,292.232666 458.542358,296.263092 465.049805,301.330841 
	C475.249054,309.273621 485.582764,316.952423 496.406586,324.030975 
	C503.158905,328.446808 509.779083,333.217804 515.753357,338.610657 
	C519.131775,341.660217 521.923340,342.864075 525.839111,340.717163 
	C528.458679,339.280975 531.102905,337.815491 533.480286,336.023804 
	C550.804260,322.967926 570.372986,314.036743 590.003174,305.250702 
	C597.461426,301.912567 599.951660,299.314941 598.544128,291.409302 
	C596.352234,279.098114 594.950012,266.680603 591.971069,254.448044 
	C586.827820,233.328491 582.836548,211.903275 575.357544,191.438873 
	C572.939026,184.821533 573.802002,177.587082 570.291016,171.229156 
	C568.585754,168.141205 565.832703,165.769897 564.572205,162.587692 
	C560.049927,151.170547 551.473145,143.108810 542.423279,135.515320 
	C534.973328,129.264236 526.155945,128.549454 519.378723,133.357574 
	C516.959595,135.073837 514.760071,137.033417 512.036316,138.356171 
	C504.303955,142.111389 498.357849,148.054596 492.516418,154.222504 
	C487.299011,159.731476 484.041901,166.814453 477.550842,172.147980 
M585.312988,769.491882 
	C586.761963,759.127319 591.466125,749.497192 592.252319,738.993042 
	C592.726318,732.660828 594.571655,726.601807 596.069397,720.516113 
	C597.761658,713.640381 597.139954,710.532898 590.453674,708.587219 
	C582.832642,706.369507 577.409241,700.776794 571.176025,696.698425 
	C560.538879,689.738831 550.684082,681.526306 539.541870,675.248108 
	C533.183289,671.665222 526.407776,668.760193 520.309753,664.796509 
	C515.423523,661.620422 509.984467,659.651733 505.064331,656.620117 
	C503.381866,655.583435 501.201050,655.976074 499.325348,657.072083 
	C493.639954,660.394043 487.761993,663.415527 482.254700,667.007446 
	C468.656982,675.875854 454.576782,683.843933 439.896088,690.764893 
	C433.740753,693.666748 431.125000,697.714966 432.875519,702.709656 
	C437.651764,716.337341 439.119354,730.758850 443.626373,744.532471 
	C447.456604,756.237732 450.822968,768.202332 454.159943,780.119080 
	C454.673401,781.952759 455.606628,783.764893 454.536957,785.762085 
	C450.311157,783.491211 450.794678,778.273987 447.592560,775.445129 
	C447.857697,781.409058 448.529663,787.144043 450.413391,792.663330 
	C456.323547,809.979797 463.881531,826.518311 473.592834,842.059875 
	C476.076050,846.033936 478.661072,849.892517 482.208801,852.983398 
	C486.693604,856.890747 491.232635,860.775513 495.798248,864.539856 
	C500.974854,868.807861 507.263672,871.475586 514.578857,870.933228 
	C523.622742,870.262756 530.175415,865.032043 536.495911,859.574097 
	C540.056580,856.499390 540.185608,851.232910 537.220215,847.776306 
	C533.160217,843.043945 531.037109,837.855774 530.835022,831.613708 
	C530.381592,817.608948 535.713623,805.691650 544.287720,795.212708 
	C551.274231,786.673950 561.687378,788.351257 571.136780,788.019348 
	C573.882141,787.922852 575.620056,787.320801 577.686340,785.576233 
	C582.557556,781.463684 582.615112,775.288940 585.312988,769.491882 
M605.470398,452.421082 
	C605.183105,445.275116 602.858948,442.980621 595.388977,442.653290 
	C593.306641,442.562042 592.185059,441.244720 590.874756,439.918243 
	C585.741821,434.721558 581.218567,428.862244 574.921204,424.908325 
	C564.368286,418.282654 554.918396,410.154022 545.215393,402.436584 
	C536.021118,395.123810 527.092712,387.401855 518.235229,379.691589 
	C511.303955,373.658112 507.048828,373.541656 499.345154,378.918030 
	C487.735382,387.020477 475.696930,394.712402 463.463837,401.940155 
	C452.560089,408.382477 442.884003,416.770142 431.173035,421.930359 
	C428.192505,423.243652 425.716797,425.350159 424.648834,429.011139 
	C423.791992,431.948395 421.827148,434.426880 418.779907,436.088959 
	C415.229218,438.025665 412.185944,440.913544 412.317993,445.451477 
	C412.862640,464.170654 409.348969,482.849182 411.512146,501.547424 
	C412.406464,509.277863 411.404114,517.165344 413.744324,524.780518 
	C414.485779,527.193176 414.978271,530.140686 411.179993,530.791687 
	C415.228363,537.093018 418.855072,543.142090 422.953979,548.909668 
	C426.990845,554.590027 431.820068,559.511597 436.508209,564.568481 
	C442.151611,570.655701 449.691406,574.776062 455.278931,580.701050 
	C462.730286,588.602417 471.886108,594.489441 479.081787,602.488892 
	C482.290161,606.055725 485.903961,608.446472 490.041779,610.690430 
	C494.387299,613.047058 498.372375,616.423218 501.971802,619.690918 
	C505.104187,622.534668 507.018036,623.066284 510.465210,621.331726 
	C526.220764,613.403503 540.341980,602.837708 555.073792,593.310913 
	C568.387878,584.700989 580.773132,574.572449 592.361633,563.673950 
	C598.866943,557.555969 607.298279,554.025818 613.151367,546.990723 
	C615.662842,543.972168 617.320251,541.148743 617.423584,537.369934 
	C617.763489,524.943420 618.236206,512.521301 617.699158,500.083038 
	C617.210693,488.771576 618.183716,477.411713 616.630737,466.134644 
	C616.474976,465.003784 615.949280,463.928986 615.682312,462.807434 
	C614.419373,457.501190 609.046265,456.258942 605.470398,452.421082 
M611.378906,631.262878 
	C612.027283,628.202087 613.245605,625.353577 613.696045,622.151978 
	C614.696167,615.044373 612.256836,608.029907 613.869202,600.921265 
	C614.778442,596.912903 614.472534,592.643066 614.953430,588.518982 
	C615.345459,585.156616 613.382996,584.159851 611.199158,585.623535 
	C604.906860,589.840881 596.907898,591.537415 592.020142,597.628418 
	C589.468201,600.808594 585.328674,602.664307 582.899658,602.564636 
	C576.536560,602.303711 572.807007,606.119507 568.475769,609.097656 
	C556.811035,617.118408 545.798767,626.007507 534.799988,634.912415 
	C530.572998,638.334656 530.754272,640.345459 535.401062,643.361145 
	C542.202148,647.774963 549.335571,651.721558 555.980469,656.270325 
	C566.531860,663.493347 577.265625,670.347717 588.756531,675.841309 
	C593.831970,678.267639 597.674805,682.758057 603.500671,684.285706 
	C605.781311,681.100037 607.098206,677.655762 607.532715,674.053345 
	C609.215698,660.100830 610.537842,646.109436 611.378906,631.262878 
M576.658997,336.238617 
	C574.950623,337.251587 573.350891,338.566376 571.515625,339.226715 
	C562.300598,342.542236 554.140503,347.898621 545.553162,352.422455 
	C541.741028,354.430695 541.630615,357.068207 544.669250,359.934326 
	C547.000977,362.133606 548.473083,364.803802 549.567566,367.496399 
	C548.525879,368.904724 546.914795,367.568787 546.182861,369.048492 
	C547.339661,372.406830 550.294739,374.539368 552.328308,377.328888 
	C553.108215,378.398712 554.769897,379.412872 555.813416,378.365295 
	C559.638306,374.525543 560.946899,376.984375 563.040710,380.313385 
	C564.495239,382.626068 566.484985,384.685944 567.943970,387.123779 
	C569.007141,388.900269 571.292480,390.382446 573.021606,389.482819 
	C578.033813,386.875214 580.358032,390.553802 583.076111,393.210388 
	C585.677002,395.752441 587.488586,399.794678 590.527161,401.054169 
	C597.127563,403.789917 601.557007,409.136932 607.231506,412.899323 
	C609.038757,414.097595 610.814514,415.816223 613.084900,414.771942 
	C615.258606,413.772217 614.967651,411.359314 614.873230,409.434052 
	C614.573486,403.323303 614.058472,397.223450 613.658997,391.117249 
	C612.876892,379.161041 612.284241,367.189514 611.291626,355.251068 
	C610.563477,346.493408 610.049744,337.716736 608.249817,329.041534 
	C607.142090,323.703003 605.088135,321.587891 600.385071,324.287598 
	C592.881226,328.595062 584.439514,330.941223 576.658997,336.238617 
M458.583527,376.233368 
	C468.858368,369.620728 480.389404,365.143585 490.226685,357.987335 
	C489.947998,356.075775 488.966400,354.848907 487.858124,353.930817 
	C479.440094,346.957123 470.477081,340.547638 461.380035,334.683350 
	C452.830994,329.172363 445.036255,322.781036 436.787201,316.960266 
	C430.910034,312.813171 428.072845,313.305359 426.139618,320.418945 
	C422.972046,332.074677 422.073914,344.143005 420.413483,356.052216 
	C419.000458,366.186920 417.484192,376.236816 414.618622,386.083191 
	C412.718414,392.612427 413.355865,399.080811 415.770508,405.372284 
	C421.638763,404.215759 424.640594,402.234467 427.162476,397.642944 
	C428.255615,395.652740 429.482117,393.976013 431.702301,393.308838 
	C437.054077,391.700500 440.943604,387.861420 445.443573,384.904724 
	C449.610077,382.167084 452.422028,377.269928 458.583527,376.233368 
M424.449890,590.141235 
	C422.850647,588.731445 421.296997,587.239258 418.803192,586.971924 
	C418.395935,587.702148 417.599976,588.449463 417.677704,589.090942 
	C419.069336,600.575256 418.614349,612.255554 421.261414,623.602234 
	C423.210907,631.958862 423.252106,640.498901 423.889740,648.988281 
	C424.309509,654.577393 424.901245,660.165039 425.717621,665.708862 
	C426.252625,669.342102 428.326385,670.094116 431.829285,668.597534 
	C435.128601,667.187866 437.612396,664.718567 440.617279,662.960876 
	C449.639374,657.683411 459.027283,653.051819 467.415985,646.667175 
	C474.538727,641.245911 474.764008,640.049622 468.960968,633.595093 
	C464.070160,628.155212 458.277710,623.655396 453.326050,618.385498 
	C444.244202,608.719910 433.726410,600.568848 424.449890,590.141235 
M389.666901,491.365723 
	C390.401703,481.088287 388.607422,470.816803 389.833038,460.498779 
	C390.341187,456.221130 387.334412,454.918823 383.670441,458.042877 
	C375.286804,465.191071 365.328125,470.446838 358.446960,479.434875 
	C355.222900,483.646088 355.221222,486.198639 359.656311,489.328552 
	C360.597076,489.992432 361.655518,490.530396 362.475250,491.318329 
	C369.745331,498.306702 376.984894,505.326965 384.201355,512.370728 
	C385.153046,513.299561 385.944214,514.684326 387.468811,514.101196 
	C389.221191,513.431091 388.971832,511.683014 388.920502,510.210541 
	C388.711639,504.217346 388.991394,498.248047 389.666901,491.365723 
M638.804749,515.391968 
	C639.904480,518.224304 641.573181,519.021301 644.076660,516.874451 
	C645.461121,515.687256 647.246216,514.993225 648.599548,513.938538 
	C652.484253,510.911133 657.232117,508.854889 659.911621,504.373260 
	C661.814819,501.190002 662.468994,498.402161 658.934082,495.683624 
	C656.585205,493.877167 654.806702,491.349060 652.587952,489.349030 
	C648.716248,485.858826 644.701904,482.526733 640.582703,478.986908 
	C637.430054,490.420563 638.116272,502.578735 638.804749,515.391968 
M590.951477,171.446289 
	C592.202820,173.907913 593.344543,176.456818 596.116272,178.201614 
	C597.495911,175.562180 596.547729,173.523621 595.609070,171.399750 
	C591.267578,161.576797 587.692749,151.468842 582.472656,141.959824 
	C579.268127,136.122421 576.173950,130.330353 571.885742,125.287140 
	C569.915405,122.969887 567.633484,120.368271 563.660339,121.105476 
	C563.802185,121.997536 563.710144,122.613602 563.975464,122.913445 
	C572.406128,132.441086 581.419800,141.593369 583.606750,154.962112 
	C583.788879,156.075409 584.246704,157.306717 584.971130,158.139984 
	C588.150085,161.796387 589.225586,166.343765 590.951477,171.446289 
M230.242249,238.772324 
	C227.673355,240.658768 225.119827,242.553070 226.354813,246.657547 
	C228.998276,246.452179 231.487488,246.006195 233.472565,244.073242 
	C239.821960,237.890442 247.110916,233.847244 256.226471,233.532303 
	C257.941803,233.473053 260.037750,233.562851 262.325562,231.490936 
	C250.364578,230.276093 239.968765,231.408707 230.242249,238.772324 
M681.165405,523.575378 
	C681.989868,522.982056 682.842285,522.344360 682.270813,521.175537 
	C681.848511,520.311707 680.812866,519.984680 680.181519,520.501465 
	C676.429138,523.572693 672.730835,526.723816 670.155945,531.002686 
	C674.479370,529.725830 677.910339,527.330383 681.165405,523.575378 
M272.838043,753.877014 
	C276.101135,753.917358 279.342865,753.866455 282.372711,751.905151 
	C278.328125,749.127380 272.682129,749.600830 269.030426,752.821472 
	C269.666595,754.212097 270.934265,753.838501 272.838043,753.877014 
M316.326294,744.228088 
	C312.839355,741.772339 312.153290,741.876709 309.323730,745.392822 
	C311.750183,746.594177 313.782959,745.183777 316.326294,744.228088 
M827.285645,254.101562 
	C826.049255,253.081589 824.866577,251.830032 822.853149,253.224075 
	C823.307800,256.372986 825.423340,257.036835 828.597534,257.268341 
	C828.170105,256.046112 827.917603,255.324142 827.285645,254.101562 
M333.429169,739.850769 
	C334.791443,739.542725 336.492096,739.765442 336.826721,737.736633 
	C333.039368,737.446960 332.734741,737.554749 328.939514,740.727722 
	C330.564941,740.406494 331.661926,740.189636 333.429169,739.850769 
M241.302994,753.523010 
	C242.378830,752.630432 242.965408,751.356140 241.200562,751.064575 
	C239.384003,750.764465 236.938477,750.374512 236.124893,753.195740 
	C237.752274,754.271790 239.237289,753.815918 241.302994,753.523010 
z"/>
<path fill="#000000" opacity="1.000000" stroke="none" 
	d="
M456.183411,796.703613 
	C455.195007,793.987793 453.364105,791.777771 454.872009,788.135315 
	C458.971405,792.567139 459.048859,797.710022 460.387970,802.403992 
	C457.751221,801.401062 457.377899,799.002380 456.183411,796.703613 
z"/>
<path fill="#000000" opacity="1.000000" stroke="none" 
	d="
M585.165527,455.864563 
	C588.971619,458.467133 590.766357,461.735748 591.407776,465.993439 
	C592.123230,470.742737 593.547302,475.380646 594.504211,480.099213 
	C596.136108,488.146057 594.387268,495.598907 591.808838,503.384491 
	C588.708557,512.745605 584.649414,521.677002 580.156921,530.232117 
	C575.081665,539.897156 565.951233,546.234924 556.114136,550.943054 
	C551.808044,553.004028 547.444641,554.761597 543.277405,557.258240 
	C535.131958,562.138367 525.893738,564.837402 516.519836,565.711792 
	C510.682953,566.256104 504.613068,564.189819 499.109924,561.972595 
	C494.397644,560.073975 489.698242,558.770447 484.714722,558.357849 
	C479.577545,557.932556 475.002716,556.372253 471.262054,552.660583 
	C468.056671,549.479980 464.444824,546.771423 460.578461,544.469116 
	C453.933472,540.512207 450.834442,534.572327 449.587097,527.101746 
	C448.574951,521.039673 446.616028,515.144043 443.181580,509.918518 
	C440.625000,506.028687 439.445374,501.951202 439.775238,497.200928 
	C440.072937,492.913574 439.685089,488.558777 439.347198,484.253540 
	C439.085327,480.917236 440.036774,478.017517 441.743042,475.285065 
	C445.294250,469.598206 447.528351,463.391998 449.747559,457.086731 
	C451.184875,453.002991 453.924561,449.187042 456.763733,445.828583 
	C462.000854,439.633484 467.296021,433.352753 473.387115,428.049622 
	C480.439056,421.909973 489.718414,420.263123 498.556122,417.856415 
	C508.254700,415.215240 518.158813,416.278870 527.813538,416.663239 
	C537.276611,417.039978 545.859924,421.212006 554.126282,426.922852 
	C565.930359,435.077728 575.548340,445.093323 585.165527,455.864563 
z"/>
</svg>