<svg version="1.1" id="Layer_1" xmlns="http://www.w3.org/2000/svg" xmlns:xlink="http://www.w3.org/1999/xlink" x="0px" y="0px"
	 width="100%" viewBox="0 0 1024 1024" enable-background="new 0 0 1024 1024" xml:space="preserve">
<path fill="#000000" opacity="1.000000" stroke="none" 
	d="
M637.665039,879.662476 
	C638.946472,871.151917 638.877502,863.003479 638.884277,854.857788 
	C638.888367,849.906555 636.291321,847.075378 631.494324,847.558350 
	C620.871033,848.627808 610.289490,847.025330 599.644897,847.711670 
	C589.076904,848.393066 578.411499,847.404968 567.789978,847.447693 
	C543.182312,847.546753 518.575500,847.952637 493.967987,847.987915 
	C477.695587,848.011230 461.420258,847.331177 445.150513,847.469849 
	C427.363983,847.621399 409.587708,848.125427 391.797974,847.390747 
	C385.784973,847.142456 384.767975,848.559021 385.294128,854.496521 
	C386.435547,867.377380 388.682068,880.102966 391.718781,892.640747 
	C393.138916,898.504089 395.959534,904.026917 398.126343,909.711365 
	C399.162537,912.429810 400.957428,915.019592 399.929962,918.171936 
	C395.020782,918.156616 390.314362,919.456543 386.615601,914.574646 
	C385.170746,912.667664 381.703796,910.922302 378.595184,913.324219 
	C376.554565,910.307312 377.781525,905.063049 373.312225,904.764771 
	C369.394562,904.503296 367.745483,908.348267 366.024567,911.811096 
	C368.472412,913.372681 372.493134,914.309387 369.418884,918.589172 
	C367.672424,921.020447 366.167969,921.299744 364.576965,918.556335 
	C364.327057,918.125427 364.162933,917.645203 363.919525,917.209961 
	C362.863586,915.321777 362.560059,911.873047 359.358673,913.318298 
	C355.778046,914.934814 358.335632,917.415405 359.334625,919.557129 
	C362.299896,925.914307 367.543304,930.681641 371.137878,936.777344 
	C365.398865,936.274353 363.684082,930.013977 358.565430,928.146240 
	C357.753876,932.717163 363.963776,933.910034 363.277039,938.529846 
	C358.963715,938.039856 357.381989,931.773926 351.801117,933.925537 
	C353.173248,927.799866 351.753723,924.254150 345.235962,924.749695 
	C344.562439,924.800842 343.609741,923.636902 343.088257,922.839478 
	C339.179169,916.862122 335.470032,910.823914 333.440643,903.829834 
	C331.869385,898.414490 327.981232,894.064819 325.849060,888.788330 
	C320.659851,875.946594 318.685364,862.724060 319.510651,848.971741 
	C319.678558,846.174133 319.059204,843.317322 319.333221,840.540100 
	C320.553864,828.167603 322.236938,815.842529 325.580292,803.846619 
	C327.128998,798.289795 329.116486,792.801025 331.478668,787.538940 
	C334.384094,781.066772 337.419434,774.707031 339.953125,768.030457 
	C343.514618,758.645325 350.445679,751.040283 356.444733,743.054443 
	C365.966034,730.379761 378.068085,720.157227 389.221558,709.010132 
	C396.715851,701.520081 406.601044,698.177124 414.174683,691.182434 
	C421.465881,684.448547 429.690125,678.901062 438.394562,674.046753 
	C441.884552,672.100464 441.657440,669.487488 438.267090,667.099854 
	C422.513214,656.005249 406.399597,645.408142 391.408905,633.259521 
	C389.474976,631.692261 387.319550,630.182251 385.944305,628.180237 
	C380.997040,620.978333 373.660034,616.091064 368.259155,609.301086 
	C361.648590,600.990173 354.083527,593.221741 349.104340,583.915771 
	C340.605652,568.031982 331.435913,552.221863 328.164612,534.150574 
	C324.554565,514.207825 323.699951,494.132660 329.770050,474.505829 
	C332.596375,465.367279 338.074432,456.974182 340.322388,447.748932 
	C343.623383,434.202026 353.303223,425.142181 360.742340,414.480865 
	C367.811768,404.349274 377.281982,396.323425 385.405304,387.110413 
	C401.138031,369.267334 422.087860,358.303070 441.071655,344.746094 
	C442.155121,343.972382 443.339691,343.336517 444.398712,342.533020 
	C448.158752,339.680481 448.377472,337.120819 444.333893,334.794708 
	C432.337891,327.893799 421.360260,319.518524 410.056213,311.625793 
	C399.717102,304.406799 389.930023,296.580109 380.487549,288.070465 
	C366.743439,275.684143 357.643036,259.984314 346.581207,245.724915 
	C341.492767,239.165634 337.801208,231.315536 335.481995,223.004410 
	C333.341431,215.333481 328.931183,208.516357 326.724701,200.778656 
	C322.979736,187.645813 319.824188,174.624115 320.641083,160.679214 
	C321.173645,151.587189 320.907959,142.390472 322.347473,133.393082 
	C324.222382,121.674255 326.819794,110.252998 334.670380,100.468422 
	C338.820953,95.295341 340.427734,88.277664 343.310455,82.164658 
	C346.667542,75.045662 354.059143,74.070442 358.846893,69.360176 
	C360.423157,67.809402 363.238708,70.534958 365.306335,71.609558 
	C365.363831,76.218483 358.571442,77.869194 361.009003,83.793091 
	C366.144287,81.076691 371.120697,78.444305 376.097107,75.811920 
	C374.870514,82.183823 366.163177,81.372704 365.571167,88.037498 
	C368.488861,89.468704 368.697388,85.673752 371.119171,85.847176 
	C371.443939,88.704964 367.863708,90.928253 369.533112,93.670700 
	C371.142548,96.314590 374.378876,95.099052 377.244843,95.930000 
	C376.726562,106.636940 367.652954,110.209167 360.369507,115.781776 
	C363.117920,117.312485 364.784821,116.920616 366.523926,115.648491 
	C371.458893,112.038635 376.457550,108.760132 379.297638,102.780281 
	C380.957886,99.284500 384.998383,97.357330 388.686310,95.691864 
	C391.626282,94.364182 391.745361,98.359367 393.487671,98.055489 
	C395.455841,106.733284 389.742432,112.886604 386.811249,119.602654 
	C382.992432,128.352402 384.021240,137.009415 384.792938,145.569229 
	C385.783386,156.555542 386.499054,156.229568 397.748505,156.036377 
	C410.381470,155.819443 423.039795,156.428436 435.655029,156.307205 
	C449.789856,156.171387 463.932281,156.014557 478.071747,155.950684 
	C505.161743,155.828308 532.264771,155.250092 559.336365,155.919235 
	C571.233704,156.213348 583.149353,155.565338 595.088562,156.652451 
	C602.240662,157.303680 609.656311,155.961792 616.975220,156.185822 
	C621.293945,156.318008 625.612915,156.618301 629.929993,156.587860 
	C635.521179,156.548462 637.313049,154.819061 636.636230,149.314697 
	C635.320068,138.609406 633.590881,127.938042 632.298645,117.246437 
	C631.307983,109.050484 627.104370,101.897179 626.099182,93.806923 
	C628.182556,92.387047 630.641418,92.548218 632.611511,91.102226 
	C634.541260,89.685791 636.028442,91.646904 637.034851,93.122246 
	C643.023193,101.901031 646.268738,111.541092 647.723206,122.167923 
	C649.273865,133.496887 649.418091,144.911591 650.879272,156.186081 
	C652.020874,164.994492 651.882202,174.101471 650.269897,182.210953 
	C646.576172,200.789154 640.289673,218.828247 626.197327,232.848495 
	C618.762756,240.244919 613.012512,249.080307 606.278198,257.074463 
	C597.910706,267.007385 587.963501,275.254395 577.557800,283.001190 
	C566.376831,291.325165 555.314331,299.911377 543.281799,306.869263 
	C537.030518,310.484070 530.368164,313.622009 523.976135,317.132477 
	C512.513184,323.427948 500.414337,328.527466 489.531342,335.935913 
	C485.045929,338.989288 479.116608,338.883362 474.527863,342.332214 
	C465.500763,349.116943 455.408386,354.308197 445.961548,360.440887 
	C440.543304,363.958313 436.474884,369.268524 430.628021,372.795319 
	C422.040131,377.975433 413.679993,383.891602 406.959167,391.629761 
	C406.442780,392.224335 405.991974,392.875916 405.696259,393.883698 
	C412.249817,391.262451 418.811981,389.199249 425.892395,389.474335 
	C426.792664,389.509308 427.739624,388.811646 428.634674,388.389160 
	C429.716095,387.878754 430.913361,387.215851 430.454254,385.815460 
	C429.924469,384.199371 428.535248,384.316376 427.116638,384.650818 
	C425.458466,385.041626 424.244751,386.927704 421.559784,386.225037 
	C424.463104,382.504120 427.923035,380.345337 431.684662,378.977997 
	C434.233124,378.051636 436.004303,376.996674 437.058167,374.386322 
	C440.161774,366.699036 447.742249,366.736969 454.138794,365.200012 
	C459.400055,363.935822 465.505585,364.729248 466.340302,356.961243 
	C466.487854,355.588074 468.468719,355.593475 469.727783,355.251923 
	C472.282440,354.558960 475.057953,354.340240 474.826935,350.449036 
	C474.737427,348.940643 476.604340,348.643890 477.874847,348.334778 
	C481.261566,347.510773 484.671143,346.781006 488.070007,346.006561 
	C490.828491,345.378052 493.628906,345.133148 493.634003,341.018768 
	C493.636932,338.626343 496.214752,338.854523 497.993408,338.797241 
	C501.399475,338.687531 504.652405,338.483521 506.664062,335.040527 
	C507.386780,333.803619 508.969513,333.919006 510.267395,333.626862 
	C513.064697,332.997192 515.223206,331.455750 517.490173,329.579468 
	C523.173767,324.875244 529.217957,320.580505 537.081543,320.033295 
	C541.050171,319.757141 544.884033,319.157166 547.446838,315.161652 
	C549.131348,312.535492 553.047119,313.498291 555.513977,311.806824 
	C554.563110,307.177979 556.601868,304.788727 561.270630,305.078674 
	C565.602722,305.347717 569.862671,305.493347 572.864014,302.373230 
	C573.251160,299.663055 570.374451,299.542419 570.615356,297.200256 
	C574.524292,295.749664 579.578125,300.346161 583.128723,295.706329 
	C581.911194,292.926727 578.792114,295.034607 577.339111,292.924530 
	C577.420105,292.567322 577.491638,291.725433 577.630676,291.714142 
	C584.399902,291.163940 586.029358,284.385651 590.528381,281.098389 
	C595.472168,277.486237 600.267700,273.671814 605.167725,269.998840 
	C607.503540,268.248016 609.534973,266.358459 609.659851,263.179657 
	C609.701660,262.114777 610.057434,260.922577 611.026733,260.694092 
	C615.642029,259.606262 617.757629,253.833649 623.434204,254.491730 
	C626.439758,254.840149 626.046143,251.755936 625.822632,250.015182 
	C625.339722,246.253555 626.976501,244.420914 630.112183,242.580994 
	C635.977417,239.139374 639.816650,234.035217 639.149780,226.764160 
	C638.940063,224.477432 640.352051,223.922424 641.699036,223.021133 
	C645.712769,220.335464 649.771057,217.712662 653.711853,214.923981 
	C655.041748,213.982956 656.275269,212.759109 657.199280,211.420517 
	C659.405090,208.225113 661.132202,204.943085 654.716919,203.533966 
	C658.726990,197.789368 665.959045,195.452515 667.944092,188.622986 
	C665.364563,187.371017 664.099243,190.424866 661.615906,189.473801 
	C661.518982,186.515839 664.084595,184.873169 665.885925,183.544693 
	C670.064148,180.463272 669.695618,177.042435 667.071655,173.748337 
	C665.275818,171.493851 664.803162,169.865234 666.365234,167.441650 
	C667.104309,166.294815 666.782410,164.871613 665.861938,163.950531 
	C663.696228,162.972687 662.525269,165.778473 659.671631,164.591431 
	C664.427795,160.467331 660.790466,154.165497 664.686951,149.439606 
	C666.904480,146.749969 663.833740,143.281754 663.463928,140.116364 
	C663.312439,138.820450 661.276978,138.999039 660.270508,140.317566 
	C659.581116,141.220627 659.199829,142.463028 657.564514,142.298615 
	C655.645081,141.011383 656.792297,139.441391 657.419861,138.005035 
	C660.378357,131.233566 660.221069,125.143250 654.400146,119.683510 
	C652.697754,118.086769 651.520813,115.538643 652.586914,112.803185 
	C654.753296,107.245049 654.249695,101.737770 652.262451,96.258217 
	C652.039307,95.643082 651.507629,94.803757 651.728638,94.414146 
	C654.968445,88.701836 650.828064,86.230896 647.028137,83.720894 
	C644.709473,82.189301 643.069397,80.221489 641.865173,77.342926 
	C643.633301,76.042549 646.303467,75.067772 645.039673,71.346100 
	C651.088135,75.609306 657.825012,77.143005 662.476013,82.559158 
	C663.610657,79.337265 663.610657,79.337265 657.064331,69.469269 
	C660.679382,64.934669 666.012085,64.262573 670.303711,68.555237 
	C674.107605,72.360085 678.079468,76.186363 680.440979,81.223541 
	C681.741699,83.997887 684.688599,85.319939 686.255371,87.985756 
	C690.367859,94.982841 693.348022,102.558556 696.995911,109.764862 
	C700.086548,115.870567 699.729248,123.645576 701.417114,130.555023 
	C704.009155,141.166412 704.758850,152.057755 704.111450,162.720688 
	C702.888489,182.863419 700.685059,203.085800 691.349670,221.489273 
	C686.402893,231.241211 681.041016,240.880600 674.839111,249.861252 
	C671.108337,255.263443 666.018066,259.992615 663.204712,265.888855 
	C661.077271,270.347626 658.947083,274.461853 655.272217,277.677155 
	C635.544922,294.937256 616.111023,312.563446 593.616821,326.334473 
	C589.225769,329.022736 585.189941,332.286469 580.941101,335.213409 
	C577.889221,337.315796 577.851868,338.933502 581.049927,341.167664 
	C586.648010,345.078613 593.228882,347.626404 598.334778,351.938354 
	C605.728577,358.182556 614.584351,361.938477 622.246643,367.846741 
	C632.275330,375.579712 641.785278,383.752625 650.564026,392.707581 
	C660.149597,402.485504 669.984192,412.205719 675.685242,425.148804 
	C677.945251,430.279694 681.042664,435.072235 684.043701,439.839508 
	C689.506348,448.517273 691.933533,458.159149 694.601990,467.951660 
	C698.640076,482.770416 697.959656,497.855133 699.137634,512.825134 
	C699.801941,521.266724 697.740784,529.596252 696.411255,537.953369 
	C694.755798,548.359619 687.752991,556.271973 684.498657,565.792542 
	C681.597290,574.280579 676.042419,581.403320 673.688232,590.283264 
	C672.246826,595.720276 668.628174,601.140991 663.186279,604.964294 
	C659.109253,607.828735 656.181519,612.452881 653.084534,616.552307 
	C650.224976,620.337524 646.851562,623.164734 642.793762,625.711365 
	C639.112549,628.021606 636.520691,632.045288 633.384216,635.250549 
	C625.890930,642.908203 616.515381,648.023132 607.921448,654.208618 
	C600.778015,659.350159 593.924011,664.862610 586.058105,668.920593 
	C585.171692,669.377930 584.617676,670.294983 584.547546,671.382690 
	C594.138672,680.394775 605.553467,686.834473 616.528259,693.857361 
	C630.015259,702.487976 642.425598,712.531555 653.394104,724.029236 
	C664.226013,735.383789 674.534241,747.458008 681.415588,761.809937 
	C685.707703,770.761536 691.128906,779.287415 693.905029,788.844177 
	C699.111389,806.767090 704.382996,824.626648 704.613831,843.685120 
	C704.750122,854.937561 704.096802,865.773621 700.846680,876.535034 
	C699.669495,880.432678 701.588318,884.737671 699.919006,888.751953 
	C694.662170,901.393372 689.059937,913.818970 679.277222,923.791565 
	C678.578979,924.503296 677.940857,925.275940 677.298035,926.039856 
	C670.918213,933.621216 670.919678,933.622437 659.637390,932.908508 
	C661.893982,926.583679 667.526306,922.300171 669.569336,915.207092 
	C661.026062,916.085510 654.539673,920.320435 647.744080,924.295288 
	C651.554626,916.347473 662.045166,914.046326 663.472839,904.702637 
	C658.425598,901.456726 654.636597,908.906738 649.204712,905.700073 
	C652.045715,903.374451 653.647461,900.923279 653.039978,897.266174 
	C652.703796,895.242249 654.595093,893.399109 656.255127,892.499084 
	C662.688354,889.011536 666.789795,884.109863 666.719727,876.542358 
	C659.386658,872.172729 670.531494,867.629944 666.917542,863.204956 
	C665.896179,861.710449 664.145020,863.876221 662.818054,862.401855 
	C662.794312,857.286438 666.100159,853.115601 667.908386,849.139221 
	C666.668762,846.901428 664.827637,848.067871 664.076538,846.907471 
	C660.746399,840.839417 667.966431,835.598877 665.760498,829.427246 
	C661.147461,829.453796 661.656494,835.290710 657.526611,835.661865 
	C656.918396,832.707153 659.086853,830.915833 660.030029,828.774902 
	C662.767761,822.560669 662.289307,821.556885 655.802856,821.104675 
	C654.853943,821.038513 654.072021,819.912659 652.654114,820.925598 
	C651.758972,824.540039 651.398010,828.445007 652.870056,832.300781 
	C655.726135,839.781555 656.515381,847.381653 654.544189,855.201843 
	C654.422791,855.683594 654.280334,856.195068 654.321716,856.677734 
	C655.376465,868.965698 652.941223,880.756226 649.342651,892.399597 
	C646.320496,902.178040 640.976562,910.392944 633.043396,917.634216 
	C631.379395,914.447632 628.139832,914.825684 625.208191,913.138306 
	C631.770081,902.903198 636.057251,891.976990 637.665039,879.662476 
M370.970673,185.773087 
	C370.817291,188.655518 368.802338,191.790680 372.425903,194.865723 
	C374.844788,190.755142 374.004578,187.745285 370.985291,184.181351 
	C370.713135,182.250229 371.877350,179.860596 368.752228,178.115463 
	C369.006165,181.698120 365.612335,183.037491 364.979156,186.147568 
	C367.344391,186.207642 368.960693,184.391388 370.970673,185.773087 
M366.578766,226.692520 
	C375.175140,219.802429 379.724640,208.972412 376.216583,203.519882 
	C375.792633,203.693695 375.277252,203.787399 374.929230,204.080139 
	C374.567627,204.384323 374.078125,204.932236 374.140717,205.285782 
	C375.140167,210.933456 370.241943,214.078247 368.541962,218.570892 
	C367.496887,221.332718 365.462830,223.773743 365.444275,227.328735 
	C363.509338,228.088959 363.022064,230.883469 360.571014,231.078506 
	C359.070190,228.312790 361.369171,224.889267 358.581360,222.580460 
	C355.753052,223.159805 353.852234,224.666412 354.415527,227.644455 
	C355.052795,231.013763 356.795074,234.171722 360.464020,234.653000 
	C363.488312,235.049713 364.331177,232.226257 364.961273,229.736343 
	C365.201172,228.788559 365.632141,227.889145 366.578766,226.692520 
M573.617615,491.745941 
	C588.866943,491.767151 604.116394,491.810486 619.365601,491.785858 
	C621.680847,491.782104 624.061279,491.744659 626.295105,491.223602 
	C629.703796,490.428528 630.987732,488.543427 630.107605,484.604950 
	C627.472778,472.814667 622.552673,462.034241 616.822021,451.520569 
	C612.624878,443.820282 607.535950,437.973083 597.524170,440.686584 
	C596.774780,440.889679 595.880066,440.478058 595.056519,440.498108 
	C579.945007,440.866089 564.840515,440.761322 549.722839,440.528442 
	C526.039062,440.163605 502.349731,440.902618 478.654724,440.397369 
	C460.417358,440.008514 442.164154,440.292053 423.918823,440.407440 
	C420.424133,440.429535 416.598297,440.728729 414.770447,444.386292 
	C407.722107,458.490143 398.968781,471.760315 393.878418,486.822937 
	C392.340210,491.374542 393.564240,492.959595 398.406586,492.805359 
	C405.553650,492.577698 412.699341,492.099274 419.845734,492.097717 
	C446.590851,492.091888 473.334747,491.956329 500.082672,492.232452 
	C511.681580,492.352173 523.323730,491.999268 534.950317,492.035980 
	C547.574768,492.075897 560.199707,491.942078 573.617615,491.745941 
M403.432831,552.966858 
	C406.842529,557.112000 409.326202,562.374939 416.041321,562.165405 
	C425.794556,561.861145 435.523926,561.295105 445.315247,561.495911 
	C464.916931,561.897949 484.533478,561.556824 504.143890,561.558899 
	C524.576172,561.561096 545.021179,562.051941 565.436218,561.471130 
	C578.401855,561.102234 591.482788,560.721985 604.261902,561.702515 
	C615.284851,562.548279 618.627563,557.117310 621.571350,549.112671 
	C624.713684,540.568115 627.931396,532.045776 630.808350,523.411194 
	C632.464844,518.439636 631.429260,514.085083 624.306763,514.762207 
	C618.215210,515.341187 612.034058,515.004639 605.892395,515.024536 
	C574.130005,515.127441 542.367615,515.282654 510.605194,515.289551 
	C474.162811,515.297485 437.720428,515.135925 401.278046,515.126404 
	C393.467957,515.124390 392.067047,516.487732 394.026794,523.938965 
	C396.550079,533.532898 399.986938,542.886536 403.432831,552.966858 
M634.525879,815.817505 
	C631.912781,806.082886 626.825134,797.511414 621.976013,788.808044 
	C619.908020,785.096313 616.978516,784.015808 612.918762,784.048828 
	C599.149475,784.160828 585.377747,784.059570 571.607727,783.947510 
	C556.847473,783.827393 542.088196,783.465271 527.328369,783.456299 
	C505.405579,783.442932 483.482300,783.601440 461.559937,783.773804 
	C444.794220,783.905640 428.023132,782.457153 411.257812,784.032471 
	C408.349548,784.305725 406.244720,785.330322 404.655457,787.790039 
	C398.193024,797.791626 394.429291,809.021790 390.186066,819.997498 
	C388.200500,825.133606 389.257507,825.769043 394.944763,825.837280 
	C405.755188,825.967102 416.527222,824.111755 427.340515,825.196289 
	C432.155884,825.679260 436.946198,825.905457 441.782410,825.593384 
	C460.708679,824.372070 479.640045,825.600281 498.569366,825.602417 
	C506.700439,825.603333 514.864990,826.652588 522.955505,826.192200 
	C539.525940,825.249207 556.119324,825.423157 572.671021,825.415527 
	C590.916992,825.407043 609.182007,825.743164 627.439514,825.756653 
	C634.812744,825.762085 636.086243,823.982727 634.525879,815.817505 
M430.422882,178.431290 
	C419.795349,178.393066 409.167603,178.381119 398.540314,178.306839 
	C392.083801,178.261688 391.508423,179.275818 392.698822,185.692337 
	C394.437256,195.062851 400.950928,202.271912 403.695007,211.124313 
	C405.843689,218.055908 410.716431,219.366714 417.220703,218.874634 
	C435.255219,217.510147 453.334839,218.211777 471.397064,218.156082 
	C486.003052,218.111053 500.638367,217.523819 515.206787,218.253357 
	C529.015137,218.944855 542.803650,218.736328 556.568665,218.446732 
	C572.616882,218.109100 588.659058,218.579086 604.702332,218.158005 
	C611.295410,217.984940 617.240967,219.039383 620.640381,210.454147 
	C623.956116,202.080521 628.831055,194.210358 632.090881,185.707764 
	C634.198364,180.210632 632.632935,178.480453 626.814453,178.298325 
	C610.837830,177.798218 594.862610,178.982346 578.922974,178.706802 
	C558.851685,178.359879 538.781372,178.647354 518.715942,178.479263 
	C505.481537,178.368408 492.235046,177.778641 478.957703,178.343445 
	C463.064392,179.019501 447.117706,178.442352 430.422882,178.431290 
M463.358063,272.145020 
	C469.920837,278.845367 477.692139,284.034454 485.676422,288.718567 
	C489.769501,291.119873 494.028809,293.461151 498.266327,295.530609 
	C505.404724,299.016724 512.026550,304.160675 521.613525,298.857117 
	C535.415039,291.222046 549.183411,283.756744 561.497437,273.831696 
	C563.566101,272.164398 565.601074,270.360870 567.916382,269.110626 
	C577.967834,263.682770 585.651855,255.351288 594.134521,248.005707 
	C595.504578,246.819351 596.641724,245.105484 595.927734,243.123535 
	C595.144897,240.950165 592.998108,241.254852 591.228333,241.085373 
	C572.657104,239.306946 554.042664,240.847015 535.449524,240.419449 
	C522.025574,240.110733 508.583130,240.680054 495.154877,240.472824 
	C474.053864,240.147202 452.973114,240.998627 431.881958,241.172958 
	C430.712097,241.182617 429.454010,241.171799 428.824463,242.405487 
	C428.180145,243.668030 428.904388,244.703705 429.759430,245.504990 
	C434.943970,250.363602 440.292419,255.166855 445.898132,259.387177 
	C451.434601,263.555328 457.267731,267.450867 463.358063,272.145020 
M471.849976,761.418640 
	C475.868469,762.189087 479.773071,760.767517 483.762573,760.814819 
	C502.365967,761.035400 520.973328,761.049500 539.572266,761.455994 
	C547.390381,761.626892 555.214478,760.874817 562.958130,761.263794 
	C570.075195,761.621216 577.166016,760.755981 584.276428,761.489441 
	C586.467224,761.715393 589.763977,761.880737 590.650024,758.851440 
	C591.499634,755.946594 590.141174,753.400513 587.895508,751.297180 
	C583.628357,747.300293 578.784119,744.177673 573.858826,741.055115 
	C557.729919,730.829590 541.830139,720.243286 525.732422,709.967773 
	C520.668823,706.735535 515.439392,703.063293 508.911743,706.426331 
	C506.416992,707.711548 504.098602,709.352417 501.567139,710.550903 
	C489.541656,716.243896 477.872162,722.601440 466.827850,729.997192 
	C458.493317,735.578491 449.032074,739.301941 441.842590,746.946106 
	C439.074097,749.889587 434.787537,752.109070 431.546173,755.114746 
	C430.608185,755.984558 429.343445,756.971985 429.855164,758.478088 
	C430.404877,760.096008 431.992828,760.582092 433.505768,760.639404 
	C436.979553,760.770996 440.471680,761.006836 443.914398,761.238281 
	C453.006897,761.849487 462.080994,759.565186 471.849976,761.418640 
M584.187439,596.671387 
	C586.130859,594.867737 588.127930,593.117676 590.000488,591.243164 
	C591.454407,589.787781 594.173035,588.745972 593.296387,586.190796 
	C592.358215,583.455933 589.368958,584.044800 587.189148,583.848511 
	C576.413635,582.878174 565.602905,583.823303 554.824097,583.873901 
	C537.201416,583.956787 519.571350,583.996948 501.945374,584.095581 
	C480.367279,584.216370 458.788208,584.149963 437.209625,584.198486 
	C435.618652,584.202087 433.803284,583.815186 432.578369,586.010376 
	C434.257507,589.827332 437.829315,592.060425 441.155121,594.327148 
	C447.729492,598.808105 455.333252,602.097595 461.064636,607.433594 
	C475.386078,620.767029 493.295166,627.435364 510.289703,635.873962 
	C512.851440,637.145996 515.477539,637.157593 517.878052,635.478516 
	C525.396118,630.219849 534.225647,627.520508 542.035645,622.673035 
	C555.856750,614.094482 570.667969,607.120361 584.187439,596.671387 
M555.141663,398.391357 
	C552.206543,395.320465 548.223633,393.800446 544.735229,391.586487 
	C534.921997,385.358368 525.401550,378.596954 514.707581,373.847626 
	C513.512268,373.316742 512.392883,372.248260 510.990906,372.839081 
	C506.110657,374.895844 500.829346,376.248260 497.026825,380.294952 
	C495.178619,382.261810 493.279358,384.434631 490.627563,384.879791 
	C485.118500,385.804626 481.310425,389.673279 476.712128,392.161957 
	C465.690491,398.127014 456.739594,407.078613 445.963501,413.393433 
	C444.520935,414.238770 443.856598,415.617523 444.384277,417.228088 
	C444.914642,418.846924 446.412994,418.619385 447.755829,418.618011 
	C456.048462,418.609711 464.342194,418.715027 472.633484,418.612610 
	C486.071838,418.446625 499.527130,417.592010 512.941711,418.037811 
	C533.375305,418.716888 553.803284,418.624908 574.234924,418.758179 
	C576.228699,418.771179 578.192200,418.544525 579.833008,417.084900 
	C579.766357,414.307312 577.604004,413.176575 575.835266,411.729095 
	C569.627869,406.649200 562.285583,403.345978 555.141663,398.391357 
M525.255188,649.759399 
	C520.655151,652.777283 515.817078,655.303955 510.562073,657.001770 
	C507.045929,658.137695 502.553375,659.779480 501.890808,662.923035 
	C500.637177,668.871094 497.738678,667.354736 494.391327,665.973572 
	C492.553040,665.215088 491.133850,665.200745 490.229919,667.127991 
	C489.534668,668.610352 488.397522,669.167297 486.910370,669.779785 
	C484.674866,670.700562 482.859009,672.393433 482.758148,675.722412 
	C487.575684,675.423462 490.946930,672.324036 494.969147,671.054016 
	C499.384918,669.659546 504.365692,668.750244 507.844055,666.025757 
	C512.063416,662.720886 516.171509,660.910522 521.403503,660.865173 
	C523.995361,660.842773 526.680298,659.660278 526.978760,656.848206 
	C527.361389,653.242126 529.239502,653.665649 531.434998,654.515564 
	C539.915466,657.798157 545.164490,649.149658 552.656982,648.824219 
	C552.868530,648.815063 553.150574,648.356445 553.245911,648.058289 
	C554.475342,644.213806 557.521729,644.549316 560.603027,644.729309 
	C563.883667,644.920959 566.773132,644.333984 566.550232,640.066406 
	C566.440430,637.964844 567.967346,637.578552 569.350281,637.159607 
	C572.207092,636.294006 574.972595,635.169373 577.998474,634.782043 
	C580.518127,634.459351 583.136658,633.823059 584.411926,631.498596 
	C583.667969,628.812988 580.400391,630.007019 579.863159,627.716614 
	C579.959717,627.460022 579.977356,627.261780 580.085388,627.157043 
	C580.319763,626.929871 580.581055,626.611694 580.864990,626.572144 
	C585.354065,625.945984 591.097595,627.114319 590.657227,619.566772 
	C590.643433,619.330688 591.036011,619.050720 591.270508,618.823547 
	C596.155029,614.092163 602.479797,611.369568 607.211060,606.072327 
	C610.461975,602.432495 617.575928,602.410522 618.133606,595.494995 
	C625.723755,589.899658 629.690552,580.519775 638.489014,576.128601 
	C640.684509,575.032959 642.142090,573.587280 641.189636,570.136597 
	C640.566284,567.878174 642.289673,564.439514 643.910767,562.223572 
	C646.125732,559.195801 649.236816,556.821838 651.976013,554.180176 
	C653.086243,553.109558 654.170166,552.054443 653.140991,550.318481 
	C650.907776,548.761597 648.291443,551.737244 645.576904,549.359924 
	C647.950623,544.499451 653.510132,541.489502 654.475220,535.459900 
	C650.978516,533.027344 651.995117,530.547607 654.931274,528.200256 
	C656.872986,526.647949 658.723755,524.932678 660.834106,523.650574 
	C665.362183,520.899597 665.476013,520.230164 661.111572,516.996765 
	C663.555359,513.078552 666.052917,509.169983 668.437561,505.193665 
	C669.167664,503.976105 670.450745,502.489532 668.979980,501.147797 
	C667.276794,499.594055 665.860596,501.204559 664.660828,502.217163 
	C662.727966,503.848358 660.968079,505.684448 658.654053,507.893219 
	C658.383789,502.049438 665.739624,499.844696 663.724487,494.154236 
	C660.433167,494.257599 659.856018,498.561340 656.469116,498.233185 
	C656.669434,493.891174 653.966553,489.252838 659.265930,486.325958 
	C657.115662,484.703644 655.144409,487.261536 653.484131,485.278900 
	C652.966980,483.317200 655.836914,481.588654 653.878906,478.719177 
	C649.046265,483.785309 646.735474,489.759430 647.566895,496.191345 
	C649.040588,507.591217 648.609070,518.794922 646.390930,529.986694 
	C643.498779,544.579102 637.102844,557.507568 628.331421,569.508362 
	C620.968750,579.581726 612.140808,588.292603 604.003906,597.644531 
	C598.885803,603.526855 594.337830,609.918701 587.666565,614.287415 
	C585.584229,615.651062 584.056702,617.571899 584.215271,620.507751 
	C580.843811,620.118774 578.021118,619.991577 575.225708,621.698181 
	C559.122009,631.529480 543.066528,641.462524 525.255188,649.759399 
M440.977386,707.624207 
	C443.211121,706.777405 445.378815,705.840088 446.888611,703.758606 
	C444.539886,702.266785 442.066040,704.340271 440.006409,702.995850 
	C440.393219,700.955566 441.763916,699.784241 443.131195,699.821228 
	C449.132416,699.983582 453.322327,694.980896 459.084656,694.518311 
	C460.945679,694.368896 462.211578,692.888611 461.637360,690.956421 
	C460.560730,687.333313 462.638733,686.572510 465.424805,685.421570 
	C469.903473,683.571533 474.094452,681.025024 479.224518,678.345825 
	C475.480774,676.469299 473.365723,672.599243 469.640289,674.774902 
	C461.374878,679.601929 451.800110,681.908325 444.294281,688.220642 
	C442.657379,689.597351 441.550690,691.374512 439.671997,692.621765 
	C432.490479,697.389954 425.535400,702.505432 418.594849,707.625549 
	C417.072296,708.748779 415.110565,710.235535 416.165405,712.537964 
	C417.972473,716.482422 415.882965,716.349609 413.082947,715.883850 
	C409.297028,715.254211 406.731232,717.644287 406.524567,722.431396 
	C412.048615,722.238098 416.031189,716.401855 422.495911,719.209778 
	C420.402435,714.563354 421.819366,712.763611 425.278107,711.430054 
	C430.136017,709.556946 435.520142,710.109863 440.977386,707.624207 
M396.878510,726.514771 
	C393.085236,729.128662 389.072876,731.480347 385.553345,734.421814 
	C381.012054,738.217285 376.739410,742.362671 372.615784,746.614136 
	C371.160400,748.114624 370.175201,750.553467 372.007385,752.479492 
	C374.125244,754.705811 375.877258,752.848633 377.489075,751.369629 
	C380.897919,748.241455 384.461182,745.346008 388.391388,742.850037 
	C390.870636,741.275513 395.148407,739.210510 394.757751,737.114685 
	C393.867950,732.341003 396.418274,731.234436 399.509705,729.647156 
	C400.516693,729.130005 401.008606,727.762390 400.468689,726.564819 
	C399.757690,724.987793 398.542145,725.878906 396.878510,726.514771 
M381.565857,597.735168 
	C383.207123,598.825684 383.807861,597.681213 383.758392,596.425415 
	C383.530823,590.649841 386.287262,585.878845 388.613373,580.921265 
	C389.313782,579.428528 390.657288,577.726318 388.644440,575.635742 
	C385.551270,580.291809 380.892426,583.088806 376.813446,586.533020 
	C375.688995,587.482483 373.122467,586.980896 373.450684,589.363892 
	C373.735657,591.432922 375.208801,593.256226 377.227234,593.562500 
	C379.610382,593.924133 380.788544,594.994385 381.565857,597.735168 
M661.942627,443.341888 
	C661.639893,449.621704 658.627686,455.486633 658.672058,462.547974 
	C660.756226,460.850281 662.349548,459.718903 663.748169,458.383636 
	C669.049866,453.322113 669.258789,444.572632 664.279419,440.045654 
	C663.281006,439.138031 662.303467,437.937836 660.925354,439.169159 
	C659.368164,440.560547 660.131104,441.785736 661.942627,443.341888 
M396.530731,402.089691 
	C397.704468,404.295807 399.293121,403.036346 400.847412,402.673523 
	C404.374237,401.850220 407.821655,400.210663 411.491028,400.589233 
	C416.257385,401.080933 419.640594,398.798035 423.727356,395.591064 
	C419.412659,394.720673 416.135406,393.731293 412.667816,396.303284 
	C410.655762,397.795654 408.216156,399.412689 405.303101,397.739624 
	C400.807678,395.157745 398.120758,397.116119 396.530731,402.089691 
M354.485016,791.399963 
	C349.014465,790.047974 343.599579,795.529907 343.031433,802.995361 
	C353.417114,800.270874 353.451202,802.095764 353.158234,795.416931 
	C354.296112,794.109619 357.153961,795.187988 357.327911,792.671936 
	C357.420349,791.334656 356.108032,791.407104 354.485016,791.399963 
M672.206543,465.760284 
	C672.412842,465.500122 672.646851,465.257141 672.821167,464.977081 
	C674.334839,462.545227 675.447815,459.632019 672.359558,458.091858 
	C669.444702,456.638153 667.981628,459.552490 666.956909,461.797241 
	C665.786255,464.361664 664.738281,466.950256 663.076965,469.274475 
	C662.215515,470.479675 661.685059,471.973999 663.266418,473.501038 
	C667.754089,473.186676 669.926514,469.959991 672.206543,465.760284 
M353.951843,513.597351 
	C354.336578,512.290649 355.623505,510.898712 353.247375,509.554169 
	C349.331879,512.945557 345.133270,516.171814 342.890106,521.155945 
	C341.873444,523.414856 341.762512,525.927429 344.307495,527.256470 
	C346.565247,528.435608 347.987274,526.582581 349.180023,524.962219 
	C351.180115,522.245117 346.397186,522.647095 347.093079,520.208313 
	C349.746948,518.916443 352.684296,517.606384 353.951843,513.597351 
M418.341187,598.037109 
	C421.055389,594.246704 417.391052,592.811890 415.543732,590.851135 
	C414.546600,589.792847 413.535492,587.820435 411.478546,589.214600 
	C409.810822,590.344971 409.089355,591.879456 409.848358,593.654175 
	C410.934052,594.952637 412.714386,592.890198 413.433594,594.848816 
	C413.111328,598.910034 408.546234,601.967590 410.316345,606.853027 
	C414.632416,605.466614 415.186615,601.025818 418.341187,598.037109 
M643.668152,468.615112 
	C644.109436,470.894958 646.022034,472.000610 647.294067,473.558990 
	C652.201843,470.925629 654.858826,462.366547 652.069763,456.877289 
	C649.198730,460.754700 646.521912,464.369843 643.668152,468.615112 
M352.783600,473.284607 
	C346.424622,475.517731 344.119598,479.492645 346.341919,484.393005 
	C349.051819,483.521088 354.050873,480.110962 355.885712,477.831177 
	C358.510651,474.569702 357.522400,473.122925 352.783600,473.284607 
M390.932709,596.506653 
	C390.666382,595.020325 391.408508,593.250671 389.101837,591.380249 
	C388.897949,594.789551 387.901550,597.349487 386.991333,599.938782 
	C386.018799,602.705322 389.644196,609.775391 392.433746,609.835327 
	C397.092560,609.935547 394.965210,605.428589 396.168243,603.125854 
	C396.334991,602.806702 395.999359,602.225037 395.892883,601.749695 
	C393.920654,601.197693 392.982849,604.402283 390.727936,602.832703 
	C389.413574,601.084167 391.105377,599.180542 390.932709,596.506653 
M647.904968,803.092163 
	C650.407532,803.559875 652.087646,802.227112 653.127197,800.263000 
	C654.173889,798.285522 651.920288,797.589417 651.188477,796.269226 
	C649.307434,792.875671 645.679443,792.067139 642.359436,789.042542 
	C641.970886,795.138428 645.208374,798.734741 647.904968,803.092163 
M355.504486,488.514587 
	C354.039215,485.997375 351.902100,485.876556 349.653198,487.138214 
	C344.898499,489.805603 343.346069,494.012115 344.817169,500.857178 
	C349.352661,497.566162 350.428314,491.455353 355.504486,488.514587 
M350.174957,506.740997 
	C353.024170,505.849976 354.249146,502.875122 356.806244,501.570557 
	C357.563965,501.183990 357.807983,500.246704 357.285858,499.393127 
	C356.684052,498.409241 355.500610,497.890625 354.735962,498.518555 
	C350.427795,502.056396 344.820282,504.168976 342.258881,509.649323 
	C341.594086,511.071808 341.038940,512.708801 342.998474,513.427246 
	C344.574463,514.005066 345.505676,512.772888 345.779846,511.347504 
	C346.203674,509.144196 347.555054,507.853851 350.174957,506.740997 
M367.484222,242.801254 
	C369.532013,244.177399 367.067902,247.234100 369.527130,248.472580 
	C372.763977,246.365265 375.954193,239.300110 374.140900,237.571213 
	C370.603760,234.198654 368.264587,238.222366 365.546234,239.584213 
	C364.885925,239.915024 363.947052,240.231766 364.197754,241.497253 
	C365.061005,241.797577 365.988434,242.120224 367.484222,242.801254 
M405.253601,256.967529 
	C408.411133,256.400787 412.109680,250.827454 411.127747,247.824356 
	C410.534332,246.009628 409.925171,243.607025 407.464355,243.769348 
	C404.771942,243.946915 404.428070,246.284103 404.204224,248.539078 
	C403.937195,251.228882 404.653137,253.766159 405.253601,256.967529 
M401.393311,592.038818 
	C401.044586,594.269165 400.546661,596.511780 401.697144,598.727905 
	C404.352936,598.180298 404.652130,596.064819 405.348663,594.287720 
	C406.241150,592.010498 406.161591,589.365051 408.040924,587.456177 
	C409.124084,586.355957 410.260773,584.960693 408.425049,583.763000 
	C406.562378,582.547913 404.835632,583.367859 403.912689,585.266357 
	C402.978973,587.187012 402.340302,589.251160 401.393311,592.038818 
M366.301575,577.986328 
	C373.139221,573.786011 374.697113,570.631836 371.891754,566.431763 
	C369.760986,567.041443 368.235016,568.636841 366.911896,570.205872 
	C365.060791,572.400879 362.667450,574.799438 366.301575,577.986328 
M365.627045,100.197411 
	C363.032928,100.348633 360.993011,101.399933 360.857910,104.206642 
	C360.783630,105.749939 362.432159,106.227676 363.736664,106.466675 
	C367.487640,107.153908 371.896912,103.196136 372.062042,99.027504 
	C369.954376,98.212250 368.272339,99.756493 365.627045,100.197411 
M349.431213,530.184875 
	C347.144226,533.268311 346.084442,536.467529 348.227173,540.268677 
	C355.389526,538.093506 353.105042,532.652405 353.364380,528.173645 
	C351.440491,527.389160 350.725159,528.655640 349.431213,530.184875 
M342.965668,891.794434 
	C344.269012,894.501282 346.052734,894.779114 347.868805,892.449768 
	C349.797485,889.976013 351.173981,887.195740 350.995789,883.323669 
	C345.420837,883.462830 343.802429,886.946228 342.965668,891.794434 
M392.795166,409.336029 
	C393.271698,407.737762 394.833832,405.370789 391.605957,405.460907 
	C389.039124,405.532562 386.613739,407.122528 384.839478,409.163269 
	C383.839325,410.313660 384.360504,411.674713 385.106567,412.831757 
	C385.926941,414.104034 387.099823,414.404846 388.543610,413.974884 
	C390.605347,413.360931 391.975433,412.100647 392.795166,409.336029 
M379.030792,253.540466 
	C381.051758,250.062241 381.104980,246.260437 380.881104,242.326904 
	C379.307678,246.209213 376.874817,249.449188 374.424652,252.693756 
	C373.047943,254.516830 373.366852,256.184723 375.575012,257.073181 
	C378.259155,258.153198 378.661743,256.264709 379.030792,253.540466 
M358.246368,462.681122 
	C360.044281,461.355255 361.539795,459.911896 360.099579,456.733551 
	C355.454529,459.832153 351.657928,463.356140 348.069916,468.159088 
	C353.679413,469.418030 354.608459,464.464020 358.246368,462.681122 
M422.976898,608.302490 
	C423.894562,605.895386 425.832275,603.581177 423.803192,600.876404 
	C423.160187,600.019287 421.980438,599.446594 421.191376,600.156616 
	C419.318817,601.841614 418.094025,604.017273 417.830414,606.599182 
	C417.781982,607.073303 417.943848,607.594238 418.105255,608.060181 
	C419.105499,610.947388 420.557739,611.534180 422.976898,608.302490 
M354.330994,214.032532 
	C352.013214,216.014801 349.678650,217.993057 352.452087,221.298599 
	C354.935699,221.183426 356.551056,219.640442 358.229401,218.391342 
	C359.695862,217.299927 360.114136,215.610748 359.074951,213.973694 
	C357.917633,212.150558 356.385437,212.375748 354.330994,214.032532 
M363.105072,569.318420 
	C363.781189,568.390076 364.719055,567.552490 365.079071,566.514465 
	C365.833618,564.338867 366.635040,561.974365 364.924011,559.903015 
	C364.192200,559.017151 363.041779,559.495911 362.227997,560.155701 
	C360.079620,561.897522 359.379364,564.159668 360.000031,566.838440 
	C360.312469,568.187012 360.756470,569.431335 363.105072,569.318420 
M345.864899,822.211792 
	C348.838776,821.876587 351.044922,820.098877 353.252899,818.307312 
	C354.330292,817.433105 354.623871,816.426819 353.802368,815.275269 
	C353.002319,814.153687 351.726288,813.904236 350.708679,814.606750 
	C348.529999,816.111084 346.411072,817.744934 344.489532,819.560486 
	C343.526093,820.470764 343.639862,821.715881 345.864899,822.211792 
M655.827148,430.548798 
	C654.081299,432.976013 652.583252,435.469757 653.364380,438.772949 
	C657.558289,439.030457 658.645508,435.904205 659.673218,433.301422 
	C660.844299,430.335236 659.636902,428.867767 655.827148,430.548798 
M365.017792,508.174530 
	C364.346619,509.833069 364.877960,511.007599 366.675903,510.550598 
	C368.896881,509.986023 370.946808,508.742554 372.177643,506.701416 
	C372.970459,505.386658 373.134766,503.727112 371.694183,502.713654 
	C370.407776,501.808685 369.101318,502.609344 368.209869,503.619812 
	C367.133148,504.840393 366.267761,506.247437 365.017792,508.174530 
M400.047577,279.365936 
	C401.972198,280.943573 403.350220,280.444641 404.224060,278.229156 
	C405.023010,276.203400 404.923706,274.300049 403.050690,272.900208 
	C401.594116,271.811615 400.235535,272.392426 399.059967,273.502014 
	C396.940826,275.502258 397.683502,277.273834 400.047577,279.365936 
M347.081543,190.389297 
	C348.513306,189.361603 350.706055,188.354492 348.986542,186.272827 
	C347.406769,184.360306 345.563538,186.148041 344.262207,187.105835 
	C341.746429,188.957489 342.218445,191.868668 341.915161,194.421158 
	C346.215607,196.102859 344.754456,191.612488 347.081543,190.389297 
M343.628052,805.981201 
	C340.896179,805.635559 340.171051,807.027039 340.437378,809.931763 
	C344.341125,809.475342 348.230652,810.429626 352.023712,807.549011 
	C349.274750,805.595764 346.741272,806.213623 343.628052,805.981201 
M370.159302,162.086578 
	C366.345764,164.513657 366.935059,169.812057 363.449371,172.488693 
	C363.363007,172.555023 363.829987,173.755051 364.279327,174.022751 
	C365.318420,174.641769 366.406952,174.013504 366.795624,173.160202 
	C368.392426,169.654449 370.232788,166.214569 370.159302,162.086578 
M414.065521,268.086548 
	C415.268860,264.891846 416.472198,261.697144 417.902374,257.900238 
	C414.299377,259.415253 410.745789,265.951416 411.613739,268.516052 
	C411.962769,269.547363 412.939789,269.035248 414.065521,268.086548 
M382.472351,231.411209 
	C384.450592,229.229416 385.511444,226.872025 384.233368,223.812958 
	C379.601379,226.359177 378.975159,228.825165 382.472351,231.411209 
M356.926880,129.841888 
	C358.224548,128.766510 359.306030,127.260361 357.085266,126.510132 
	C354.201874,125.536034 351.754761,126.570808 350.481293,129.695786 
	C352.524841,131.267212 354.404022,130.967560 356.926880,129.841888 
M369.912048,455.699310 
	C370.840302,454.763794 372.992798,455.166687 372.882812,452.298767 
	C369.870972,454.002533 365.817932,451.538696 363.534119,456.009888 
	C365.675293,457.423950 367.477936,457.039185 369.912048,455.699310 
M350.206665,901.836426 
	C352.719299,902.600220 353.881073,901.074158 354.589172,899.083862 
	C354.950531,898.068298 354.425232,897.134827 353.403046,896.675720 
	C351.726929,895.923035 350.575745,897.107727 349.444427,897.966980 
	C347.871185,899.162048 348.118530,900.431885 350.206665,901.836426 
M397.238556,575.801025 
	C392.387238,579.110840 397.311096,582.313416 397.128204,585.588989 
	C397.121887,582.398315 399.664032,579.364136 397.238556,575.801025 
M418.854065,273.624237 
	C418.848236,274.518829 418.088104,275.598114 419.602417,276.225708 
	C421.604736,275.133911 423.465424,273.826599 423.452728,271.178406 
	C423.447388,270.058868 422.455719,269.460358 421.401123,269.438507 
	C418.918671,269.387177 419.279266,271.433807 418.854065,273.624237 
M670.968079,783.653687 
	C670.348755,784.406189 669.615845,785.093506 669.137268,785.926758 
	C668.445374,787.131531 668.011597,788.568054 669.766418,789.200195 
	C671.137390,789.694031 672.483459,789.002197 673.097107,787.743225 
	C673.959351,785.974487 674.153503,784.182251 670.968079,783.653687 
M367.042053,206.004471 
	C367.257385,207.492828 367.845337,209.006775 369.357605,207.264023 
	C370.983246,205.390656 371.616455,203.040192 369.483276,200.757141 
	C367.143036,201.649139 367.386810,203.624771 367.042053,206.004471 
M351.045227,874.263550 
	C351.452484,872.567200 352.368408,870.861389 350.814056,868.879517 
	C348.091980,871.165466 348.154327,874.090759 347.924561,877.125916 
	C349.712494,876.946960 350.319244,875.988892 351.045227,874.263550 
M400.593750,616.710083 
	C403.382111,615.405945 403.439117,613.670227 401.616272,611.486511 
	C397.164825,613.899963 397.039429,614.340515 400.593750,616.710083 
M343.140320,178.392242 
	C344.313293,176.993851 346.632721,175.608429 344.086121,173.739914 
	C342.605713,172.653656 341.216309,174.015533 340.716522,175.430054 
	C340.156738,177.014526 339.452026,179.148224 343.140320,178.392242 
z"/>
<path fill="#000000" opacity="1.000000" stroke="none" 
	d="
M646.929504,93.288322 
	C648.112732,97.614380 650.985718,101.179344 650.228882,105.784142 
	C647.191650,104.688950 642.080200,93.322006 642.344177,88.687340 
	C645.489014,88.416283 645.825439,91.000694 646.929504,93.288322 
z"/>
</svg>