<svg version="1.1" id="Layer_1" xmlns="http://www.w3.org/2000/svg" xmlns:xlink="http://www.w3.org/1999/xlink" x="0px" y="0px"
	 width="100%" viewBox="0 0 1024 1024" enable-background="new 0 0 1024 1024" xml:space="preserve">
<path fill="#000000" opacity="1.000000" stroke="none" 
	d="
M419.809753,864.945435 
	C425.723816,865.951294 431.231781,865.592651 436.723602,865.630554 
	C438.492706,865.642761 440.191467,865.402771 440.542969,863.275146 
	C443.190582,847.248901 446.410004,831.345825 451.348297,815.529663 
	C446.747711,813.515808 442.318176,814.119629 438.170441,813.514221 
	C385.650482,805.848145 336.159302,790.143005 292.207794,759.413879 
	C290.980042,758.555481 289.730408,757.722229 288.446320,756.951660 
	C280.806793,752.367554 278.974976,746.152222 284.012390,739.005981 
	C290.744171,729.455994 296.012848,719.023682 302.590729,709.389954 
	C305.042999,705.798523 307.063477,705.083008 310.352325,708.330933 
	C317.797852,715.683838 328.033722,718.111633 336.895142,722.978149 
	C338.371552,723.788940 339.517853,723.152100 340.307861,721.917236 
	C342.899017,717.867126 345.201874,713.684387 345.950989,708.600769 
	C343.840027,707.578003 341.998901,706.322510 339.965912,705.757202 
	C319.709534,700.125000 304.405518,686.473267 288.760101,673.654419 
	C234.568878,629.253357 200.044235,572.482117 184.092209,504.410614 
	C178.496948,480.534119 175.735657,456.249756 176.779358,431.680542 
	C179.888504,358.490479 203.384872,292.657837 248.939987,235.116440 
	C295.498566,176.307556 356.191498,140.462250 429.587463,126.005264 
	C445.868805,122.798286 462.447388,121.634995 479.028656,120.558411 
	C517.441895,118.064339 554.446960,124.829987 590.688965,136.809036 
	C598.572632,139.414795 606.207886,142.816040 613.837036,146.128357 
	C617.370850,147.662628 618.963379,146.769348 619.907227,143.192902 
	C620.751953,139.992203 622.062073,136.914322 623.295532,133.417511 
	C617.423218,130.202621 611.708191,126.774582 605.153320,125.482323 
	C601.554077,124.772736 600.746643,123.129234 601.599548,119.939217 
	C604.390320,109.500793 607.086609,99.035164 613.133667,89.836464 
	C614.039612,88.458374 614.772766,86.927010 615.348816,85.378372 
	C618.598755,76.641365 622.474426,74.582718 631.516113,77.601509 
	C649.573120,83.630264 666.872131,91.362740 683.210571,101.201637 
	C721.312561,124.146370 755.640259,151.670227 784.494202,185.635086 
	C824.523254,232.754364 852.074463,286.331146 866.250732,346.604370 
	C871.507629,368.954926 874.331055,391.642700 875.464111,414.610077 
	C877.984070,465.686890 871.534912,515.469238 854.151184,563.589844 
	C837.070374,610.872070 810.772095,652.618530 776.613708,689.487488 
	C741.020996,727.904541 700.146851,759.153992 652.637207,781.471008 
	C619.586365,796.996094 584.771606,806.628418 548.807434,812.406372 
	C546.234375,812.819763 543.514343,812.916138 540.909363,814.648438 
	C542.527832,828.121765 545.605774,841.331177 549.545105,854.335388 
	C553.195679,866.386292 553.307434,866.122986 566.251038,864.985962 
	C573.348511,864.362488 580.511719,864.084656 587.642456,865.544617 
	C593.873169,866.820312 599.226562,869.544434 603.911621,873.759949 
	C620.024597,888.258240 635.008484,903.911194 650.380981,919.166748 
	C653.490417,922.252502 656.017822,925.742615 657.540039,929.885498 
	C659.405457,934.962280 657.930115,939.110413 653.218201,941.758667 
	C649.540161,943.825806 645.460938,945.028748 641.332092,945.227417 
	C610.252808,946.722534 579.184631,948.750671 548.033875,947.636230 
	C540.885620,947.380432 533.725525,947.436768 526.570679,947.384338 
	C470.765839,946.975647 414.960754,946.595764 359.156311,946.140076 
	C353.835693,946.096558 348.509644,945.710327 343.202271,945.282654 
	C333.909912,944.534119 330.352417,938.374573 334.276245,929.908691 
	C338.513123,920.767456 345.934021,914.124451 352.794250,907.151733 
	C363.657379,896.110718 374.624664,885.129089 386.159943,874.806152 
	C395.437439,866.503662 407.273865,864.852905 419.809753,864.945435 
M553.036316,714.556274 
	C555.963196,708.759521 559.007629,703.018616 561.794312,697.155212 
	C569.343872,681.270142 579.947510,668.155701 595.313904,659.146423 
	C598.747314,657.133423 601.829895,654.522400 605.076416,652.190002 
	C612.084839,647.154724 617.339417,640.592163 619.233093,632.226257 
	C622.260559,618.851257 626.500610,606.051025 632.669861,593.763855 
	C636.199463,586.733887 632.494873,579.041809 625.093628,576.377319 
	C621.365601,575.035217 617.454895,574.090271 613.552917,573.360840 
	C597.223633,570.308105 582.311523,564.368408 569.735046,553.124634 
	C559.180664,543.688721 553.837158,531.961121 553.702393,517.924622 
	C553.585693,505.767883 557.286987,494.492340 561.447449,483.145966 
	C572.781982,452.234375 594.930298,433.264893 625.729492,423.924103 
	C647.127869,417.434387 669.325317,416.844086 691.465210,417.859100 
	C700.444153,418.270752 708.549316,422.037537 714.515015,429.349945 
	C719.058044,434.918488 721.007507,441.653046 723.252380,448.270630 
	C727.484314,460.745453 735.135803,465.128326 747.679077,461.872345 
	C759.790283,458.728516 771.059143,460.414642 781.707947,466.847229 
	C782.662964,467.424164 783.505798,468.406403 784.833618,467.985260 
	C787.109497,459.760864 788.552124,428.588593 786.923828,420.150879 
	C784.763672,423.306305 782.830994,426.164001 780.862549,428.996826 
	C777.730774,433.503784 775.331360,438.539917 771.481323,442.521667 
	C766.590088,447.580200 760.435730,446.090271 758.552856,439.361420 
	C757.662720,436.180176 757.316406,432.849579 756.658691,429.599823 
	C755.306519,422.918823 754.735474,416.017670 751.260681,408.930481 
	C748.669800,416.957611 746.428467,424.109283 742.316284,430.440979 
	C740.249451,433.623383 737.667786,436.631134 733.563293,436.001984 
	C729.239624,435.339264 728.242249,431.468140 727.628845,427.716003 
	C725.503113,414.713318 720.103394,402.940491 713.925903,391.479004 
	C710.733093,385.555298 708.361511,385.057892 702.879700,388.871826 
	C701.789185,389.630524 700.666870,390.404816 699.766785,391.366241 
	C692.487732,399.141602 683.549438,404.723785 674.390137,409.804688 
	C661.734436,416.825165 648.268005,418.104431 634.461731,413.283722 
	C628.767578,411.295532 625.067932,407.194366 622.913086,401.603149 
	C621.242432,397.268219 621.528809,392.768921 621.658386,388.282654 
	C621.937073,378.637665 628.567932,370.909668 637.846191,368.628662 
	C644.269897,367.049469 650.345581,368.307037 656.559326,369.544830 
	C664.057617,371.038483 664.110352,370.918945 665.788513,363.216278 
	C669.244324,347.355072 677.484375,335.870575 694.065430,331.754395 
	C697.271973,330.958374 700.432312,329.739105 703.405212,328.287506 
	C710.036499,325.049469 711.011963,321.796478 710.304626,314.554016 
	C709.619324,307.536926 706.324951,302.867157 700.653809,299.223694 
	C683.986938,288.516113 682.862366,263.345184 696.674744,250.531326 
	C700.466064,247.014053 704.175720,243.379318 708.532593,240.602554 
	C712.235779,238.242371 712.857239,236.450348 709.290405,233.136475 
	C698.307983,222.932983 687.669434,212.338837 675.863464,203.076233 
	C670.047363,198.513107 664.731018,193.172424 657.772705,189.687622 
	C657.191589,190.786819 656.569885,191.462189 656.485535,192.199051 
	C655.534607,200.514465 652.570068,208.315491 650.462891,216.336746 
	C647.358337,228.155090 640.161377,236.745422 628.925659,240.901123 
	C614.302734,246.309586 599.788086,252.260788 584.510315,255.657730 
	C575.177612,257.732788 566.615784,255.261261 559.623169,248.617462 
	C546.399902,236.053741 539.819885,220.905853 542.749634,202.451355 
	C544.292847,192.730530 547.985779,184.222870 557.478882,179.455963 
	C562.411255,176.979202 566.780945,173.619659 571.098755,170.207352 
	C575.972351,166.355789 578.811279,155.748993 576.470581,150.195679 
	C576.041077,149.176682 575.307861,148.656937 574.300781,148.337662 
	C564.311157,145.170380 554.201355,142.527328 543.755249,141.375366 
	C541.322083,141.107040 539.779236,141.798096 539.155701,144.629959 
	C538.157776,149.162125 536.667725,153.590790 535.289612,158.033401 
	C531.591492,169.955048 526.263550,180.421997 512.402405,183.050705 
	C509.789886,183.546173 507.143951,183.875565 504.544678,184.428528 
	C499.831238,185.431259 494.985840,186.215652 491.334930,189.794189 
	C487.574799,193.479782 487.821808,195.099091 492.522736,197.396790 
	C498.083069,200.114548 503.116943,203.618607 504.869476,209.772232 
	C509.441254,225.824890 505.309326,244.333420 486.438507,251.973740 
	C475.994751,256.202118 465.169495,256.158478 454.467468,254.832458 
	C445.639648,253.738663 438.078033,255.295441 430.850769,260.245819 
	C424.064331,264.894287 416.624359,268.948486 408.445190,269.497345 
	C392.678406,270.555389 383.346283,279.366425 377.033325,292.735596 
	C376.538788,293.782928 375.825012,294.727295 375.207092,295.715759 
	C371.410217,301.789673 367.592194,307.822998 362.256653,312.754852 
	C352.725159,321.565186 336.041382,320.062592 333.195953,303.936920 
	C332.409393,299.479187 332.715057,295.007721 332.043304,290.540009 
	C331.272552,285.414093 328.479065,283.109161 323.959320,282.588287 
	C319.688904,282.096069 315.333405,281.861115 311.075470,283.137512 
	C295.451691,287.821228 285.189606,298.362701 278.914307,313.002380 
	C275.072510,321.964905 277.249603,325.336578 287.028015,326.694550 
	C300.617340,328.581787 306.590515,335.568512 305.241730,348.466339 
	C304.919708,351.545868 303.633118,354.540588 302.661621,357.532623 
	C300.917328,362.904846 298.841003,368.160797 299.233215,374.013916 
	C299.722168,381.310791 304.739319,386.363739 312.027252,386.645538 
	C317.422241,386.854156 322.506561,385.068512 327.748047,384.325378 
	C341.987152,382.306549 355.546661,383.828522 367.810211,392.286774 
	C380.235352,400.856506 388.542999,412.459198 393.230408,426.592194 
	C396.906525,437.676147 402.401489,446.865601 413.964630,451.165222 
	C415.505157,451.738068 416.895233,452.744537 418.309509,453.623352 
	C429.562836,460.616302 436.545776,469.970215 435.371216,483.999084 
	C434.412323,495.451538 440.112854,503.221619 449.367249,509.134186 
	C456.510193,513.697693 464.116547,517.523438 470.660797,523.056702 
	C485.046356,535.220032 484.877533,553.989319 471.928314,565.230286 
	C468.141907,568.517151 464.345764,571.761597 460.175232,574.478149 
	C452.243286,579.644775 446.487732,586.531982 442.637878,595.115051 
	C435.785370,610.392395 424.356354,618.146545 407.229980,617.469238 
	C400.414429,617.199707 394.095032,619.602844 389.530731,625.169556 
	C381.068817,635.489807 370.460236,642.446716 357.856628,646.915344 
	C344.310516,651.718201 335.610168,659.992615 336.073700,678.757202 
	C336.237427,685.383423 338.626495,688.668823 344.118561,691.338745 
	C361.959839,700.012024 380.194244,707.679749 399.029938,713.911621 
	C426.777679,723.091919 455.153351,728.757935 484.444702,729.703674 
	C501.653198,730.259277 518.572693,728.004761 535.562805,725.815002 
	C543.235779,724.826111 549.438171,722.735352 553.036316,714.556274 
M373.451691,619.979675 
	C383.016388,607.860352 395.178741,601.301270 410.959015,601.679810 
	C420.043030,601.897705 426.649261,597.390503 429.883942,588.860229 
	C432.736694,581.337341 437.163818,575.082947 443.043610,569.717163 
	C448.949280,564.327820 454.761444,558.835815 460.679382,553.460083 
	C467.882721,546.916748 467.965942,543.063782 461.046570,536.068054 
	C457.244354,532.223877 452.606140,529.588684 448.045532,526.849609 
	C440.303253,522.199524 432.761871,517.305908 427.075684,510.111084 
	C422.068420,503.775330 419.054840,496.901428 420.523132,488.466034 
	C422.257874,478.499695 418.654083,470.855072 409.594971,465.997192 
	C408.274200,465.288910 407.012360,464.460449 405.658447,463.825897 
	C397.214447,459.868317 391.094299,453.543274 386.361176,445.595367 
	C382.336517,438.837219 379.991119,431.286377 376.051636,424.519104 
	C367.034271,409.028839 354.931396,398.443939 335.638550,399.324463 
	C331.417633,399.517120 327.480988,400.880981 323.438202,401.763428 
	C297.847229,407.349518 277.872803,386.096283 285.235077,360.960114 
	C286.308929,357.293854 287.636536,353.700958 288.880768,350.085815 
	C290.900665,344.217010 290.422760,343.409149 284.209442,342.425293 
	C283.553955,342.321503 282.870789,342.388824 282.216949,342.278809 
	C268.228729,339.925385 258.525391,335.015717 262.693237,314.391876 
	C267.675781,289.736633 284.089996,274.853394 307.700348,267.811279 
	C317.630859,264.849335 327.703339,265.147614 337.345764,269.834961 
	C343.037567,272.601837 345.678772,277.255890 346.310333,283.269684 
	C346.778503,287.727570 346.913147,292.224243 347.485107,296.666443 
	C348.121796,301.611633 349.768768,302.277618 354.083710,299.905640 
	C356.555786,298.546661 358.036041,296.406403 359.356293,294.063843 
	C363.447296,286.805206 367.541870,279.529968 372.687408,272.958191 
	C379.993652,263.626923 388.866547,256.954407 401.192627,255.393173 
	C408.591644,254.456009 415.756409,252.272217 422.009399,247.649673 
	C432.894714,239.602661 445.108948,237.496826 458.466370,239.327896 
	C466.702698,240.456940 475.197784,240.334839 482.810699,236.021133 
	C489.288971,232.350342 491.384064,226.002899 491.522217,219.119980 
	C491.654327,212.537964 486.281006,210.981293 481.270660,209.308640 
	C475.841431,207.496124 472.807434,203.821289 472.413635,197.931290 
	C472.072662,192.831314 473.708191,188.473434 476.571716,184.416245 
	C482.997223,175.312378 492.546448,171.817093 502.874237,169.661621 
	C509.344208,168.311295 515.820374,166.529205 518.966614,160.027802 
	C522.295227,153.149490 523.254822,145.499344 525.379089,138.017242 
	C524.239136,137.724731 523.628906,137.466522 523.003479,137.422226 
	C492.674103,135.273071 462.522278,136.191574 432.610107,142.225540 
	C346.819733,159.531448 282.456207,206.845551 237.394791,281.297363 
	C236.140564,283.369629 235.713028,285.344330 236.057022,287.872681 
	C237.062759,295.264404 237.285339,302.769318 238.429947,310.134247 
	C241.247574,328.264435 244.917618,345.721893 265.885468,352.530121 
	C272.993896,354.838257 272.630096,355.908447 270.784393,363.303711 
	C270.342224,365.075439 269.912292,366.865845 269.688721,368.673920 
	C268.227936,380.486908 268.283356,391.533569 280.009491,399.229187 
	C285.357971,402.739319 289.825104,407.740051 293.506104,413.169586 
	C298.544312,420.601013 298.148804,426.780151 292.547272,433.687256 
	C289.468506,437.483582 285.743164,440.496094 281.907654,443.447632 
	C266.367371,455.406494 258.413361,474.312164 269.628784,494.079742 
	C273.599152,501.077606 278.150604,507.585846 283.096283,513.875793 
	C294.124573,527.901550 298.814789,543.726135 296.480469,561.503174 
	C295.141907,571.697021 293.077148,581.843506 292.484497,592.077698 
	C291.020172,617.362366 295.339996,641.744934 305.678986,664.971313 
	C308.485901,671.277039 314.714386,672.982727 320.179749,676.916992 
	C320.422180,674.765991 320.573456,673.636719 320.673523,672.502991 
	C321.795227,659.793396 325.446136,648.442322 336.628876,640.682495 
	C342.864105,636.355774 349.675262,633.391235 356.678284,630.682190 
	C362.742828,628.336182 368.820496,625.935486 373.451691,619.979675 
M648.343567,589.382507 
	C648.522217,594.732178 646.682190,599.604370 644.173462,604.104553 
	C640.061157,611.481567 637.617432,619.315430 636.190979,627.581848 
	C635.600830,631.001465 634.556885,634.362610 633.491455,637.677063 
	C628.729797,652.489868 618.031189,662.450378 605.411682,670.327148 
	C587.740723,681.356873 577.222839,697.741211 569.076172,716.155518 
	C568.812195,716.752136 568.556580,717.394897 569.528687,718.320923 
	C571.301086,717.864746 573.376160,717.406067 575.405884,716.796509 
	C591.555725,711.945740 606.914062,705.243774 622.009460,697.728088 
	C658.886780,679.367554 690.955872,654.780945 717.882568,623.719849 
	C750.674500,585.892883 769.704590,541.147827 781.991333,493.144470 
	C782.866638,489.724640 782.189209,487.247955 779.929260,485.006989 
	C771.783936,476.930176 762.463074,473.305237 750.910400,476.870087 
	C736.026306,481.462921 724.257385,476.708344 715.066284,464.403992 
	C710.818481,458.717316 707.471863,452.647736 705.838928,445.759766 
	C704.415283,439.754547 700.547363,436.270050 694.981140,434.453033 
	C690.872620,433.111877 686.658203,432.031982 682.262634,432.358795 
	C668.840942,433.356720 655.328918,433.774078 642.100891,436.359955 
	C598.763977,444.831787 576.903564,470.194397 569.548523,509.738007 
	C568.587219,514.906189 568.680908,520.363831 569.935303,525.630737 
	C572.952393,538.298767 581.830383,545.582336 593.007812,550.790955 
	C603.382385,555.625488 614.748169,556.761658 625.634521,559.686951 
	C640.656433,563.723572 648.300293,573.542297 648.343567,589.382507 
M658.520630,107.107986 
	C648.377441,102.217896 638.462891,96.729202 626.929626,94.728111 
	C625.854980,97.992294 624.971863,101.007576 623.875854,103.943352 
	C620.075989,114.121948 620.002686,114.225418 630.101685,118.228806 
	C668.624939,133.499878 701.904297,156.757965 731.353699,185.538910 
	C763.585266,217.038727 789.086609,253.321472 807.983215,294.394287 
	C827.347107,336.482971 836.423523,380.654846 837.323669,426.722687 
	C837.573975,439.528076 837.010803,452.274231 835.545044,465.053802 
	C833.517700,482.729279 831.011536,500.281219 826.840515,517.573181 
	C807.828613,596.391174 764.269775,659.055908 700.369446,707.917969 
	C666.069824,734.145508 627.798767,753.118347 586.336487,765.228210 
	C557.197327,773.738770 527.361511,778.155823 496.916931,778.543457 
	C486.938171,778.670471 477.061859,778.001587 467.131744,777.515869 
	C447.313202,776.546570 427.860931,773.377991 408.670807,768.622925 
	C380.468018,761.634583 353.176880,752.297852 328.559387,736.299500 
	C324.400635,733.596802 319.677429,731.755310 315.186249,729.575134 
	C313.505005,728.758911 311.787140,728.038818 310.391022,730.208435 
	C307.082764,735.349609 303.711029,740.449890 300.186768,745.839111 
	C306.277008,750.604248 313.047272,753.784546 319.558411,757.374573 
	C367.430725,783.770081 418.903473,797.632507 473.301483,800.463501 
	C490.531006,801.360168 507.835297,800.879150 525.133057,798.994690 
	C555.021484,795.738281 584.192383,789.524292 612.384033,779.287292 
	C692.189758,750.308228 755.618652,700.321106 802.173706,629.272949 
	C840.800598,570.323975 858.861389,505.154388 859.602417,434.951721 
	C859.647888,430.648956 858.666016,426.328918 858.786621,422.034485 
	C859.199524,407.332794 857.658142,392.747192 855.382874,378.326660 
	C849.835938,343.171722 840.007935,309.217865 824.238281,277.186188 
	C787.597351,202.760574 732.184204,146.527298 658.520630,107.107986 
M760.833862,275.772247 
	C761.468201,276.943054 762.073486,278.130646 762.741089,279.282166 
	C785.597168,318.707611 799.510620,360.957153 803.278137,406.489746 
	C805.611389,434.688812 803.952698,462.750488 798.842712,490.418701 
	C790.418701,536.031494 772.494263,578.012207 745.505432,615.704834 
	C725.018982,644.316223 699.959656,668.504089 670.760254,688.525513 
	C639.407959,710.023193 605.882385,726.621338 568.977356,735.661316 
	C550.000061,740.309814 530.814636,744.124573 511.134033,745.675659 
	C488.397797,747.467529 465.958344,746.404358 443.617859,742.714478 
	C416.432098,738.224304 390.328674,729.945679 365.234711,718.526184 
	C364.380280,718.137451 363.489746,717.433655 362.300995,718.061157 
	C360.869598,721.461243 359.678986,725.107422 357.856689,728.404419 
	C355.728455,732.255066 356.479309,734.104675 360.588013,735.894165 
	C371.786957,740.771729 383.755920,743.103149 395.236694,746.995544 
	C424.768219,757.007874 455.301666,761.226685 486.270905,762.543274 
	C502.740570,763.243408 519.098022,761.206848 535.410950,758.811584 
	C580.101013,752.249634 621.653931,737.055786 660.549194,714.242676 
	C695.880188,693.520142 725.967041,666.965393 751.561279,634.956909 
	C780.274292,599.047913 798.602783,558.201965 810.520935,514.272522 
	C816.923523,490.673309 819.515747,466.479767 820.252136,441.946594 
	C820.864136,421.560150 820.712219,401.140228 817.167236,381.273315 
	C810.120605,341.782074 797.399231,304.026154 776.589844,269.332977 
	C758.391357,238.992722 736.662476,211.624527 710.167664,188.045380 
	C689.628479,169.766525 666.769409,154.989883 642.678833,141.980820 
	C637.410095,139.135681 636.914612,139.465591 635.102295,145.241776 
	C634.754761,146.349548 634.614258,147.536194 634.164185,148.595551 
	C632.141663,153.356308 633.827820,156.260696 638.240845,158.669220 
	C644.662476,162.173920 650.776733,166.241150 657.027039,170.060471 
	C700.254639,196.475616 734.253845,231.972580 760.833862,275.772247 
M224.592194,567.948608 
	C239.484543,597.018677 258.278198,623.212646 282.366241,646.378967 
	C281.264587,642.563538 282.443329,639.250183 281.379303,636.007996 
	C275.033051,616.670959 276.341034,597.062378 279.458130,577.410461 
	C280.756073,569.227600 283.288696,561.054077 283.233917,552.889893 
	C283.164093,542.478638 279.392303,532.791443 272.485443,524.519226 
	C266.727661,517.623169 261.240845,510.497162 256.788116,502.629791 
	C243.801010,479.683350 246.717422,458.120239 265.277405,439.468750 
	C269.290009,435.436371 273.662262,431.931183 278.251617,428.590759 
	C283.202118,424.987488 283.310699,423.460999 279.231110,419.110229 
	C275.822266,415.474792 272.148438,412.069153 268.419342,408.756042 
	C256.451538,398.123322 251.590393,385.050262 255.235840,369.349243 
	C256.084656,365.693359 255.461792,364.005188 252.242340,362.248383 
	C241.766647,356.531799 234.691086,347.720856 229.881653,336.882172 
	C226.022644,328.185303 224.542725,318.937531 222.701187,309.639343 
	C185.112671,395.741455 181.589676,481.624695 224.592194,567.948608 
M559.499939,931.685059 
	C584.992920,931.822327 610.464172,931.511719 636.198242,928.907166 
	C635.701416,927.490051 635.665405,926.922668 635.365845,926.599915 
	C622.446838,912.680359 609.531494,898.750610 595.106018,886.343994 
	C592.048523,883.714478 588.380188,882.259155 584.414246,881.233276 
	C575.908081,879.033142 567.505188,881.375122 559.058777,881.358337 
	C510.901276,881.262817 462.743500,881.335999 414.585785,881.314697 
	C406.368622,881.311035 399.224152,883.984192 393.303101,889.646729 
	C383.918243,898.621765 374.549988,907.617798 365.351532,916.782410 
	C361.640717,920.479675 358.396057,924.644714 354.939270,928.596863 
	C355.078827,929.078064 355.218384,929.559265 355.357971,930.040466 
	C423.067505,930.917175 490.774719,931.966553 559.499939,931.685059 
M784.930054,392.130737 
	C783.324829,379.255829 780.788940,366.539032 777.228760,354.090546 
	C767.376160,319.639435 751.213135,288.237518 730.192383,259.321075 
	C722.642151,248.934921 725.208130,246.878647 711.848755,256.557068 
	C700.961304,264.444641 698.684692,280.507202 711.367859,288.862457 
	C719.024475,293.906372 722.981689,301.369171 724.984680,310.160706 
	C727.903198,322.970184 724.794739,332.514343 715.294678,338.663727 
	C710.212280,341.953613 704.580322,344.096161 698.765259,345.515503 
	C685.779419,348.685181 680.778320,358.489746 678.541687,370.107086 
	C676.498779,380.717682 668.564209,386.439148 657.999451,383.838379 
	C653.495361,382.729553 649.101379,381.087097 644.333252,381.334778 
	C638.837097,381.620270 636.011230,383.715302 635.372253,388.156921 
	C634.250427,395.953827 635.884277,399.955444 641.536133,401.553467 
	C648.938599,403.646454 656.396118,403.443634 663.449280,400.067047 
	C674.026245,395.003479 683.656250,388.657440 691.893005,380.099365 
	C703.654236,367.879456 717.560852,370.132538 725.498657,384.980408 
	C729.396912,392.272186 733.573669,399.413361 736.544189,407.226807 
	C738.838257,395.985107 736.632019,385.753601 730.269653,376.409515 
	C729.304810,374.992554 728.094299,373.637756 729.276550,371.933685 
	C730.521606,370.139099 732.408447,369.484161 734.563721,370.031219 
	C738.174438,370.947754 741.431030,372.645630 744.214050,375.087982 
	C757.039673,386.343933 765.040710,400.400299 768.374939,417.124573 
	C768.658508,418.546967 768.763977,420.057343 770.611511,421.047760 
	C775.140137,414.022919 779.612488,407.025421 784.154785,400.073608 
	C785.634399,397.809082 785.987366,395.482178 784.930054,392.130737 
M558.472778,201.172287 
	C555.323120,213.680511 559.017090,224.587708 566.801025,234.224075 
	C571.044312,239.477203 576.837402,241.995346 583.701111,239.776703 
	C595.869202,235.843414 607.932129,231.604538 620.204041,227.965881 
	C626.461548,226.110550 631.082031,221.677078 634.029785,215.682831 
	C638.858643,205.863388 641.249817,195.381699 642.635498,184.613617 
	C642.995728,181.813553 641.920471,179.969391 639.453003,178.476547 
	C626.334900,170.539810 613.065613,162.913101 598.889282,156.971832 
	C590.450439,153.435120 590.202087,153.455276 590.388245,162.437180 
	C590.566711,171.050415 586.968445,177.507980 580.003601,182.256821 
	C575.600525,185.258896 571.140198,188.178009 566.676941,191.090485 
	C563.097473,193.426193 560.235840,196.345428 558.472778,201.172287 
M528.397217,866.649048 
	C536.096680,866.620605 536.811462,866.191284 535.206116,860.951355 
	C531.113403,847.592102 528.258423,833.931335 525.024963,820.366089 
	C524.243408,817.087036 522.769409,816.032593 519.580750,816.065918 
	C503.419952,816.234863 487.257172,816.356873 471.096436,816.261475 
	C467.799408,816.242065 466.257660,817.363098 465.610352,820.478516 
	C464.462128,826.004822 463.258545,831.527039 461.830536,836.986206 
	C459.357147,846.442017 457.463531,855.971497 456.905304,866.648804 
	C480.646484,866.648804 504.053192,866.648804 528.397217,866.649048 
z"/>
<path fill="#000000" opacity="1.000000" stroke="none" 
	d="
M625.906982,309.673950 
	C630.328430,307.011902 634.899658,306.055969 639.549622,305.767487 
	C642.538757,305.582062 643.420410,304.388519 643.727966,301.517639 
	C644.961182,290.007660 649.223755,284.449524 658.007324,282.282898 
	C666.087524,280.289764 676.085999,286.013611 676.961914,294.240265 
	C678.082947,304.768921 679.178040,315.365814 677.700195,326.061951 
	C675.906982,339.040466 668.109497,344.854095 652.033264,341.480682 
	C645.837158,340.180511 639.667725,338.603882 633.405396,338.535309 
	C626.765198,338.462616 622.617126,335.387634 620.180298,329.794922 
	C617.422729,323.466156 618.543396,317.413177 622.879639,312.039032 
	C623.593140,311.154816 624.656555,310.552917 625.906982,309.673950 
M664.666199,319.303070 
	C664.642700,312.812317 664.698364,306.319733 664.547852,299.831909 
	C664.502136,297.859924 664.110291,295.664032 661.510193,295.340607 
	C658.700867,294.991089 658.185852,297.266785 657.889221,299.179230 
	C657.127869,304.087250 656.272034,308.982880 656.254578,313.996887 
	C656.235779,319.374481 653.807922,321.228668 648.626892,320.093719 
	C646.851562,319.704865 645.140320,319.020020 643.403625,318.458618 
	C640.210938,317.426666 637.172974,318.131622 634.192261,319.306000 
	C632.291687,320.054779 631.126465,321.417511 631.518799,323.542877 
	C631.901062,325.613770 633.312073,326.715088 635.437561,326.605103 
	C642.138000,326.258270 648.636292,327.722290 655.219421,328.562164 
	C663.383179,329.603668 664.580383,328.322510 664.666199,319.303070 
z"/>
</svg>