<?xml version="1.0" encoding="utf-8"?>
<!-- Generator: Adobe Illustrator 26.0.3, SVG Export Plug-In . SVG Version: 6.00 Build 0)  -->
<svg version="1.1" id="Livello_1" xmlns="http://www.w3.org/2000/svg" xmlns:xlink="http://www.w3.org/1999/xlink" x="0px" y="0px"
	 viewBox="0 0 720 720" style="enable-background:new 0 0 720 720;" xml:space="preserve">
<style type="text/css">
	.st0{fill:#F8B692;}
	.st1{fill:#94D2E4;}
	.st2{fill:#FFFFFF;}
	.st3{fill:#F6BCC8;}
</style>
<g id="_x32__00000143613125857731198530000006840330722011203972_">
	<path id="black_00000088831797861259240520000016637441826955027100_" d="M608.8862305,583.8602905
		c-6.480957-4.5-13.5879517-6.7789917-21.1199341-6.7789917c-18.4669189,0-35.9508667,14.0949097-42.737854,33.6278687
		l-0.4910278-0.3200073c14.0130005-59.2918091-14.8169556-118.7836304-34.3198853-153.8865356
		c18.3929443-4.7609558,31.9209595-19.5699463,32.4209595-37.2038879
		c13.2079468-12.9249573,23.4138794-26.6619263,30.5058594-41.1058655l3.2399902,3.1659851
		c1.0800171,1.0579834,2.6380005,1.4749756,4.0980225,1.1099548c1.4680176-0.3729858,2.6370239-1.4759827,3.0839844-2.9209595
		c4.9089355-15.7289734,2.6519165-32.908905,0.565979-42.717865l3.8209229,1.3080139
		c0.4619751,0.1560059,0.9320068,0.2340088,1.40802,0.2340088c0.0219727-0.0020142,0.052002-0.0029907,0.0739746-0.0020142
		c2.3989868,0,4.3430176-1.9440002,4.3430176-4.3429871c0-0.4190063-0.059021-0.822998-0.1710205-1.2070007
		c-4.0900269-42.7718811-26.4459229-86.2997437-32.763855-97.8917084
		c4.0459595-4.5829926,12.388916-16.0129547,26.0888672-43.3978577
		c28.7999268-57.5478363,16.5900269-152.7405548-13.5429688-181.7924652
		c-6.7199707-6.459981-14.8849487-9.7369719-24.263916-9.7369719c-17.4389648,0-38.5888672,11.5469656-62.8598022,34.3218994
		c-33.0618896,31.0429077-48.5198364,59.6418228-53.3018188,69.6427917
		c-29.3889465-9.5649719-47.8558655-11.5339661-67.7388306-11.5339661c-1.7749939,0-3.5559998,0.0169983-5.2289734,0.0429993
		c-21.9839478-0.3259888-41.0918884,1.072998-73.0837708,11.4889679c-4.7860107-9.99897-20.250946-38.5978851-53.3088379-69.6427917
		C209.3353882,11.5479641,188.1864624,0,170.7475128,0c-9.3859863,0-17.5509491,3.2759905-24.2709351,9.7389717
		c-30.1369095,29.0439148-42.3468704,124.2366486-13.5429535,181.7904816
		c13.706955,27.384903,22.046936,38.8138733,26.0919189,43.3978577
		c-6.3579865,11.661972-28.9599152,55.6708374-32.8459091,98.7077026c-0.1299973,1.4649963,0.487999,2.8989868,1.6460037,3.8089905
		c1.1549988,0.9089966,2.6889801,1.1659851,4.0899811,0.6929932l3.8179779-1.3080139
		c-2.0859833,9.8109741-4.3429871,26.987915,0.5659943,42.717865c0.451004,1.4450073,1.6159973,2.5479736,3.0839996,2.9209595
		c1.4569855,0.3640137,3.016983-0.053009,4.1009827-1.1099548l3.2549896-3.1809998
		c8.0379791,16.0759277,19.871933,29.9468994,32.736908,41.9108887
		c0.4839935,10.1089783,5.1479797,19.5249329,13.3649597,26.6618958c4.8609924,4.2170105,10.6419678,7.3089905,16.9179535,9.2149658
		c-20.2959442,35.3939209-48.2768555,105.3007202-34.4358978,154.5125122l-0.3500061,0.2310181
		c-6.7869873-19.532959-24.2709351-33.6278687-42.7418823-33.6278687c-7.527977,0-14.6349564,2.2789917-21.1159363,6.7789917
		c-13.5879593,9.4159546-18.7359467,26.848877-14.8959503,50.395813
		c5.8929825,36.1008911,32.3949127,77.5507812,53.5068512,83.6817627c4.5959778,1.3339844,9.2749634,1.9810181,14.302948,1.9810181
		c10.9549713,0,21.246933-3.1209717,31.2029114-6.1389771c4.4139862-1.3330078,8.585968-2.5999756,12.7059479-3.5609741
		c0.7079926-0.1710205,1.4230042-0.3800049,2.2649994-0.6329346c1.9179993-0.5739746,4.5409851-1.3629761,10.3209686-2.3239746
		c10.0639648-2.2869873,23.2619324-5.0889893,38.2088776-7.8150024
		c6.9169922,14.4749146,15.6669617,20.5539551,31.1029053,20.5539551c2.9989929,0,6.25-0.223999,9.7849731-0.6550293
		c19.3319702-2.3690186,29.5079346-11.5549316,32.506897-29.5159302c9.4009705-0.6550293,18.7659302-1.0349121,27.8729248-1.0349121
		c9.0909729,0,18.4549255,0.3869629,27.8709106,1.0429688c3.0029907,17.9530029,13.1789551,27.138916,32.5108948,29.5079346
		C423.9206848,719.7769775,427.1687012,720,430.1636963,720c15.427948,0,24.1739502-6.0709839,31.0949097-20.5159302
		c14.9429321,2.7189941,28.1889038,5.5120239,38.3508911,7.8070068c5.5870056,0.9160156,8.2389832,1.7139893,10.1759644,2.2949829
		c0.8500061,0.2529297,1.571991,0.4619141,2.2719727,0.6329346c4.1270142,0.9609985,8.2990112,2.2280273,12.7089233,3.5609741
		c9.960022,3.0180054,20.2479248,6.1389771,31.2059326,6.1389771l0,0c5.0289917,0,9.7069092-0.6469727,14.3039551-1.9810181
		c21.1119385-6.1309814,47.6098633-47.5808716,53.5028687-83.6817627
		C627.6211548,610.7091675,622.4741821,593.2762451,608.8862305,583.8602905z"/>
	<g id="orange_00000082362239300753723350000006438589101959519645_">
		<path class="st0" d="M552.9693604,230.6252899c0.2009888-0.1690063,8.0089722-6.6409912,26.1929321-42.9818726
			c26.8408813-53.6308289,15.7629395-145.0755768-11.8010254-171.6454926
			c-5.0359497-4.8479853-11.1739502-7.3059788-18.2359619-7.3059788c-15.1599121,0-34.3058472,10.7549696-56.9148254,31.9679108
			c-38.7298889,36.3688927-52.7428589,69.9667969-52.8778381,70.3017883
			c-0.8710022,2.1199951-3.2319946,3.1979904-5.4079895,2.4769897
			c-33.1208801-11.1519623-52.0508118-12.5879593-73.928772-12.2749634
			c-1.8850098-0.026001-3.6239929-0.0410004-5.3559875-0.0410004c-19.8349304,0-38.2428894,2.0599899-68.6887817,12.3139648
			c-2.1789856,0.7320023-4.5409851-0.3550034-5.4079895-2.4749908
			c-0.1380005-0.3349991-14.1539307-33.9328995-52.8848267-70.3037872
			C205.0523529,19.4469242,185.9074249,8.6919565,170.74646,8.6919565c-7.065979,0-13.2049713,2.4579935-18.2439575,7.3099775
			c-27.5629196,26.5619202-38.6448898,118.0056458-11.7999725,171.6424866
			c18.1919556,36.3408966,25.9919281,42.8128815,26.315918,43.0718842c1.6799927,1.3390045,2.2279968,3.7849884,1.1549988,5.644989
			c-0.276001,0.4790039-26.4169312,46.2188721-32.5739136,91.3337402l4.9279785-1.6879883
			c1.5639954-0.5289917,3.2779999-0.1380005,4.451004,1.0130005c1.1729889,1.1530151,1.5939789,2.8699951,1.0909882,4.43396
			c-0.0709991,0.2200012-6.2059631,19.5949402-3.1589813,38.3128967l2.1380005-2.0929871
			c1.0209808-1.006012,2.4689789-1.4450073,3.8809814-1.1589966c1.4080048,0.2789917,2.5849915,1.2330017,3.1509857,2.5440063
			c6.5219879,15.1829529,16.8659515,28.486908,28.542923,40.0948792c1.4819794-5.5209961,4.2689819-10.6899719,8.2579651-15.2049561
			c-6.1609802-6.9659729-9.5059662-15.4879456-9.5059662-24.4239197
			c-0.0070038-10.7549744,4.7679901-20.8329468,13.4429474-28.3769531
			c8.4889832-7.3859558,19.7419586-11.4559326,31.6759033-11.4589539c0.0110016,0,0.0220032,0,0.0339966,0
			c11.9269714,0,23.1679382,4.059967,31.6609192,11.4309387c7.4419556,6.4620056,12.019928,14.789978,13.177948,23.8129272h14.43396
			c-8.3139648-11.6809692-6.7269592-24.8369141-6.6529846-25.4118958c0.3200073-2.4339905,2.5249634-4.131012,4.9879761-3.8269958
			c2.4320068,0.3200073,4.1459961,2.553009,3.8250122,4.9849548c-0.0109863,0.0929871-1.2850037,11.2489624,5.9189758,20.2559814
			c5.3900146,6.7399597,14.21698,10.7629395,26.2369385,11.9619446c18.545929,1.8580017,32.237915-7.5839844,37.4378662-17.3389282
			v-13.3809814c-8.9689636-4.184967-28.8969116-14.5859375-33.2958984-26.4299011
			c-1.3110046-3.54599-1.1690063-6.9649658,0.4320068-10.1609802c9.1109619-18.2589417,35.1989136-18.749939,37.1729126-18.7729492
			h0.0079956c0.0069885,0,0.0440063,0,0.0599976,0c0.0150146,0,0.052002,0,0.0599976,0h0.0080872
			c1.9749756,0.0220032,28.0649109,0.5140076,37.1758728,18.7729492c1.6019897,3.1960144,1.7430115,6.6149597,0.4249878,10.1609802
			c-4.3729858,11.7879639-24.1289368,22.1419373-33.1578979,26.3659058v13.684967
			c5.2890015,9.6679688,18.9299316,18.9379272,37.2998962,17.098938
			c12.0759277-1.2069702,20.9269409-5.2599792,26.3128967-12.0479431c7.210968-9.0960083,5.861969-20.059967,5.8479614-20.1699829
			c-0.3199768-2.4319763,1.3940125-4.664978,3.82901-4.9849548c2.4140015-0.3039856,4.6640015,1.3930054,4.9840088,3.8269958
			c0.0740051,0.5750122,1.6609802,13.723938-6.6459961,25.4049072l16.611969-0.0079956
			c1.1470032-9.0269775,5.7219543-17.3629456,13.1559448-23.8309326c8.5-7.38797,19.7489624-11.4579468,31.6899109-11.4579468
			c24.8899231,0,45.1459045,17.8609314,45.1459045,39.8138733c0.007019,8.9369812-3.3380127,17.4579468-9.4990234,24.4319153
			c3.8140259,4.3129883,6.5410156,9.2229614,8.0759888,14.4589844
			c11.7629395-12.4259644,20.6349487-25.5439453,26.5348511-39.2738647c0.565979-1.3110046,1.742981-2.2650146,3.151001-2.5440063
			c1.3930054-0.2860107,2.8540039,0.1530151,3.8809814,1.1589966l2.1389771,2.0929871
			c3.0679932-18.7579651-3.09198-38.0899048-3.1660156-38.3079224c-0.507019-1.565979-0.0900269-3.2839661,1.0869751-4.4379578
			c1.177002-1.1570129,2.9050293-1.5409851,4.4470215-1.0150146l4.9390259,1.6889954
			c-6.1530151-45.1578674-32.2939453-90.8567352-32.5689087-91.3357391
			C550.5623779,234.4052734,551.1213989,231.9152832,552.9693604,230.6252899z M243.9683075,149.8585358
			c-1.0319977,1.0299835-2.503006,1.4729919-3.9299927,1.1829834c-3.5159912-0.7109833-7.2709656-0.6759796-9.1629639-0.2070007
			c0.0970001,0.5050049,0.2079926,1.0500031,0.3009949,1.5209961c0.9799957,4.7829895,2.4620056,12.0109711-0.9570007,17.1659546
			c-1.9889832,2.9909821-5.0059814,6.1239777-8.8279724,10.088974
			c-7.4869843,7.7699738-17.7419586,18.4099426-27.2249298,35.3348846
			c-0.7929993,1.4210052-2.2719879,2.2220001-3.7919922,2.2220001c-0.7189941,0-1.4490051-0.1790009-2.1199951-0.5549927
			c-2.0929871-1.1730042-2.8379822-3.8199921-1.664978-5.9129791
			c10.0269623-17.9009552,20.7289429-29.0089111,28.5429077-37.1178894c3.519989-3.6499786,6.2989807-6.5329895,7.8479919-8.864975
			c1.4189911-2.1439972,0.3350067-7.4489899-0.3159943-10.6189728c-0.7599945-3.7209778-1.3119965-6.4109802,0.625-8.5689697
			c2.6559906-2.947998,7.0919647-3.7460022,11.0479584-3.7619934c-0.477005-0.8789978-0.9789886-1.7269897-1.4639893-2.5369873
			c-1.7019958-2.8739929-3.3150024-5.5849915-3.1060028-8.5619812c0.1490021-2.2089844,0.5809937-8.5969696,22.8669434-9.8239594
			c-4.4099884-10.8449707-16.381958-35.9129028-39.7328796-57.0788345
			c-16.1909485-14.6899567-29.3029175-21.1659393-40.1078949-19.8269424
			c-2.3759918,0.3129997-4.5519867-1.3889961-4.8499908-3.769989c-0.2980042-2.3819923,1.3890076-4.5509834,3.7689819-4.8499832
			c13.483963-1.6999969,28.8489227,5.5169868,47.0258636,22.0119324
			c32.4239044,29.388916,43.7588806,64.8738098,44.224884,66.3688049c0.4100037,1.3119965,0.1749878,2.7379913-0.6329956,3.8479919
			c-0.8039856,1.1120071-2.0889893,1.7750015-3.4639893,1.7900009c-8.4069672,0.0970001-17.1149445,1.2909851-20.1139221,2.6699829
			c0.3909912,0.7619934,1.0619812,1.8910065,1.5939789,2.7870026c1.7429962,2.9349823,3.9109802,6.5869751,4.815979,11.1449585
			C245.4472961,147.3625336,244.9972839,148.8345337,243.9683075,149.8585358z M274.6202087,290.0231018
			c-14.3439636,0-26.0139313-13.7649536-26.0139313-30.684906c0-16.9129333,11.6699677-30.6698914,26.0139313-30.6698914
			c14.3479309,0,26.0209045,13.7579498,26.0209045,30.6698914
			C300.6421204,276.2571716,288.9681396,290.0231018,274.6202087,290.0231018z M445.2476807,290.0231018
			c-14.3479309,0-26.0209045-13.7649536-26.0209045-30.684906c0-16.9129333,11.6739807-30.6698914,26.0209045-30.6698914
			c14.3409729,0,26.0149536,13.7579498,26.0149536,30.6698914
			C471.2626343,276.2571716,459.5886536,290.0231018,445.2476807,290.0231018z M547.0683594,43.9378395
			c-10.7709351-1.3389969-23.9129639,5.1369858-40.1008911,19.825943
			c-23.3539124,21.1659355-35.3258667,46.2358665-39.7358704,57.0808372
			c22.2809448,1.2279892,22.7139282,7.614975,22.8699341,9.8299561c0.2009888,2.970993-1.4079895,5.6829834-3.1140137,8.5559845
			c-0.4840088,0.8099976-0.9830017,1.6579895-1.4599609,2.5369873c3.9559631,0.0149994,8.3889771,0.8099976,11.0479431,3.7539978
			c1.9440002,2.1659851,1.3940125,4.8549805,0.6260071,8.5789642c-0.6480103,3.1689911-1.7359619,8.4759674-0.3129883,10.6209717
			c1.5419922,2.3279877,4.3210144,5.2109833,7.8450012,8.8609619c7.8139648,8.1089783,18.5128784,19.2159424,28.539917,37.1178894
			c1.177002,2.0930023,0.4320068,4.7399902-1.6619873,5.9129791c-0.6699829,0.3760071-1.4000244,0.5549927-2.1229858,0.5549927
			c-1.5200195,0-2.9940186-0.8009949-3.7919922-2.2220001c-9.4819336-16.9249573-19.7329102-27.5649261-27.2209167-35.3348846
			c-3.8209839-3.9649811-6.8389587-7.0979919-8.8269653-10.0849762c-3.4200134-5.1609802-1.9379883-12.3889618-0.95401-17.1729584
			c0.0969849-0.4689941,0.2090149-1.0149994,0.3059998-1.5200043c-1.8930054-0.4649811-5.6539612-0.5009918-9.1709595,0.2089996
			c-1.4230042,0.2910004-2.8970032-0.1529999-3.9330139-1.1829834c-1.0279846-1.0240021-1.4759827-2.4960022-1.1919556-3.9199982
			c0.9009705-4.5579834,3.0689697-8.2089691,4.8129578-11.1449585c0.5209961-0.8809967,1.177002-1.9839935,1.571991-2.7960052
			c-3.0180054-1.3760071-11.7039795-2.5639801-20.0919495-2.6609802c-1.3710022-0.0149994-2.6600037-0.6779938-3.4639893-1.7900009
			c-0.8049927-1.1100006-1.0429993-2.5359955-0.6340027-3.8479919c0.4700012-1.4949951,11.8009644-36.9798813,44.2288818-66.3698044
			c18.1769409-16.4939499,33.5458984-23.7099304,47.020874-22.0099373c2.3850098,0.2980003,4.0679932,2.4679909,3.7700195,4.8499832
			C551.6203613,42.5488434,549.4683838,44.2508392,547.0683594,43.9378395z"/>
		<path class="st0" d="M603.932251,590.9971924c-4.9990234-3.4719849-10.4370117-5.2290039-16.1660156-5.2290039
			c-16.3209229,0-31.7718506,14.0869751-35.9438477,32.763916c-0.3129883,1.3930054-1.2880249,2.539978-2.6069946,3.0759888
			c-1.3250122,0.5289917-2.822998,0.3950195-4.0150146-0.3950195l-8.0089111-5.2520142
			c-1.5570068-1.0209961-2.2869873-2.9279785-1.8170166-4.7299805
			c15.322937-58.6207886-15.0859375-119.0446167-34.2909241-153.2615356
			c-1.1690063,0.0820007-2.3389893,0.1570129-3.5310059,0.1570129c-0.0069885,0-0.0220032,0-0.0289917,0
			c-23.0639038,0-42.1428833-15.3539429-44.8018494-35.0958862c-10.5939636,0.3280029-40.4888916,1.0799561-92.8547363,1.0799561
			c-51.8458557,0-80.2697754-0.7149658-90.5047607-1.0429688c-1.1849976,8.9699707-5.7509766,17.2389526-13.144928,23.6679077
			c-8.4889832,7.375-19.72995,11.434967-31.6539154,11.434967c-0.0299988,0-0.0480042,0-0.0709991,0
			c-1.9479828,0-3.8619843-0.1480103-5.7619781-0.3569946c-20.0689392,33.8518982-49.7038422,105.3967285-34.1748962,153.1795654
			c0.6069946,1.8619995-0.1119995,3.8959961-1.746994,4.9689941l-8.0049744,5.2520142
			c-1.1950073,0.7890015-2.6999969,0.9240112-4.0149841,0.3950195c-1.3220062-0.5360107-2.2980042-1.684021-2.6069946-3.0759888
			c-4.1719818-18.6769409-19.621933-32.763916-35.9478912-32.763916c-5.7249832,0-11.1629715,1.7579956-16.1619568,5.2290039
			c-13.4429626,9.3190308-13.5509644,27.9059448-11.2749634,41.8588867
			c5.8139801,35.6088867,30.8968964,71.9558105,47.3528595,76.737793c3.7989807,1.1029663,7.6849823,1.6399536,11.8819733,1.6399536
			c9.6659698,0,19.3349304-2.9359131,28.684906-5.7669678c4.3500061-1.3179932,8.8539886-2.6820068,13.2449646-3.710022
			c0.5480042-0.1270142,1.0950012-0.2979736,1.7429962-0.4910278c2.0219879-0.6040039,5.0769806-1.5269775,11.151947-2.5250244
			c9.6209869-2.1900024,22.124939-4.8569946,36.3468933-7.4790039
			c-16.8439331-43.2749023-27.7239075-124.0806274-28.3269043-144.864563
			c-0.0709991-2.3989868,1.8169861-4.4029541,4.2159882-4.4699097c2.503006-0.0159912,4.3989868,1.8169556,4.469986,4.2159424
			c0.4920044,16.8439941,7.8329773,73.8338013,19.6409454,116.9376831c10.3959808-3.375,37.6758881-10.9290161,69.3217926-9.6779785
			c-1.0090027-39.2808838-5.9969788-95.4517212-9.460968-117.2786255c-0.3760071-2.3690186,1.2399902-4.5969849,3.6090088-4.9689941
			c2.4059753-0.3800049,4.5999756,1.2440186,4.9729614,3.6049805
			c4.4429932,28.0029297,11.3489685,112.0637207,9.3939819,146.3175659
			c9.0879822-0.6040039,18.1359253-0.9689941,26.9599304-0.9689941c8.8009644,0,17.8589478,0.3649902,26.9629211,0.9760132
			c-1.9599915-34.2608643,4.9460144-118.3216553,9.3939819-146.324585c0.3720093-2.3610229,2.5849915-3.9849854,4.9689941-3.6049805
			c2.3689575,0.3720093,3.9849548,2.5999756,3.6129761,4.9689941c-3.4639587,21.8199463-8.4479675,77.9977417-9.460968,117.2786255
			c31.6459045-1.2509766,58.9268494,6.3099976,69.3178101,9.6779785
			c11.8079529-43.1038818,19.1529541-100.093689,19.644928-116.9376831c0.0669861-2.3980103,2.0419617-4.230957,4.4699707-4.2159424
			c2.3989868,0.065979,4.2839966,2.0699463,4.2170105,4.4699097c-0.6040039,20.7839355-11.486969,101.626709-28.3379211,144.8945923
			c14.2209473,2.6149902,26.7658997,5.2819824,36.4728699,7.4790039c5.8929749,0.9539795,8.9779663,1.8779907,11.0189514,2.4959717
			c0.6550293,0.1929932,1.2069702,0.3640137,1.75,0.4910278c4.4030151,1.0280151,8.9019165,2.3920288,13.2529297,3.710022
			c9.3499756,2.8309937,19.0199585,5.7669678,28.6879272,5.7669678c4.1939697,0,8.0829468-0.5369873,11.8829346-1.6399536
			c16.4559937-4.7819824,41.5388794-41.1289673,47.3498535-76.737793
			C617.4821777,618.9031372,617.3712158,600.3162231,603.932251,590.9971924z"/>
	</g>
	<path id="light_blue_00000069371621516248821360000008628167207476626363_" class="st1" d="M523.7144775,397.2478027
		c-0.9530029-0.8640137-1.4969482-2.0859985-1.4969482-3.3739929c0-1.2890015,0.5439453-2.5189819,1.4969482-3.3829651
		c6.3540039-5.7430115,9.8560181-13.2189636,9.848999-21.0449524c0-16.9329834-16.1659546-30.7069092-36.033905-30.7069092
		c-9.742981,0-18.868927,3.2739563-25.7079163,9.2209778c-6.6520081,5.7879639-10.3179626,13.427948-10.3179626,21.5089417
		c0,1.2109985-0.4769897,2.3689575-1.3330078,3.2259827c-0.8500061,0.8540039-2.0119934,1.3340149-3.2179871,1.3340149
		l-30.0819092,0.0069885c-0.0969849,0-0.1789856-0.052002-0.2749939-0.0559998l-0.0079956,0.0039978
		c-3.0759888,2.026001-6.5479736,3.6799927-10.4139709,4.95401c-0.3129883,0.1040039-0.6340027,0.1929932-0.9460144,0.2900085
		c-1.5419922,0.4769897-3.1439819,0.894989-4.8059692,1.2520142c-0.4909973,0.1069946-0.9760132,0.223999-1.4750061,0.3200073
		c-2.0329895,0.3869934-4.118988,0.7189941-6.3169556,0.9379883c-1.8699951,0.1870117-3.7019958,0.2749939-5.4979858,0.2749939
		c-16.7309265,0-29.8648987-7.8070068-37.2018738-17.0289612c-6.9169922,8.6929626-19.0299683,16.0419617-34.4019165,16.8649597
		c-0.9240112,0.1040039-1.855011,0.1640015-2.7969971,0.1640015c-1.7919922,0-3.6209717-0.0889893-5.4939575-0.2749939
		c-2.1940002-0.2160034-4.276001-0.552002-6.302002-0.9379883c-0.4960022-0.0939941-0.9719849-0.2090149-1.4599915-0.3129883
		c-1.6459656-0.3569946-3.2329712-0.7669983-4.7639771-1.2359924c-0.3240051-0.1040039-0.6589966-0.196991-0.9760132-0.302002
		c-3.8439941-1.2630005-7.2999573-2.901001-10.3659668-4.9049988h-28.263916c-2.5140076,0-4.5559998-2.0379944-4.5559998-4.5519714
		c-0.0029907-8.07901-3.6719666-15.710968-10.3289642-21.4899292c-6.8349762-5.9360046-15.9609528-9.2019653-25.6899261-9.2019653
		c-0.0110016,0-0.0189972,0-0.0299988,0c-9.7409668,0.0029907-18.8659363,3.2779846-25.7009277,9.2229614
		c-6.6529846,5.7859802-10.3139648,13.421936-10.3109741,21.4989319c0,7.8339844,3.4980011,15.3099365,9.8519745,21.052948
		c0.9579926,0.8640137,1.5010071,2.0939636,1.5010071,3.3829651c0,1.2879944-0.5480042,2.5180054-1.5050049,3.3819885
		c-6.3469696,5.7219543-9.8409729,13.1999817-9.8409729,21.0449524c0,8.0749817,3.6659851,15.703949,10.3219757,21.4839478
		c6.8279877,5.9309692,15.9499512,9.1929626,25.6789246,9.1929626c0.0220032,0,0.0370026,0,0.0599976,0
		c9.736969,0,18.85495-3.2630005,25.6829224-9.1999817c6.6560059-5.7879639,10.3209839-13.4169617,10.3209839-21.499939
		c0-1.243988,0.5069885-2.4360046,1.4039917-3.2929993c0.8980103-0.8630066,2.1459961-1.303009,3.348999-1.2590027
		c0.276001,0.0079956,28.0479126,1.1919861,94.5537415,1.1919861c66.5197754,0,96.6087036-1.2149963,96.9066772-1.2219849
		c1.1329956-0.053009,2.4440002,0.4020081,3.3380127,1.2590027c0.901001,0.8640137,1.4079895,2.0490112,1.4079895,3.2850037
		c0.0150146,16.9329529,16.1579285,30.6918945,36.0038757,30.6918945c0.0069885,0,0.0220032,0,0.0289917,0
		c19.8679504-0.0069885,36.033905-13.7809753,36.033905-30.7069092
		C533.5774536,410.4787598,530.0764771,402.9987793,523.7144775,397.2478027z"/>
	<g id="white_00000041989363849758092500000013034399923014865811_">
		<path class="st2" d="M256.18927,341.1189575c7.4419556,6.4620056,12.019928,14.789978,13.177948,23.8129272h14.43396
			c-8.3139648-11.6809692-6.7269592-24.8369141-6.6529541-25.4118958c0.3200073-2.4339905,2.5249634-4.131012,4.9879761-3.8269958
			c2.4320068,0.3200073,4.1459961,2.553009,3.8250122,4.9849548c-0.0109863,0.0929871-1.2850037,11.2489624,5.9189758,20.2559814
			c5.3900146,6.7399597,14.21698,10.7629395,26.2369385,11.9619446c18.545929,1.8580017,32.237915-7.5839844,37.4378662-17.3389282
			v-13.3809814c-8.9689636-4.184967-28.8969116-14.5859375-33.2958984-26.4299011
			c-1.3110046-3.54599-1.1690063-6.9649658,0.4320068-10.1609802c9.1109619-18.2589417,35.1989136-18.749939,37.1729126-18.7729492
			h0.0079956c0.0069885,0,0.0440063,0,0.0599976,0c0.0150146,0,0.052002,0,0.0599976,0h0.0079651
			c1.9749756,0.0220032,28.0649109,0.5140076,37.1758728,18.7729492c1.6019897,3.1960144,1.7430115,6.6149597,0.4249878,10.1609802
			c-4.3729858,11.7879639-24.1289368,22.1419373-33.1578979,26.3659058v13.684967
			c5.2890015,9.6679688,18.9299316,18.9379272,37.2998962,17.098938
			c12.0759277-1.2069702,20.9269409-5.2599792,26.3128967-12.0479431c7.210968-9.0960083,5.861969-20.059967,5.8479614-20.1699829
			c-0.3199768-2.4319763,1.3940125-4.664978,3.82901-4.9849548c2.4140015-0.3039856,4.6640015,1.3930054,4.9840088,3.8269958
			c0.0740051,0.5750122,1.6609802,13.723938-6.6459961,25.4049072l16.611969-0.0079956
			c1.1329956-8.8799744,5.5879822-17.0819397,12.8129272-23.5049438c-0.052002-0.0069885-0.0969849-0.0090027-0.1480103-0.0169983
			c-9.9599609-1.4979553-18.2669373-19.3019409-35.9808655-38.7078857
			c-17.9089355-19.6219482-37.0848999-22.743927-41.9638672-30.9829102
			c-3.2409973-5.4759827-2.9049988-7.5909729-3.6279907-20.4339447c-1.9889832-35.3188934,0.9830017-63.2918243,4.6929932-89.564743
			c4.8269653-34.2368927,10.6459656-50.385849,13.7289734-57.0378189
			c-15.7639771-3.1959915-28.3979492-3.7029953-42.2008667-3.5049896c-1.8850098-0.026001-3.6239929-0.0410004-5.3559875-0.0410004
			c-11.8669739,0-23.2429504,0.7539978-36.9728699,3.5419922c3.0839844,6.652977,8.9019775,22.7999344,13.7409363,57.041832
			c3.7030029,26.2729187,6.6749878,54.2458496,4.6860046,89.564743
			c-0.7229919,12.8429565-0.3880005,14.9579773-3.6279907,20.4339294
			c-4.8789673,8.2389832-24.0469055,11.3609619-41.9638672,30.9829102
			c-16.802948,18.4039307-25.1429138,35.3428955-34.4548645,38.3208618
			C256.096283,341.0459595,256.1452637,341.0799561,256.18927,341.1189575z"/>
		<path class="st2" d="M188.8824615,393.9478149c-6.1609802-6.9659729-9.5059662-15.4879456-9.5059662-24.4239197
			c-0.0070038-10.7549744,4.7679901-20.8329468,13.4429474-28.3769531c3.5350037-3.0749817,7.568985-5.5389709,11.911972-7.4099731
			c-17.4429626-6.6029663-33.9928894-13.3259583-58.7438354-5.0699768c0.3170013,0.8869934,0.3800049,1.8569641,0.0820007,2.7859802
			c-0.0709991,0.2200012-6.2059631,19.5949402-3.1589813,38.3128967l2.1380005-2.0929871
			c1.0209808-1.006012,2.4689789-1.4450073,3.8809814-1.1589966c1.4080048,0.2789917,2.5849915,1.2330017,3.1509857,2.5440063
			c6.5219879,15.1829529,16.8659515,28.486908,28.542923,40.0948792
			C182.1074677,403.632782,184.8934784,398.4627991,188.8824615,393.9478149z"/>
		<path class="st2" d="M573.7913208,331.4589844c-0.3060303-0.9330139-0.2390137-1.9049683,0.0809937-2.7929688
			c-24.1879272-8.0700073-40.539856-1.8269958-57.5477905,4.6239624
			c15.5249634,6.302002,26.3499146,20.1179504,26.3499146,36.1528931c0.007019,8.9369812-3.3380127,17.4579468-9.4990234,24.4319153
			c3.8140259,4.3129883,6.5410156,9.2229614,8.0759888,14.4589539
			c11.7629395-12.4259644,20.6349487-25.5439453,26.5348511-39.2738647c0.565979-1.3110046,1.742981-2.2650146,3.151001-2.5440063
			c1.3930054-0.2860107,2.8540039,0.1530151,3.8809814,1.1589966l2.1389771,2.0929871
			C580.0253296,351.0089111,573.8653564,331.6769714,573.7913208,331.4589844z"/>
		<path class="st2" d="M324.5290527,653.4020386c-31.6539001-1.2509766-58.9408264,6.3099976-69.3338013,9.6849976
			c3.2519836,11.8669434,6.8389893,22.690918,10.7159729,31.3258667c4.1719666,9.2600098,8.2499695,14.6459961,16.973938,16.3369141
			c-0.0150146-0.0599976-0.0299988-0.1190186-0.0450134-0.1790161c-0.3649902-1.5869141-0.6329956-3.1509399-0.8529968-4.723938
			c-0.4020081-3.15802-0.6820068-6.2800293-0.3129883-9.6619873c0.1260071-1.1539917,1.1619873-1.9890137,2.3129883-1.8619995
			c1.0130005,0.1110229,1.7770081,0.9240112,1.8619995,1.8989868l0.0109863,0.1119995
			c0.2349854,2.6300049,1.0360107,5.460022,1.9590149,8.1430054c0.4729919,1.3480225,0.9909668,2.6820068,1.5639648,3.9400024
			c0.4989929,1.0880127,1.0799866,2.2279663,1.6019897,2.8829346c2.2869873-0.052002,4.7860107-0.2379761,7.5759888-0.5809937
			c2.6479797-0.3270264,5.0279541-0.7969971,7.210968-1.407959c0.1340027-0.7290039,0.2229919-1.6160278,0.2720032-2.4660034
			c0.0820007-1.3779907,0.0849915-2.809021,0.0409851-4.2310181c-0.1080017-2.8300171-0.3829956-5.7659912-1.098999-8.3129883
			l-0.0299988-0.1040039c-0.3129883-1.1170044,0.3389893-2.2709961,1.4530029-2.585022
			c0.9790039-0.2750244,1.9890137,0.1939697,2.4360046,1.0650024c1.5419617,3.0100098,2.4059753,6.0200195,3.1699829,9.1040039
			c0.3540039,1.4970093,0.6520081,3.0100098,0.8829956,4.565979c6.8349609-4.1270142,10.2209778-11.1220093,11.210968-22.1619263
			C324.7740479,676.756958,324.8490601,665.9330444,324.5290527,653.4020386z"/>
		<path class="st2" d="M395.4698486,653.4020386c-0.3200073,12.5300293-0.2449951,23.3619385,0.4169922,30.7889404
			c0.9909973,11.0409546,4.381012,18.0279541,11.2119751,22.1549683c0.2309875-1.5570068,0.5289917-3.0689697,0.8869934-4.565979
			c0.7600098-3.0839844,1.6239929-6.0939941,3.1659851-9.1040039c0.5289917-1.0349731,1.7950134-1.4450073,2.8229675-0.9160156
			c0.9089966,0.4619751,1.3340149,1.4890137,1.0650024,2.4359741l-0.0289917,0.1040039
			c-0.7160034,2.5479736-0.9909973,5.4829712-1.0960083,8.3129883c-0.0450134,1.4229736-0.0450134,2.8540039,0.0369873,4.2310181
			c0.053009,0.8499756,0.1419983,1.7360229,0.276001,2.4660034c2.1830139,0.6109619,4.5589905,1.0809326,7.2109985,1.407959
			c2.7859802,0.3430176,5.2809753,0.5289917,7.5679626,0.5889893c0.5209961-0.6560059,1.1029968-1.7959595,1.6090088-2.8909302
			c0.572998-1.2589722,1.0880127-2.5930176,1.5639954-3.9400024c0.9240112-2.6829834,1.7209778-5.5130005,1.9589844-8.1430054
			l0.0079956-0.1119995c0.1040039-1.1539917,1.125-2.0040283,2.2789917-1.8989868
			c1.0140076,0.0900269,1.7879944,0.8870239,1.8989868,1.8619995c0.3649902,3.382019,0.0899963,6.5040283-0.3129883,9.6619873
			c-0.223999,1.5720215-0.4909973,3.1370239-0.8559875,4.723938c-0.0150146,0.0599976-0.0299988,0.1259766-0.0450134,0.1859741
			c8.730957-1.6899414,12.8059692-7.0839233,16.9779663-16.3519287c3.881958-8.6339111,7.4649658-19.4509277,10.7129822-31.3178711
			C454.4187012,659.7120361,427.1227417,652.151062,395.4698486,653.4020386z"/>
		<path class="st2" d="M184.6034698,613.3311768c-0.253006,1.0510254-0.845993,2.0120239-1.7949982,2.6300049l-8.0049744,5.2520142
			c-1.1950073,0.7890015-2.6999969,0.9240112-4.0149841,0.3950195c-1.3220062-0.5360107-2.2980042-1.684021-2.6069946-3.0759888
			c-4.1719818-18.6769409-19.621933-32.763916-35.9478912-32.763916c-5.7249832,0-11.1629715,1.7579956-16.1619568,5.2290039
			c-13.4429626,9.3189697-13.5509644,27.9059448-11.2749634,41.8588867
			c5.8139801,35.6088867,30.8968964,71.9558105,47.3528595,76.737793c3.7989807,1.1029663,7.6849823,1.6399536,11.8819733,1.6399536
			c9.6659698,0,19.3349304-2.9359131,28.684906-5.7669678c4.3500061-1.3179932,8.8539886-2.6820068,13.2449646-3.710022
			c0.5480042-0.1270142,1.0950012-0.2979736,1.7429962-0.4910278c1.1589813-0.3430176,2.6819916-0.7979736,4.8909912-1.3120117
			c1.2029877-6.2949829,1.54599-19.3099365-4.7420044-44.7128906
			C201.2714233,628.6251221,190.5704651,617.6001587,184.6034698,613.3311768z"/>
		<path class="st2" d="M396.355835,534.760376c0.3720093-2.3610229,2.5849915-3.9849854,4.9689941-3.6049805
			c0.1040039,0.0150146,0.1789856,0.0819702,0.2829895,0.1040039c9.7289734-36.2498779,57.823822-61.5418091,85.0527344-74.3397827
			c-17.953949-3.93396-31.7138977-17.3509521-33.9398804-33.8888855
			c-10.5939636,0.3280029-40.4888611,1.0799561-92.8547363,1.0799561c-51.8458557,0-80.2697754-0.7149658-90.5047607-1.0429688
			c-1.1849976,8.9699707-5.7509766,17.2389526-13.144928,23.6679077
			c-5.5910034,4.8569946-12.384964,8.2389832-19.7709503,10.0119629
			c27.5449371,13.5289612,72.5667877,39.3939209,81.952774,74.5118103c0.0969849-0.0219727,0.1749878-0.0900269,0.276001-0.1040039
			c2.4059753-0.3800049,4.5999756,1.2440186,4.9729614,3.6049805C328.0940247,562.7792969,335,646.9060669,333.0370178,681.1229248
			c9.0849609-0.6040039,18.1439514-1.0139771,26.9639282-1.0139771c8.8009644,0,17.8589478,0.4169922,26.9629211,1.0280151
			C384.9958801,646.9141235,391.9088745,562.7783203,396.355835,534.760376z"/>
		<path class="st2" d="M514.029541,701.7579346c4.4030151,1.0280151,8.9019165,2.3920288,13.2529297,3.710022
			c9.3499756,2.8309937,19.0199585,5.7669678,28.6879272,5.7669678c4.1939697,0,8.0829468-0.5369873,11.8829346-1.6399536
			c16.4559937-4.7819824,41.5388794-41.1289673,47.3498535-76.737793
			c2.2789917-13.9529419,2.1680298-32.539856-11.2709351-41.8588867
			c-4.9990234-3.4719849-10.4370117-5.2290039-16.1660156-5.2290039c-16.3209229,0-31.7718506,14.0869751-35.9438477,32.763916
			c-0.3129883,1.3930054-1.2880249,2.539978-2.6069946,3.0759888c-1.3250122,0.5289917-2.822998,0.3950195-4.0150146-0.3950195
			l-8.0089111-5.2520142c-0.9459839-0.617981-1.5419922-1.5789795-1.7880249-2.6380005
			c-5.9749756,4.276001-16.671936,15.2939453-23.2579346,41.9188843
			c-6.2869568,25.4029541-5.9439697,38.4179077-4.7369995,44.7128906c2.1749878,0.507019,3.7099915,0.9609985,4.8720093,1.3120117
			C512.9354858,701.4598999,513.4865112,701.6309204,514.029541,701.7579346z"/>
	</g>
	<g id="pink_00000012450529927574209780000006202298975968906422_">
		<path class="st3" d="M186.1564789,212.0553436c0.0709991-0.4620056,0.1940002-0.9219971,0.4360046-1.3560028
			c10.0269775-17.9009552,20.7289429-29.0089111,28.5429077-37.1178894c3.519989-3.6499786,6.2989807-6.5329895,7.8479919-8.864975
			c1.4189911-2.1439972,0.3350067-7.4489899-0.3159943-10.6189728c-0.7599945-3.7209778-1.3119965-6.4109802,0.625-8.5689697
			c2.6559906-2.947998,7.0919647-3.7460022,11.0479584-3.7619934c-0.477005-0.8789978-0.9789886-1.7269897-1.4639893-2.5369873
			c-1.7019958-2.8739929-3.3150024-5.5849915-3.1060028-8.5619812c0.1490021-2.2089844,0.5809937-8.5969696,22.8669434-9.8239594
			c-4.4099884-10.8449707-16.381958-35.9129028-39.7328796-57.0788345
			c-16.1909485-14.6899567-29.3029175-21.1659393-40.1078949-19.8269424
			c-0.6000061,0.0789986-1.1849976,0.0279999-1.7289886-0.1279984c-0.0299988-0.007-0.052002-0.0299988-0.0820007-0.0390015
			c-0.5140076-0.1580009-0.9940033-0.397995-1.4120026-0.7279968c-0.0630035,0.0410004-0.1380005,0.0760002-0.201004,0.1170006
			c0,0-18.921936,10.5629692-14.5709534,75.33078c3.3669891,49.8528595,22.5829163,81.8937531,31.2769012,94.0457306
			c0,0,0-0.0019989,0-0.0039978C186.0894775,212.3693542,186.1264801,212.2173462,186.1564789,212.0553436z"/>
		<path class="st3" d="M550.503418,43.1598434c-0.0670166-0.0410004-0.1420288-0.0760002-0.2009888-0.1170006
			c-0.8790283,0.6939964-2.026001,1.053997-3.2329712,0.8959961c-10.7709351-1.3389969-23.9129639,5.1369858-40.1008911,19.825943
			c-23.3539124,21.1659355-35.3258667,46.2358665-39.7358704,57.0808372
			c22.2809448,1.2279892,22.7139282,7.6149826,22.8699341,9.8299637c0.2009888,2.970993-1.4079895,5.6829834-3.1140137,8.5559845
			c-0.4840088,0.8099976-0.9830017,1.6579895-1.4599609,2.5369873c3.9559631,0.0149994,8.3889771,0.8099976,11.0479431,3.7539978
			c1.9440002,2.1659851,1.3940125,4.8549805,0.6260071,8.5789642c-0.6480103,3.1689911-1.7359619,8.4759674-0.3129883,10.6209717
			c1.5419922,2.3279877,4.3210144,5.2109833,7.8450012,8.8609619c7.8139648,8.1089783,18.5128784,19.2159424,28.539917,37.1178894
			c0.289978,0.5140076,0.4539795,1.0599976,0.5209961,1.6089935c6.3610229-8.0979767,27.5629272-38.8738861,31.2728882-93.8187332
			C569.418335,53.7228127,550.503418,43.1598434,550.503418,43.1598434z"/>
		<g>
			<g>
				<g>
					<path class="st3" d="M587.1032715,619.6341553c-11.2039185-3.3460083-22.4449463,11.6729126-21.4839478,17.4539185
						c0.8499756,5.2369995,5.6030273,6.7789917,8.9169922,6.3540039c3.6950073-0.4539795,4.723999-0.4769897,6.0869751-0.1190186
						c1.348999,0.3280029,2.2119751,0.8709717,5.1769409,3.0620117c2.6459961,1.9749146,7.5689697,2.9129639,11.03302-1.2139893
						C600.6092529,640.6641235,598.3452759,623.0671387,587.1032715,619.6341553z"/>
				</g>
				<g>
					<path class="st3" d="M585.5462646,600.7192383c-1.6159668,5.5869141-0.5280151,9.4459229,3.6359863,10.5779419
						c3.8439941,1.0280151,6.7940063-1.5050049,8.3809814-7.0769653c1.6610107-5.6019897-0.3280029-9.6619873-3.6359863-10.6229858
						C590.604248,592.6132202,587.1702881,595.0952148,585.5462646,600.7192383z"/>
				</g>
				<g>
					<path class="st3" d="M600.8252563,614.6641846c-1.5570068,5.5949707-0.5960083,9.4390259,3.2329712,10.5339966
						c3.5679321,0.9829712,6.3169556-1.5789795,7.8289185-7.151001c1.6019897-5.6170044-0.1870117-9.6469727-3.2479858-10.5709839
						C605.578186,606.5221558,602.3822632,609.0481567,600.8252563,614.6641846z"/>
				</g>
				<g>
					<path class="st3" d="M565.3203125,607.4451294c-0.9910278,5.7219849,0.6859741,9.3640137,5.1779785,9.901001
						c4.2160034,0.4689941,6.9199829-2.4140015,7.9110107-8.1279907c0.9829712-5.7429199-1.6090088-9.4759521-5.2369995-9.9379272
						C569.5663452,598.8052368,566.2893066,601.7391968,565.3203125,607.4451294z"/>
				</g>
			</g>
		</g>
		<g>
			<path class="st3" d="M132.8986206,619.6341553c11.2039642-3.3460083,22.4419403,11.6729126,21.4849396,17.4539185
				c-0.8500061,5.2369995-5.6059875,6.7789917-8.92099,6.3540039c-3.6949921-0.4539795-4.7229919-0.4769897-6.082962-0.1190186
				c-1.3480072,0.3280029-2.2120056,0.8709717-5.1769867,3.0620117c-2.6450043,1.9749146-7.5729828,2.9129639-11.0329666-1.2139893
				C119.392662,640.6641235,121.6576538,623.0671387,132.8986206,619.6341553z"/>
			<path class="st3" d="M134.4526215,600.7192383c1.6199799,5.5869141,0.5289917,9.4459229-3.6320038,10.5779419
				c-3.8479843,1.0280151-6.7939758-1.5050049-8.3809662-7.0769653c-1.6610031-5.6019897,0.3239975-9.6619873,3.6359863-10.6229858
				C129.397644,592.6132202,132.8286285,595.0952148,134.4526215,600.7192383z"/>
			<path class="st3" d="M119.1766663,614.6641846c1.5569916,5.5949707,0.5920029,9.4390259-3.2369919,10.5339966
				c-3.5679855,0.9829712-6.3129807-1.5789795-7.8299789-7.151001c-1.6019897-5.6170044,0.1900024-9.6469727,3.2509918-10.5709839
				C114.4196777,606.5221558,117.6196747,609.0481567,119.1766663,614.6641846z"/>
			<path class="st3" d="M154.6815643,607.4451294c0.9909973,5.7219849-0.6889954,9.3640137-5.1779785,9.901001
				c-4.2159882,0.4689941-6.9199829-2.4140015-7.9109802-8.1279907c-0.9830017-5.7429199,1.6049957-9.4759521,5.2329865-9.9379272
				C150.4355774,598.8052368,153.7095642,601.7391968,154.6815643,607.4451294z"/>
		</g>
	</g>
</g>
</svg>
