<svg version="1.1" id="Layer_1" xmlns="http://www.w3.org/2000/svg" xmlns:xlink="http://www.w3.org/1999/xlink" x="0px" y="0px"
	 width="100%" viewBox="0 0 1024 1024" enable-background="new 0 0 1024 1024" xml:space="preserve">
<path fill="#000000" opacity="1.000000" stroke="none" 
	d="
M796.190735,504.070190 
	C789.961487,522.845581 782.705750,540.834351 776.267517,559.100952 
	C770.647522,575.045959 763.382080,590.384460 759.110596,606.855591 
	C757.428528,613.341614 753.813904,619.372742 750.731201,625.434021 
	C748.456360,629.906799 746.104065,634.360291 745.023743,639.238953 
	C742.421509,650.990540 735.569946,661.084290 732.388245,672.607239 
	C728.549011,686.511780 722.433838,699.637878 717.393677,713.098694 
	C713.181641,724.347778 710.358643,736.253174 704.242188,746.825195 
	C702.702271,749.486816 701.702576,752.681030 701.301758,755.741516 
	C699.920654,766.285950 687.533386,768.984131 678.732788,763.232544 
	C658.284302,749.868530 637.618225,736.804321 617.637024,722.769104 
	C602.415955,712.077515 586.189514,702.963928 571.181824,691.963806 
	C565.308350,687.658630 558.729431,684.308716 552.429932,680.594849 
	C548.948608,678.542358 546.179443,677.932678 542.522278,681.563721 
	C527.198486,696.778320 511.079315,711.195496 495.848572,726.499023 
	C477.104218,745.332886 458.255493,764.032715 438.366638,781.662048 
	C430.434082,788.693420 421.588257,786.396301 418.743530,776.232727 
	C411.932098,751.896851 405.486603,727.458740 398.718353,703.110596 
	C392.984650,682.484009 386.950226,661.941223 381.150696,641.332764 
	C375.436279,621.026855 369.118317,600.907898 362.738739,580.805481 
	C361.928589,578.252625 360.024170,577.196411 357.836609,576.244751 
	C338.016327,567.621643 319.263947,556.831421 299.732330,547.576782 
	C282.098816,539.221497 264.339508,531.088501 246.843307,522.456421 
	C234.709503,516.470093 222.417542,510.911407 209.954849,505.744568 
	C196.910324,500.336456 183.743378,495.192047 171.077332,488.963318 
	C162.149796,484.573059 153.748428,479.167114 145.753830,473.172272 
	C142.349304,470.619324 140.724289,467.561768 141.635849,463.292969 
	C142.558823,458.970612 145.265152,455.888489 149.293259,454.832367 
	C156.111404,453.044800 162.461823,450.234650 168.701523,447.145233 
	C177.480530,442.798492 186.708115,439.568939 195.720139,435.804016 
	C205.497070,431.719574 215.029938,427.008179 224.941772,423.298340 
	C244.960159,415.805817 264.853302,407.986206 285.000946,400.817627 
	C301.628906,394.901337 318.578033,390.006958 334.894653,382.968384 
	C348.384644,377.149139 362.063477,371.350616 376.348907,367.285004 
	C385.074860,364.801575 393.487762,361.163879 401.943115,357.798096 
	C411.638062,353.938812 422.120087,352.434021 431.650146,348.434418 
	C441.811523,344.169769 452.378326,341.325165 462.679596,337.611084 
	C477.023071,332.439575 491.418793,327.410980 505.827820,322.424194 
	C513.701172,319.699341 520.822021,315.333954 528.683838,312.486969 
	C536.505005,309.654602 544.221008,306.510681 552.304993,304.561249 
	C557.879395,303.217010 562.730225,300.245819 568.101501,298.466461 
	C579.737183,294.611847 591.455627,290.902527 602.797607,286.291016 
	C619.877502,279.346649 637.030334,272.632019 654.441895,266.577759 
	C663.217346,263.526398 672.184814,260.961212 680.775757,257.464386 
	C689.227295,254.024307 697.704468,250.740402 706.263428,247.566895 
	C727.132202,239.829178 748.019470,232.211212 769.394958,225.997849 
	C782.947449,222.058456 795.857910,216.301697 809.238953,211.970383 
	C822.663513,207.624985 835.749207,202.314560 849.318237,198.365433 
	C853.630127,197.110504 858.020325,195.324554 862.051758,193.337524 
	C866.553955,191.118454 871.586182,190.670898 875.935486,188.028748 
	C878.538513,186.447449 882.184082,187.403015 885.181335,187.304535 
	C888.788025,187.186020 892.031860,186.544373 895.215698,185.339706 
	C901.189697,183.079315 906.937439,183.488907 912.974121,186.356445 
	C914.669678,194.069977 913.615173,201.414154 908.533508,208.258972 
	C906.515442,210.977188 905.980469,214.641602 904.423218,217.773865 
	C899.161499,228.356979 896.328430,239.892578 891.905396,250.788437 
	C889.862122,255.821915 887.383057,260.745911 885.435547,265.857330 
	C878.593140,283.816162 871.737366,301.777039 864.923096,319.738312 
	C858.283875,337.238098 852.881348,355.181274 845.786133,372.451874 
	C841.179749,383.664276 837.480286,395.195068 832.720703,406.357391 
	C826.756042,420.346039 822.287537,434.966675 816.971619,449.239441 
	C810.195618,467.432251 803.217712,485.549927 796.190735,504.070190 
M822.365356,370.989685 
	C825.582214,362.999878 828.780334,355.002472 832.020386,347.022064 
	C836.753479,335.364136 839.512268,323.040405 844.698486,311.488556 
	C850.837341,297.815063 855.288086,283.401978 860.946899,269.542542 
	C866.627991,255.628357 872.349060,241.784439 876.698486,227.363144 
	C874.770142,228.635605 872.937927,229.989914 871.212036,231.589951 
	C863.042847,239.163483 855.024780,246.939865 846.422058,253.996902 
	C832.040649,265.794403 818.329468,278.342987 804.466370,290.711670 
	C785.138550,307.956116 766.393250,325.852936 747.083191,343.117798 
	C735.070496,353.858215 722.753601,364.293518 710.776062,375.053589 
	C687.521057,395.944733 663.231873,415.658356 640.549500,437.199799 
	C631.031555,446.238983 620.533447,454.255707 611.134827,463.408722 
	C598.508240,475.705292 585.381226,487.463745 572.612549,499.601013 
	C558.783081,512.746521 545.175354,526.137024 531.138306,539.074280 
	C518.536072,550.689087 506.249786,562.652344 493.993866,574.635498 
	C485.349670,583.087341 476.314117,591.197937 468.103851,601.896851 
	C539.647034,648.010376 613.977539,688.866699 682.978882,738.780273 
	C686.468079,732.395874 688.517334,726.287781 690.232971,720.403564 
	C695.125122,703.625366 703.338379,688.175903 708.669617,671.609070 
	C711.471069,662.903625 716.014099,654.867920 719.244019,646.368103 
	C722.890930,636.771179 726.783081,627.283386 730.583130,617.753113 
	C734.320618,608.379944 737.969421,598.971313 741.632080,589.568481 
	C745.299438,580.153442 748.296997,570.471069 751.889832,561.069946 
	C755.892395,550.596741 760.831177,540.470398 764.532654,529.814148 
	C771.132202,510.814270 778.065186,491.927734 785.061646,473.069061 
	C789.736633,460.468079 795.371338,448.207489 799.030090,435.250214 
	C801.346008,427.048126 805.622009,419.681366 808.258667,411.618591 
	C812.634033,398.238861 817.419739,384.993317 822.365356,370.989685 
M616.531982,304.999908 
	C609.008728,308.500244 601.099365,310.969391 593.315308,313.785248 
	C576.668457,319.807190 560.226440,326.428833 543.437012,332.012695 
	C529.734131,336.570038 516.520020,342.319916 502.965973,347.204437 
	C486.727570,353.056366 470.484589,358.909698 454.114960,364.377411 
	C446.301270,366.987305 438.370911,369.522552 430.723877,372.364594 
	C420.208344,376.272675 409.290466,378.954834 398.956360,383.366119 
	C378.326263,392.172333 356.529999,397.821503 335.816833,406.418823 
	C325.814575,410.570435 315.151703,412.694000 305.059113,416.532928 
	C289.999969,422.260986 275.205292,428.762024 259.932861,433.834625 
	C233.138443,442.734161 207.522858,454.539856 181.221603,464.635406 
	C180.190811,465.031097 179.691406,465.845551 179.800491,467.438721 
	C191.734116,473.071350 203.729279,479.101868 216.025345,484.439178 
	C230.008850,490.508972 244.247345,495.993958 258.402466,501.664581 
	C265.661316,504.572510 272.169739,509.105804 279.369629,511.929474 
	C288.962677,515.691711 298.417297,519.854431 307.138580,525.089661 
	C315.424866,530.063782 324.018402,534.322998 332.590851,538.632996 
	C344.093048,544.416016 355.919891,549.552551 367.594879,554.993408 
	C369.963165,556.097107 371.914856,556.577271 374.427063,554.636841 
	C390.454651,542.257263 406.979675,530.540283 422.904907,518.010437 
	C435.020203,508.478241 447.409393,499.257446 460.069641,490.463806 
	C476.137360,479.303314 491.029907,466.558777 507.697266,456.181824 
	C518.800415,449.269135 528.783386,440.637909 539.347595,432.881866 
	C559.555237,418.045776 580.208130,403.848206 600.542542,389.198822 
	C621.527039,374.081055 642.672974,359.187347 663.750610,344.198883 
	C678.381287,333.794922 692.680359,322.879944 707.721558,313.107452 
	C735.612305,294.986481 762.401550,275.263123 790.293518,257.151001 
	C805.080688,247.548706 819.825928,237.895996 834.939697,228.809952 
	C838.071350,226.927261 841.596985,225.403900 843.581360,221.875092 
	C768.436829,250.453888 692.514893,276.674469 616.531982,304.999908 
M450.592072,524.121582 
	C428.595764,539.618896 407.586884,556.421936 386.259918,572.803894 
	C385.004028,573.768616 383.379730,574.606384 384.062439,576.800110 
	C385.096802,580.123840 385.867340,583.531372 386.949768,586.837952 
	C390.513458,597.724487 394.320648,608.533630 397.736084,619.465637 
	C400.352509,627.840210 401.955109,636.565002 405.004425,644.763611 
	C410.807800,660.366943 415.121002,676.389648 419.531250,692.391235 
	C422.902496,704.623230 425.895416,716.959595 429.280182,730.118774 
	C429.844330,728.562866 430.238190,727.859253 430.349091,727.113525 
	C432.156616,714.961975 434.259644,702.785217 435.279175,690.602539 
	C437.525238,663.762939 440.521576,636.997559 442.736908,610.158325 
	C443.316528,603.136536 444.227234,596.576477 450.130585,590.869202 
	C463.514099,577.930420 476.151642,564.202637 489.711121,551.424133 
	C511.853516,530.557190 534.179382,509.885132 556.379395,489.079071 
	C558.763367,486.844818 561.866150,485.008820 562.673889,481.567505 
	C566.013428,467.340668 569.232178,453.085266 572.424561,438.824493 
	C572.728516,437.466644 573.340637,435.871674 571.043884,434.054474 
	C531.415527,464.131439 490.551086,492.912994 450.592072,524.121582 
M475.764435,683.429626 
	C479.850769,670.991699 484.474426,658.777100 486.144867,645.576843 
	C486.856323,639.954773 483.658966,638.486206 480.446533,637.435730 
	C476.355164,636.097839 476.370789,640.564453 475.877075,642.851685 
	C473.278320,654.890442 469.165283,666.488464 465.811951,678.299744 
	C461.560028,693.276062 456.463409,708.010498 451.997986,722.929138 
	C450.131866,729.163757 448.952545,735.603882 447.279144,742.723999 
	C452.206329,740.805420 454.211914,736.798645 457.673889,734.629700 
	C460.733215,732.713196 462.216156,729.819580 463.333038,726.259460 
	C467.706116,712.319885 470.481506,697.921509 475.764435,683.429626 
M575.202148,462.435913 
	C574.863770,464.455780 573.085083,466.881561 575.400269,468.363708 
	C577.701050,469.836670 579.245850,467.419739 580.857422,466.077209 
	C583.152832,464.164825 585.384399,462.162109 587.792480,460.402039 
	C590.739136,458.248291 592.423828,455.631348 593.259460,451.930420 
	C595.633911,441.414154 595.143005,430.454163 598.427490,420.091125 
	C598.921204,418.533447 598.471741,416.793549 596.424011,415.433746 
	C593.491272,417.551086 590.480103,419.814789 587.374146,421.939880 
	C584.761475,423.727448 582.872620,426.088715 582.531067,429.176483 
	C581.304382,440.265808 577.177917,450.691132 575.202148,462.435913 
M501.547394,652.599670 
	C501.496765,648.374573 498.164551,647.929138 494.553192,646.523132 
	C488.500244,670.540344 479.104736,693.207764 474.090149,717.509216 
	C480.417236,714.569641 486.321136,707.993408 487.896332,702.303589 
	C492.412262,685.991272 496.896149,669.670044 501.547394,652.599670 
M615.727295,427.423187 
	C617.858398,417.952942 619.989502,408.482727 622.386108,397.832703 
	C617.135315,401.225098 612.849854,403.908173 608.686096,406.768341 
	C607.992065,407.245056 607.624084,408.454102 607.449097,409.389038 
	C605.623718,419.142548 604.825867,429.066010 602.472290,438.743225 
	C602.003296,440.671722 601.648621,443.011078 603.549561,445.396820 
	C610.471191,441.643372 615.003418,436.402008 615.727295,427.423187 
M641.223450,383.745056 
	C639.435242,384.959717 637.560547,386.066681 635.879883,387.415466 
	C633.615784,389.232483 630.888123,390.473022 630.247742,393.985535 
	C628.912903,401.307159 626.987915,408.520142 625.604614,415.834381 
	C625.040894,418.815033 623.301147,421.700073 624.293213,425.302826 
	C628.452332,424.031769 631.184875,421.039764 634.167664,418.566132 
	C636.151306,416.921143 639.007996,415.662018 639.425049,412.811432 
	C640.747437,403.773254 642.439209,394.858978 645.403687,386.175140 
	C646.342896,383.424133 645.376160,381.291962 641.223450,383.745056 
M741.106812,324.588654 
	C756.886841,310.706421 773.067749,297.265381 788.392517,282.320160 
	C786.646179,281.920074 785.922180,282.702972 785.139648,283.240601 
	C775.960022,289.547455 766.802307,295.886353 757.620667,302.190247 
	C751.594177,306.327942 745.578064,310.482635 739.484497,314.519928 
	C732.873962,318.899811 731.958252,325.809082 730.122192,333.625000 
	C734.993347,331.104645 737.377258,327.584808 741.106812,324.588654 
M453.252960,685.627625 
	C453.320862,686.214417 453.388733,686.801208 453.461212,687.427612 
	C454.827057,687.144348 454.732086,686.151978 454.939606,685.433655 
	C459.731384,668.846497 464.583130,652.275818 469.220581,635.645386 
	C470.840332,629.836914 467.956848,626.398865 460.812714,625.344360 
	C459.878357,632.870361 458.521179,640.373108 458.105011,647.927734 
	C457.417450,660.408447 453.717590,672.462036 453.252960,685.627625 
M516.631592,666.251160 
	C516.946411,664.789062 517.492004,663.332947 517.529602,661.863770 
	C517.616699,658.461670 514.696472,657.643677 512.358948,656.571533 
	C510.573395,655.752502 509.050323,656.507996 508.464996,658.479187 
	C504.981873,670.208984 501.292725,681.885620 499.234222,694.174255 
	C504.048279,689.321289 510.395325,685.951538 512.668518,678.907959 
	C513.945251,674.951965 515.229736,670.998474 516.631592,666.251160 
M682.288513,359.213776 
	C682.875000,355.740967 681.160522,355.701263 678.934875,357.168793 
	C675.605347,359.364258 673.034241,361.863037 671.691589,366.147491 
	C669.350708,373.617828 667.437805,381.118835 665.437195,389.764801 
	C672.384399,384.177155 679.587158,380.300507 679.505981,371.039032 
	C679.471619,367.115326 680.840149,363.540314 682.288513,359.213776 
M688.317139,370.285431 
	C699.436890,363.950134 700.912292,353.369202 701.465820,341.565887 
	C687.931763,347.996002 690.476868,361.492645 685.080139,372.622559 
	C686.807983,371.392548 687.331116,371.020081 688.317139,370.285431 
M708.518250,344.568909 
	C708.490295,347.156952 708.527710,349.750671 707.239258,352.523743 
	C718.000549,347.115417 723.106201,338.862274 723.086365,327.440399 
	C715.124817,330.175476 709.994446,335.334015 708.518250,344.568909 
M660.687500,379.311829 
	C661.044312,377.702698 661.559814,376.108215 661.710266,374.480011 
	C661.842163,373.053070 662.094299,371.215027 660.168579,370.720428 
	C658.224426,370.221008 657.952026,371.942017 657.143372,373.236938 
	C655.116760,376.482330 654.807617,380.199829 654.237488,383.714813 
	C653.185242,390.201538 650.239258,396.309814 650.099731,403.734528 
	C653.626160,401.196991 656.406311,399.178925 657.114929,395.124603 
	C657.997803,390.073181 659.262451,385.088470 660.687500,379.311829 
z"/>
<path fill="#000000" opacity="1.000000" stroke="none" 
	d="
M220.893494,802.904175 
	C217.785049,805.175537 214.968475,807.236084 212.144058,809.285889 
	C210.475906,810.496521 208.650635,810.494263 206.988007,809.488770 
	C205.034668,808.307495 205.977570,806.519104 206.550888,805.027039 
	C208.660919,799.535278 213.111618,795.861511 217.339722,792.227661 
	C235.239380,776.843933 253.461029,761.833740 271.306183,746.388000 
	C284.366516,735.083740 297.341187,723.715820 312.038666,714.529907 
	C313.725037,713.475891 315.528687,712.599426 317.319092,711.724915 
	C319.158966,710.826233 320.903961,711.033875 322.306396,712.604187 
	C323.859772,714.343506 322.983398,716.006836 321.989532,717.616577 
	C320.177094,720.552185 316.905273,721.843445 314.562775,724.199341 
	C300.468475,738.374634 284.552917,750.423889 269.172943,763.105530 
	C258.803650,771.655640 248.917389,780.800659 238.405060,789.164246 
	C232.699417,793.703613 227.572083,799.016846 220.893494,802.904175 
z"/>
<path fill="#000000" opacity="1.000000" stroke="none" 
	d="
M268.756470,681.828003 
	C253.001968,692.968994 237.581726,703.957947 222.100052,714.859558 
	C213.977493,720.579285 205.752930,726.154419 197.555573,731.767212 
	C196.879745,732.229919 196.070038,732.508362 195.302429,732.823364 
	C193.723099,733.471375 191.936569,734.075378 190.596970,732.767700 
	C188.996902,731.205750 189.834747,729.169006 190.836319,727.719055 
	C193.963699,723.191772 197.577225,718.981689 202.013779,715.734497 
	C217.828659,704.159302 233.616730,692.534729 249.730286,681.384521 
	C261.999725,672.894409 274.026855,664.011902 286.966583,656.514587 
	C287.829529,656.014526 288.655762,655.384521 289.585846,655.080322 
	C291.597443,654.422485 293.866516,653.229614 295.548859,655.428833 
	C297.305908,657.725647 295.443390,659.583191 294.055267,661.121765 
	C290.262543,665.325562 285.803894,668.804321 281.309235,672.227234 
	C277.213745,675.346130 273.145447,678.500793 268.756470,681.828003 
z"/>
<path fill="#000000" opacity="1.000000" stroke="none" 
	d="
M334.045471,764.801941 
	C335.994446,763.758667 337.556946,763.614014 338.921570,765.071899 
	C340.360199,766.609009 339.485474,768.141968 338.860962,769.687683 
	C337.367462,773.384094 334.343964,775.762756 331.532318,778.341064 
	C322.979431,786.183899 314.462769,794.066284 305.891724,801.889099 
	C304.800781,802.884766 303.527771,803.720093 302.236664,804.448059 
	C300.336670,805.519348 298.392426,805.558289 296.723969,803.944824 
	C295.120178,802.393921 296.365417,800.839539 296.926392,799.364258 
	C298.147888,796.151733 300.756897,793.968933 303.028839,791.572815 
	C312.384216,781.706055 321.317780,771.339539 334.045471,764.801941 
z"/>
<path fill="#000000" opacity="1.000000" stroke="none" 
	d="
M699.259766,614.221191 
	C693.095398,628.062561 687.073730,641.554382 681.033508,655.037903 
	C680.560059,656.094788 680.157593,657.295349 679.371765,658.076965 
	C677.789124,659.651184 676.234436,661.923096 673.482666,660.350586 
	C670.985413,658.923462 671.817871,656.701172 672.422241,654.588623 
	C675.730103,643.027039 681.571777,632.513550 686.133911,621.471069 
	C691.518982,608.436646 696.874573,595.382385 702.657776,582.523254 
	C705.852356,575.420105 709.921814,568.712158 713.545044,561.798950 
	C715.003479,559.016113 717.283997,556.814331 720.220215,558.333008 
	C722.827637,559.681641 721.583984,562.932251 720.793945,565.122192 
	C718.936279,570.271484 716.733337,575.303833 714.507141,580.311035 
	C709.523438,591.520691 704.440430,602.686096 699.259766,614.221191 
z"/>
<path fill="#000000" opacity="1.000000" stroke="none" 
	d="
M273.987457,491.098267 
	C277.534271,487.155670 282.001953,485.228149 286.170349,482.843719 
	C298.728424,475.660217 311.904846,469.776245 325.280090,464.329285 
	C327.638458,463.368805 330.680969,461.857178 332.371918,465.034668 
	C334.207916,468.484833 330.819275,469.793274 328.671844,470.931702 
	C316.524261,477.371429 304.285278,483.639862 292.040283,489.894012 
	C287.612640,492.155457 283.076080,494.203064 278.601654,496.373840 
	C276.729645,497.282013 274.699615,498.019043 273.076508,496.340363 
	C271.458832,494.667328 272.867981,492.958191 273.987457,491.098267 
z"/>
<path fill="#000000" opacity="1.000000" stroke="none" 
	d="
M312.629822,503.844482 
	C320.629913,495.871918 330.697754,492.125305 340.271667,487.571747 
	C343.413055,486.077576 346.727539,484.862061 350.075562,483.919617 
	C352.074158,483.357025 354.611969,482.971313 355.603760,485.735535 
	C356.547638,488.366333 354.683228,489.693604 352.720398,490.819092 
	C340.608398,497.764038 327.977448,503.659424 315.259369,509.383514 
	C313.893585,509.998291 312.647034,510.210266 311.628540,509.041382 
	C310.013123,507.187378 311.474640,505.664734 312.629822,503.844482 
z"/>
</svg>