<svg version="1.1" id="Layer_1" xmlns="http://www.w3.org/2000/svg" xmlns:xlink="http://www.w3.org/1999/xlink" x="0px" y="0px"
	 width="100%" viewBox="0 0 1024 1024" enable-background="new 0 0 1024 1024" xml:space="preserve">
<path fill="#000000" opacity="1.000000" stroke="none" 
	d="
M410.685974,744.573364 
	C392.554626,737.592529 375.498779,729.181030 360.045898,717.926331 
	C349.479889,710.230774 338.824463,702.559021 329.728149,693.031372 
	C327.190643,690.373474 324.174561,688.979980 320.357300,689.221436 
	C308.306763,689.983582 296.246002,691.175903 284.192902,691.134338 
	C272.715393,691.094604 261.264984,692.116821 249.719208,691.164673 
	C243.357773,690.640076 236.825180,690.301270 230.364883,690.339966 
	C214.358810,690.435913 198.641052,687.626038 182.997467,684.968811 
	C170.830505,682.902161 158.684387,679.725464 147.105072,675.473450 
	C136.230774,671.480225 125.000893,667.082642 116.336731,659.141235 
	C108.298912,651.773926 100.119766,643.946838 96.392502,633.219910 
	C94.736320,628.453491 94.281525,623.194214 93.795486,618.109497 
	C91.597534,595.115234 101.997292,576.837097 115.815140,559.824585 
	C120.419884,554.155273 125.149467,548.636475 130.258499,543.405884 
	C139.087769,534.366455 148.932526,526.521301 158.782608,518.689697 
	C175.072952,505.737518 192.675613,494.702576 210.201630,483.525604 
	C222.860764,475.452393 236.393219,469.216858 249.860641,462.785950 
	C251.756332,461.880707 253.321899,461.118866 253.729752,458.746307 
	C255.655151,447.545807 258.146667,436.532990 261.664948,425.648315 
	C265.961975,412.354462 270.991486,399.419617 276.976654,386.853333 
	C287.725525,364.285278 300.651917,343.210297 317.683167,324.611786 
	C337.171661,303.329926 359.434448,285.693115 384.215210,271.201141 
	C396.597198,263.960052 409.636108,258.057373 423.334869,253.395004 
	C439.136902,248.016769 455.009369,242.925690 471.442169,240.299515 
	C484.239990,238.254272 497.200745,237.040009 510.288086,236.968765 
	C519.415222,236.919083 528.472107,237.729141 537.562256,237.935486 
	C547.193298,238.154114 556.741699,239.716705 566.233643,242.075058 
	C573.515991,243.884430 581.075439,244.539917 588.348999,246.902512 
	C598.010315,250.040665 607.685730,253.069565 616.987915,257.186005 
	C627.903259,262.016266 638.165283,267.985626 648.425110,274.091553 
	C671.705933,287.946655 691.454407,305.743042 708.968506,326.183777 
	C711.588257,329.241272 713.670044,330.175293 718.078125,329.240509 
	C733.166809,326.040771 748.478577,324.043427 763.869263,322.560181 
	C777.772278,321.220245 791.684448,321.711975 805.537842,321.983643 
	C820.644287,322.279877 835.793762,323.636536 850.621948,327.289581 
	C857.200073,328.910126 864.163452,329.087769 870.632446,331.000763 
	C879.234192,333.544525 887.214294,337.657013 895.181519,341.971832 
	C904.590149,347.067322 912.483093,353.692352 919.054871,361.695648 
	C931.767334,377.177399 935.859436,394.736237 930.757629,414.588318 
	C928.194946,424.560272 922.454590,432.528687 917.433228,441.025085 
	C914.084778,446.690735 911.176514,453.000610 906.559998,457.456207 
	C895.505859,468.124847 884.855957,479.227692 872.959106,489.067474 
	C863.139465,497.189178 853.294922,505.241608 842.815186,512.459351 
	C831.519165,520.239258 820.228516,528.097412 808.418945,535.043213 
	C793.576904,543.772583 778.215515,551.619568 763.061890,559.817261 
	C761.700012,560.553955 760.407776,561.293152 760.033875,562.911072 
	C757.042725,575.857300 752.349915,588.272583 747.034302,600.352722 
	C739.302368,617.923706 730.666504,635.002747 719.324036,650.741333 
	C706.324402,668.779114 691.176636,684.676941 674.533325,699.173096 
	C660.174133,711.679871 644.662720,722.900330 627.835266,731.753357 
	C611.979370,740.095398 595.185730,746.416748 577.876404,751.633362 
	C559.328308,757.223389 540.435730,760.212769 521.382568,761.897095 
	C505.986298,763.258179 490.408081,762.850891 474.910889,761.040466 
	C466.037445,760.003784 457.284027,758.326172 448.698120,756.245056 
	C435.942566,753.153259 423.208099,749.705139 410.685974,744.573364 
M381.351898,604.750671 
	C388.389679,603.642090 395.476349,602.778137 402.457062,601.383728 
	C438.461212,594.192261 474.353027,586.620300 509.317566,575.072449 
	C521.707397,570.980408 534.439148,567.858704 546.821838,563.629761 
	C562.183960,558.383240 577.704773,553.587463 592.978210,548.099548 
	C607.314453,542.948303 621.382324,537.055054 635.634644,531.663757 
	C647.399109,527.213562 658.799500,521.858582 670.275146,516.804504 
	C682.193604,511.555389 694.194763,506.337128 705.800415,500.188080 
	C717.939758,493.756317 729.848328,486.886017 742.059875,480.591339 
	C745.163391,478.991547 746.314575,476.582031 745.919067,473.261047 
	C745.507263,469.802643 744.964844,466.356384 744.663208,462.888824 
	C743.157471,445.578339 737.996277,429.197327 732.046082,413.019623 
	C727.591797,400.909271 722.249451,389.198761 716.732300,377.525635 
	C710.059875,363.408112 701.083862,350.832184 691.449097,338.839050 
	C682.356079,327.520355 671.562195,317.656433 659.998962,308.687225 
	C651.040466,301.738403 642.079651,294.505371 631.935669,289.764648 
	C617.316650,282.932617 602.770996,275.892639 587.050720,271.268066 
	C570.238220,266.322205 553.294617,263.281860 535.990356,261.360107 
	C518.003113,259.362518 500.032928,260.350555 482.130157,261.752625 
	C472.971954,262.469879 463.868774,264.817230 454.926147,267.141357 
	C441.813568,270.549194 428.998566,274.884033 416.406586,280.028870 
	C400.399536,286.569122 385.684692,295.229401 371.562378,305.018066 
	C361.091705,312.275696 352.141052,321.298584 342.938690,330.043854 
	C328.902344,343.382965 317.211243,358.583588 307.327271,375.107910 
	C294.818024,396.021210 286.230988,418.664520 279.681915,442.081207 
	C276.476501,453.542358 273.780609,465.193085 272.496307,476.988495 
	C270.661469,493.840271 270.158020,510.821198 272.380219,527.716370 
	C274.436707,543.351624 276.295624,559.092468 282.222839,573.868225 
	C287.093994,586.011536 292.472809,597.953308 297.758087,609.926392 
	C298.742737,612.156921 300.444305,613.196045 303.382050,612.757629 
	C308.266388,612.028625 313.275330,612.180725 318.217804,611.785950 
	C328.617889,610.955261 339.032043,610.217102 349.397156,609.054871 
	C359.779785,607.890625 370.109741,606.256226 381.351898,604.750671 
M161.598862,544.165894 
	C151.611176,551.691467 143.289871,560.670410 135.560226,570.592468 
	C127.982811,580.319214 120.249657,589.401733 117.122147,601.820618 
	C113.818214,614.940063 114.675438,626.671082 123.917709,637.220764 
	C131.539124,645.920288 141.861465,650.074463 151.956284,654.706787 
	C161.381668,659.031921 171.658447,660.210571 181.524155,662.909302 
	C196.951385,667.129272 212.813614,667.842957 228.568100,668.747986 
	C240.182999,669.415222 251.869904,669.742432 263.601318,669.256775 
	C278.623322,668.634888 293.685028,668.794800 308.715881,667.768250 
	C334.201599,666.027466 359.729614,665.048218 385.027802,660.916443 
	C395.560425,659.196350 406.116119,657.437866 416.710602,655.982239 
	C425.456726,654.780518 433.980957,651.850159 442.716553,650.085083 
	C459.593719,646.674927 476.388824,642.929199 492.896912,637.870300 
	C505.035278,634.150452 517.588013,631.797363 529.777710,628.226196 
	C541.569031,624.771790 553.269653,621.013428 565.094055,617.638306 
	C576.541626,614.370728 587.782288,610.365845 599.071960,606.560669 
	C614.466614,601.371948 629.559570,595.361633 644.777466,589.701111 
	C656.532898,585.328552 668.071960,580.453857 679.654846,575.722595 
	C695.379700,569.299500 710.833923,562.156006 726.129578,554.754028 
	C746.847595,544.728149 767.409668,534.331543 787.187012,522.538025 
	C801.539062,513.979797 815.937500,505.459961 829.537720,495.680145 
	C842.734924,486.190186 856.081543,476.847229 867.769958,465.527374 
	C875.352844,458.183594 883.029480,450.942444 889.754456,442.624847 
	C899.356934,430.748352 908.835388,419.107483 911.329102,403.458832 
	C912.248352,397.689850 912.102966,391.834473 909.874634,386.469330 
	C903.075073,370.098022 889.453064,361.011292 873.534302,355.886353 
	C859.485962,351.363525 844.937439,348.430420 830.067810,346.911530 
	C800.657104,343.907318 771.349731,343.506866 742.149170,348.273285 
	C737.081116,349.100586 731.628784,348.023132 726.588867,350.301941 
	C729.472046,355.630035 732.266663,360.337891 734.608582,365.261108 
	C736.624390,369.498901 739.703796,370.409332 743.946899,369.553650 
	C752.353638,367.858337 760.812134,366.638794 769.395874,366.017670 
	C780.405823,365.221039 791.439819,365.844543 801.980347,368.271820 
	C812.525818,370.700287 822.999573,374.460083 832.145386,380.765198 
	C838.147461,384.903015 843.242737,390.211670 845.065369,397.275574 
	C848.278870,409.730255 844.405396,421.091400 836.882751,430.965729 
	C828.380859,442.125397 817.862976,451.495026 806.815430,460.005798 
	C794.653442,469.375153 782.928528,479.282562 769.577515,487.222137 
	C752.555115,497.345032 736.202454,508.584442 718.320068,517.257874 
	C710.595032,521.004700 702.661865,524.453125 695.365356,528.922241 
	C684.416260,535.628540 672.188721,539.423218 660.750916,544.997375 
	C654.146606,548.215942 646.986938,550.623108 640.044312,553.310181 
	C632.324524,556.298157 624.920959,560.229919 617.135864,562.796326 
	C605.060120,566.777344 592.971008,570.759094 580.880188,574.712585 
	C566.884888,579.288757 553.060852,584.398071 539.018005,588.816956 
	C522.749146,593.936340 506.302246,598.487183 489.971466,603.413452 
	C474.567047,608.060303 459.080017,612.358521 443.211914,615.122070 
	C422.996307,618.642761 402.925781,622.889282 382.590240,625.860901 
	C363.146210,628.702209 343.673431,631.439697 324.122101,632.779175 
	C301.862000,634.304138 279.505554,635.443237 257.147675,634.210815 
	C250.678619,633.854248 244.048141,634.143311 237.789261,632.775024 
	C227.580338,630.543274 217.015335,629.810364 207.169846,625.988403 
	C198.848663,622.758301 190.296997,620.670898 183.202515,614.136719 
	C171.680557,603.524902 169.551727,584.219727 175.302582,571.408813 
	C181.212097,558.244507 191.637054,548.899780 202.211304,539.547363 
	C206.713242,535.565552 212.118622,532.995483 216.434067,529.015930 
	C224.999359,521.117432 235.651337,516.944458 245.818298,511.960480 
	C248.748138,510.524231 250.026443,509.201721 249.730515,506.090698 
	C249.306534,501.633698 249.124786,497.183075 250.209106,492.753143 
	C250.690430,490.786682 249.552200,489.306488 247.867035,487.782715 
	C243.060501,490.958191 237.874390,493.505035 232.806976,496.261902 
	C219.741608,503.370026 207.223145,511.391327 194.716324,519.437561 
	C183.288498,526.789551 171.704361,533.885193 161.598862,544.165894 
M391.354767,681.465637 
	C379.635620,683.045593 367.979767,685.095581 354.426300,685.810791 
	C358.451508,689.521545 361.171936,692.447937 364.299774,694.842102 
	C379.637543,706.582458 396.466705,715.769165 414.099030,723.561157 
	C426.276337,728.942505 438.923676,732.796448 451.882263,735.774658 
	C465.614807,738.930786 479.406342,741.299194 493.555176,741.721741 
	C505.644012,742.082642 517.551514,740.999207 529.571045,739.883911 
	C553.025269,737.707520 575.216553,731.336426 597.057190,722.980164 
	C610.385742,717.880615 623.014954,711.592712 634.726440,703.471436 
	C647.359253,694.711426 658.855530,684.562073 670.391907,674.436340 
	C679.886658,666.102661 689.391296,657.678650 696.444824,647.231628 
	C706.266296,632.684875 716.138367,618.062744 722.885193,601.698303 
	C726.316772,593.375061 730.951172,585.470398 732.447815,575.726379 
	C726.925354,577.575134 721.806030,579.486267 717.432129,581.827209 
	C705.990295,587.951050 693.570557,591.609863 682.001709,597.322327 
	C674.503479,601.024719 665.982239,602.866760 658.742920,606.703247 
	C647.074158,612.886963 634.612732,617.077637 622.451294,621.422119 
	C600.076538,629.415100 577.374939,636.691895 554.416748,643.124451 
	C536.432312,648.163269 518.515991,653.533691 500.572144,658.769775 
	C485.025024,663.306458 469.275116,666.870178 453.424255,670.023865 
	C440.274170,672.640198 427.350525,676.355347 413.920746,677.670105 
	C406.613678,678.385376 399.401031,680.064697 391.354767,681.465637 
M220.651688,610.136597 
	C229.300186,612.765869 238.110229,614.160217 247.143463,615.015747 
	C253.799744,615.646179 260.352356,614.918030 266.936035,615.328247 
	C270.205811,615.532043 274.501495,617.120056 276.341949,614.281006 
	C278.394379,611.114929 274.825287,607.951050 273.240936,604.943420 
	C268.179321,595.334900 262.253265,586.177063 259.543396,575.416016 
	C256.509430,563.368042 253.157318,551.426880 252.482529,538.913025 
	C252.372803,536.878235 251.334503,533.281982 248.251785,535.112732 
	C242.367538,538.607239 235.752655,540.875305 230.509644,545.440186 
	C222.581558,552.342712 213.149811,557.248840 205.816330,565.075989 
	C202.050034,569.095886 198.165268,572.741577 195.948349,577.858154 
	C190.734329,589.891907 193.543076,597.593079 204.457657,603.591553 
	C209.442017,606.330750 214.452530,608.643799 220.651688,610.136597 
M750.053589,398.665100 
	C758.113037,419.907623 762.913635,441.965668 765.741577,464.355042 
	C768.801636,464.482178 770.697510,463.251007 772.441895,462.105286 
	C791.200562,449.784912 809.653687,437.172516 821.104004,416.886993 
	C823.347168,412.912811 823.871277,409.132599 822.795898,405.074921 
	C820.445435,396.206177 812.087158,394.849701 805.283936,393.153931 
	C788.515381,388.974213 771.360413,387.331360 754.001587,389.247314 
	C746.989929,390.021210 746.666199,390.231323 749.240967,396.542908 
	C749.429321,397.004578 749.581909,397.480804 750.053589,398.665100 
z"/>
<path fill="#000000" opacity="1.000000" stroke="none" 
	d="
M428.091919,505.085236 
	C438.532867,494.360229 448.474274,483.635040 460.266296,474.858704 
	C463.313385,472.590851 465.806000,469.638885 469.221649,467.773438 
	C471.899689,466.310852 474.337646,466.340027 476.623505,468.247986 
	C478.222382,469.582520 478.713898,471.137726 476.915649,472.896210 
	C471.815674,477.883453 466.775848,482.928925 460.708496,486.786224 
	C459.872528,487.317719 458.951538,487.821777 458.321289,488.554718 
	C448.217621,500.304535 435.833832,509.664124 424.843262,520.484192 
	C423.097809,522.202515 420.757874,523.305420 418.754669,524.777161 
	C417.063019,526.019958 415.405823,528.334717 413.304199,525.863953 
	C411.612274,523.874756 412.001007,521.447266 413.805908,519.506836 
	C417.088989,515.977112 420.427063,512.497498 423.792755,509.046204 
	C425.067963,507.738525 426.482971,506.567230 428.091919,505.085236 
z"/>
<path fill="#000000" opacity="1.000000" stroke="none" 
	d="
M303.491211,485.248535 
	C300.068298,481.553619 302.016693,478.420807 304.340607,475.826141 
	C318.420868,460.105682 335.494446,447.575592 350.488800,432.817841 
	C352.187836,431.145599 354.283630,429.616669 356.628754,431.618988 
	C358.991882,433.636749 357.892792,435.441010 356.134277,437.517029 
	C346.374786,449.038605 336.467072,460.360992 324.640503,469.908325 
	C320.273041,473.434082 316.746948,477.987762 312.711517,481.944550 
	C310.300751,484.308258 307.571259,486.229553 303.491211,485.248535 
z"/>
<path fill="#000000" opacity="1.000000" stroke="none" 
	d="
M582.755005,367.143921 
	C583.527100,363.683258 585.657166,361.527740 587.822449,359.496643 
	C597.999817,349.949951 608.264648,340.496582 618.461365,330.970398 
	C620.201416,329.344788 622.074280,328.080048 624.398071,327.471069 
	C627.712463,326.602509 629.518433,328.124084 628.891968,331.541962 
	C628.502136,333.669220 627.823425,335.930481 626.213440,337.368713 
	C619.552673,343.319244 614.486511,350.824554 607.004822,356.041626 
	C601.331787,359.997528 596.407410,365.029327 591.164795,369.599487 
	C587.205688,373.050812 584.855286,372.487457 582.755005,367.143921 
z"/>
<path fill="#000000" opacity="1.000000" stroke="none" 
	d="
M434.878387,334.864441 
	C424.380157,342.980011 414.135498,350.845215 403.882507,358.699554 
	C402.434509,359.808777 401.042938,361.043976 399.163635,361.395599 
	C397.787170,361.653046 396.178833,362.951569 395.117554,361.170654 
	C394.137421,359.525848 395.085724,358.147064 396.230865,356.725769 
	C402.552246,348.879852 410.976990,343.343353 418.176941,336.477234 
	C424.228973,330.705811 431.490936,326.706451 438.263184,321.986969 
	C439.800995,320.915344 441.529785,320.359680 443.440857,320.502686 
	C445.029999,320.621582 446.478912,321.104370 446.992188,322.746857 
	C447.520966,324.438721 445.793701,324.742889 445.016632,325.696869 
	C442.164581,329.198181 437.605927,330.750305 434.878387,334.864441 
z"/>
<path fill="#000000" opacity="1.000000" stroke="none" 
	d="
M337.986572,421.889343 
	C329.964691,428.407928 323.575195,436.246704 315.195862,441.803284 
	C312.984955,443.269440 310.799561,444.777344 308.545502,446.174133 
	C307.051453,447.099976 305.442078,447.527954 303.972992,446.077759 
	C302.098816,444.227600 302.909973,442.223022 304.186157,440.682678 
	C307.989990,436.091492 311.553497,431.258362 316.198181,427.429413 
	C322.728241,422.046082 329.344086,416.764832 335.794830,411.288635 
	C337.565979,409.785095 339.162964,410.000488 340.801270,410.947296 
	C342.749664,412.073303 342.746124,414.233185 342.056427,415.846191 
	C341.163025,417.935638 339.546234,419.715820 337.986572,421.889343 
z"/>
<path fill="#000000" opacity="1.000000" stroke="none" 
	d="
M623.445312,510.435974 
	C627.025024,506.491516 630.341675,502.776154 633.632629,499.038147 
	C638.338318,493.693329 639.097351,493.602081 645.245544,498.071716 
	C641.058594,505.203918 635.685730,511.439880 630.120667,517.534485 
	C624.514526,523.674072 617.996216,528.754089 611.354736,533.686340 
	C609.953979,534.726562 608.468445,536.453613 606.709778,534.210693 
	C605.132385,532.198853 605.437683,530.224243 607.068848,528.337952 
	C612.285034,522.305542 617.246338,516.042175 623.445312,510.435974 
z"/>
<path fill="#000000" opacity="1.000000" stroke="none" 
	d="
M460.559723,507.472534 
	C462.403229,506.006958 463.947906,504.747253 465.533783,503.541779 
	C467.036255,502.399628 468.681976,502.399231 470.155365,503.466614 
	C471.742493,504.616425 471.764862,506.467804 471.081482,507.980194 
	C470.277161,509.760162 469.155060,511.506439 467.800293,512.909668 
	C460.200348,520.781433 452.602570,528.664124 444.148163,535.650452 
	C443.892822,535.861389 443.688263,536.191162 443.398926,536.294678 
	C440.958038,537.168335 438.712219,540.757996 435.984070,538.037292 
	C433.240387,535.301086 436.018280,532.801270 437.795532,530.745911 
	C444.824615,522.616882 451.894287,514.513794 460.559723,507.472534 
z"/>
<path fill="#000000" opacity="1.000000" stroke="none" 
	d="
M616.942749,378.733704 
	C614.880066,379.599243 613.346558,379.576691 612.350098,377.698517 
	C611.424988,375.954895 611.947937,374.482849 613.308228,373.226654 
	C622.309814,364.913757 631.281067,356.567291 640.356323,348.335541 
	C641.976868,346.865631 644.079956,345.823425 646.143860,347.821381 
	C648.192688,349.804657 646.228271,351.281860 645.522278,353.077393 
	C641.802856,362.536469 633.104980,367.002533 625.858643,372.884735 
	C623.208618,375.035919 621.067871,378.107483 616.942749,378.733704 
z"/>
<path fill="#000000" opacity="1.000000" stroke="none" 
	d="
M656.633667,652.560364 
	C649.049561,661.665161 639.895752,668.342102 630.373413,674.580139 
	C629.818115,674.943909 629.360535,675.535645 628.761597,675.738831 
	C627.001404,676.336182 625.101868,678.292236 623.377319,676.103699 
	C621.773438,674.068481 623.321350,672.308105 624.703552,670.849731 
	C629.032593,666.282166 633.402527,661.752075 637.818481,657.268433 
	C645.845703,649.118286 653.925110,641.019592 661.959473,632.876465 
	C662.792664,632.031982 663.601440,631.233459 665.184509,630.934753 
	C667.998962,633.353271 669.464294,635.694336 666.264160,639.443909 
	C662.829041,643.468933 659.987549,648.000671 656.633667,652.560364 
z"/>
<path fill="#000000" opacity="1.000000" stroke="none" 
	d="
M602.346130,664.340637 
	C606.960266,659.807434 611.388794,655.579590 615.689270,651.225281 
	C617.942322,648.944031 620.482971,647.132141 623.275024,645.616211 
	C624.697998,644.843567 626.102661,644.346375 627.152405,646.099182 
	C628.081055,647.649841 629.120544,649.108032 627.624207,651.065552 
	C618.310181,663.250244 606.354980,672.863831 595.807251,683.844604 
	C595.040039,684.643311 593.747620,684.909607 592.807922,685.576416 
	C590.929810,686.909058 589.253235,687.050537 587.478394,685.333252 
	C585.607483,683.523010 586.153259,681.574524 587.275085,679.901489 
	C589.873718,676.025757 593.183960,672.712830 596.749023,669.745911 
	C598.676880,668.141602 600.426880,666.420837 602.346130,664.340637 
z"/>
<path fill="#000000" opacity="1.000000" stroke="none" 
	d="
M445.226379,699.233154 
	C450.903381,693.617371 456.271576,688.195862 462.528015,683.756592 
	C464.177216,682.586487 465.662964,680.978943 467.670929,683.106567 
	C469.631104,685.183533 469.110260,687.247070 467.805115,689.471008 
	C464.711395,694.742615 460.171417,698.708984 455.429291,702.240234 
	C451.718140,705.003723 447.952148,707.711426 444.332336,710.603821 
	C443.111847,711.579102 441.825043,712.235291 440.270081,712.297607 
	C438.946533,712.350647 437.502136,712.575439 436.541534,711.399048 
	C435.392395,709.991821 436.841614,709.010498 437.271820,707.832214 
	C438.685608,703.959961 442.568420,702.410339 445.226379,699.233154 
z"/>
</svg>